<?xml version="1.0" encoding="UTF-8" standalone="no"?>
<svg
   xmlns:dc="http://purl.org/dc/elements/1.1/"
   xmlns:cc="http://creativecommons.org/ns#"
   xmlns:rdf="http://www.w3.org/1999/02/22-rdf-syntax-ns#"
   xmlns:svg="http://www.w3.org/2000/svg"
   xmlns="http://www.w3.org/2000/svg"
   id="svg5366"
   version="1.1"
   viewBox="0 0 21.970064 17.525888">
  <defs
     id="defs5360" />
  <metadata
     id="metadata5363">
    <rdf:RDF>
      <cc:Work
         rdf:about="">
        <dc:format>image/svg+xml</dc:format>
        <dc:type
           rdf:resource="http://purl.org/dc/dcmitype/StillImage" />
        <dc:title></dc:title>
      </cc:Work>
    </rdf:RDF>
  </metadata>
  <g
     transform="translate(-29.639936,-24.308397)"
     id="layer1">
    <path
       style="fill:#666666;fill-opacity:1;fill-rule:nonzero;stroke:none;stroke-width:0.35277775"
       d="m 34.380387,29.048848 c 0.29628,-0.296278 0.423058,-0.635276 0.423058,-1.058333 0,-0.423058 -0.126778,-0.762056 -0.423058,-1.058333 -0.296277,-0.296279 -0.635275,-0.423058 -1.058333,-0.423058 -0.380337,0 -0.762053,0.126779 -1.015612,0.423058 -0.296281,0.296277 -0.465776,0.635275 -0.465776,1.058333 0,0.423057 0.169495,0.762055 0.465776,1.058333 0.253559,0.296278 0.635275,0.423058 1.015612,0.423058 0.423058,0 0.762056,-0.12678 1.058333,-0.423058 z m 12.785439,5.630664 c 0,0.38034 -0.128157,0.762056 -0.424434,1.015616 l -5.672007,5.714724 c -0.296277,0.297656 -0.677993,0.424434 -1.058333,0.424434 -0.423058,0 -0.762053,-0.126778 -1.058334,-0.424434 l -8.254449,-8.297171 c -0.297656,-0.296277 -0.551215,-0.676615 -0.762053,-1.185111 -0.212217,-0.465777 -0.29628,-0.931554 -0.29628,-1.354612 v -4.78317 c 0,-0.423058 0.126781,-0.762055 0.423058,-1.058334 0.29628,-0.296278 0.635275,-0.423057 1.058333,-0.423057 h 4.825891 c 0.38034,0 0.846116,0.08406 1.35461,0.296278 0.465779,0.21084 0.888838,0.423058 1.185115,0.719336 l 8.254449,8.297168 c 0.296277,0.296277 0.424434,0.635275 0.424434,1.058333 z m 4.444175,0 c 0,0.38034 -0.126782,0.762056 -0.423058,1.015616 l -5.672007,5.714724 c -0.297657,0.297656 -0.635275,0.424434 -1.058334,0.424434 -0.297656,0 -0.508494,-0.04272 -0.677993,-0.169499 -0.169499,-0.08544 -0.38034,-0.254935 -0.635275,-0.508494 L 48.6045,35.695128 c 0.296277,-0.25356 0.423058,-0.635276 0.423058,-1.015616 0,-0.423058 -0.126781,-0.762056 -0.423058,-1.058333 l -8.297168,-8.297168 c -0.29628,-0.296278 -0.677996,-0.508496 -1.185114,-0.719336 -0.465776,-0.212218 -0.931552,-0.296278 -1.354611,-0.296278 h 2.623785 c 0.381716,0 0.847493,0.08406 1.354611,0.296278 0.465775,0.21084 0.890213,0.423058 1.18649,0.719336 l 8.25445,8.297168 c 0.296276,0.296277 0.423058,0.635275 0.423058,1.058333 z m 0,0"
       id="path1395" />
  </g>
</svg>
