<?xml version="1.0" encoding="UTF-8" standalone="no"?>
<svg
   xmlns:dc="http://purl.org/dc/elements/1.1/"
   xmlns:cc="http://creativecommons.org/ns#"
   xmlns:rdf="http://www.w3.org/1999/02/22-rdf-syntax-ns#"
   xmlns:svg="http://www.w3.org/2000/svg"
   xmlns="http://www.w3.org/2000/svg"
   xmlns:xlink="http://www.w3.org/1999/xlink"
   id="svg17592"
   version="1.1"
   viewBox="0 0 13.532239 17.6875">
  <metadata
     id="metadata17621">
    <rdf:RDF>
      <cc:Work
         rdf:about="">
        <dc:format>image/svg+xml</dc:format>
        <dc:type
           rdf:resource="http://purl.org/dc/dcmitype/StillImage" />
        <dc:title></dc:title>
      </cc:Work>
    </rdf:RDF>
  </metadata>
  <defs
     id="defs17594">
    <g
       id="g17596">
      <symbol
         style="overflow:visible"
         id="glyph0-0"
         overflow="visible">
        <path
           id="path17599"
           d=""
           style="stroke:none" />
      </symbol>
      <symbol
         style="overflow:visible"
         id="glyph0-1"
         overflow="visible">
        <path
           id="path17602"
           d="m 11.71875,-0.21875 c 2.953125,-1.265625 4.953125,-4.484375 4.953125,-8.203125 0,-5.078125 -3.640625,-8.90625 -7.75,-8.90625 -4.21875,0 -7.78125,3.875 -7.78125,8.90625 0,4.953125 3.5625,8.8125 7.78125,8.8125 0.5625,0 1.359375,-0.0625 2.296875,-0.390625 0.421875,3.015625 0.703125,4.828125 2.828125,4.828125 2.625,0 2.75,-3.859375 2.75,-4.5625 0,-0.234375 0,-0.421875 -0.171875,-0.421875 -0.125,0 -0.140625,0.1875 -0.140625,0.234375 -0.171875,2.375 -1.515625,2.875 -2.3125,2.875 -1.453125,0 -1.984375,-1.3125 -2.453125,-3.171875 z M 7.578125,-0.25 C 5,-1.0625 2.96875,-3.8125 2.96875,-8.421875 c 0,-5.90625 3.25,-8.453125 5.921875,-8.453125 2.78125,0 5.953125,2.65625 5.953125,8.453125 0,4.1875 -1.65625,6.515625 -3.328125,7.578125 -0.359375,-1.265625 -0.953125,-2.75 -2.5625,-2.75 -1.203125,0 -1.859375,1.046875 -1.859375,1.984375 0,0.5625 0.21875,1.046875 0.484375,1.359375 z M 11.125,-0.625 c -0.984375,0.53125 -1.78125,0.578125 -2.203125,0.578125 -1.109375,0 -1.4375,-1.015625 -1.4375,-1.5625 0,-0.765625 0.515625,-1.59375 1.46875,-1.59375 1.578125,0 1.96875,1.421875 2.171875,2.578125 z m 0,0"
           style="stroke:none" />
      </symbol>
      <symbol
         style="overflow:visible"
         id="glyph0-2"
         overflow="visible">
        <path
           id="path17605"
           d="M 10.1875,-10.859375 H 9.78125 L 9.046875,-8.40625 C 8.46875,-9.71875 7.4375,-10.859375 5.78125,-10.859375 c -2.53125,0 -4.96875,2.265625 -4.96875,5.53125 0,3.25 2.28125,5.53125 4.765625,5.53125 1.90625,0 2.96875,-1.46875 3.296875,-2.015625 V 3.125 c 0,0.9375 -0.109375,1.0625 -1.6875,1.0625 V 4.828125 C 7.78125,4.78125 8.875,4.78125 9.515625,4.78125 c 0.640625,0 1.765625,0 2.359375,0.046875 V 4.1875 c -1.59375,0 -1.6875,-0.09375 -1.6875,-1.0625 z m -1.265625,7.46875 c 0,1.0625 -0.890625,2.046875 -0.96875,2.125 -0.765625,0.875 -1.65625,1.0625 -2.25,1.0625 -1.859375,0 -3.296875,-2.34375 -3.296875,-5.09375 0,-2.90625 1.640625,-5.109375 3.546875,-5.109375 1.984375,0 2.96875,2.25 2.96875,3.546875 z m 0,0"
           style="stroke:none" />
      </symbol>
    </g>
    <clipPath
       id="clip1">
      <path
         id="path17608"
         d="M 1,2 H 29.859375 V 24.71875 H 1 Z m 0,0" />
    </clipPath>
  </defs>
  <g
     transform="translate(-17.513557,-6.46875)"
     id="g838">
    <use
       style="clip-rule:nonzero;fill:#000000;fill-opacity:1"
       height="100%"
       width="100%"
       id="use17617"
       y="19.9"
       x="17.841682"
       xlink:href="#glyph0-2"
       transform="translate(-0.140625,-1.5718746)" />
    <rect
       style="opacity:1;fill:#000000;fill-opacity:1;stroke:none;stroke-width:1.5;stroke-linecap:butt;stroke-linejoin:round;stroke-miterlimit:4;stroke-dasharray:none;stroke-dashoffset:0;stroke-opacity:1"
       id="rect18169"
       width="5.996695"
       height="0.39934319"
       x="24.049101"
       y="20.346176" />
  </g>
</svg>
