<?xml version="1.0" encoding="UTF-8"?>
<svg xmlns="http://www.w3.org/2000/svg" xmlns:xlink="http://www.w3.org/1999/xlink" width="250pt" height="172pt" viewBox="0 0 250 172" version="1.1">
<g id="surface1">
<path style="fill:none;stroke-width:28.346;stroke-linecap:butt;stroke-linejoin:miter;stroke:rgb(30.200195%,30.200195%,30.200195%);stroke-opacity:1;stroke-miterlimit:10;" d="M 680.3125 1424.375 L 680.3125 290.546875 " transform="matrix(0.1,0,0,-0.1,0,172)"/>
<path style="fill:none;stroke-width:28.346;stroke-linecap:butt;stroke-linejoin:miter;stroke:rgb(30.200195%,30.200195%,30.200195%);stroke-opacity:1;stroke-miterlimit:10;" d="M 113.398438 857.460938 L 1247.226563 857.460938 " transform="matrix(0.1,0,0,-0.1,0,172)"/>
<path style="fill:none;stroke-width:28.346;stroke-linecap:butt;stroke-linejoin:miter;stroke:rgb(30.200195%,30.200195%,30.200195%);stroke-opacity:1;stroke-miterlimit:10;" d="M 1814.140625 1424.375 L 1814.140625 290.546875 " transform="matrix(0.1,0,0,-0.1,0,172)"/>
<path style="fill:none;stroke-width:28.346;stroke-linecap:butt;stroke-linejoin:miter;stroke:rgb(30.200195%,30.200195%,30.200195%);stroke-opacity:1;stroke-miterlimit:10;" d="M 1247.226563 857.460938 L 2381.054688 857.460938 " transform="matrix(0.1,0,0,-0.1,0,172)"/>
<path style="fill:none;stroke-width:85.038;stroke-linecap:butt;stroke-linejoin:miter;stroke:rgb(30.200195%,30.200195%,30.200195%);stroke-opacity:1;stroke-miterlimit:10;" d="M 113.398438 290.546875 L 1247.226563 290.546875 L 1247.226563 1424.375 L 113.398438 1424.375 Z M 113.398438 290.546875 " transform="matrix(0.1,0,0,-0.1,0,172)"/>
<path style="fill:none;stroke-width:85.038;stroke-linecap:butt;stroke-linejoin:miter;stroke:rgb(30.200195%,30.200195%,30.200195%);stroke-opacity:1;stroke-miterlimit:10;" d="M 1247.226563 290.546875 L 2381.054688 290.546875 L 2381.054688 1424.375 L 1247.226563 1424.375 Z M 1247.226563 290.546875 " transform="matrix(0.1,0,0,-0.1,0,172)"/>
<path style=" stroke:none;fill-rule:nonzero;fill:rgb(0%,0%,0%);fill-opacity:1;" d="M 21.257813 29.5625 C 21.257813 35.039063 16.816406 39.480469 11.339844 39.480469 C 5.859375 39.480469 1.417969 35.039063 1.417969 29.5625 C 1.417969 24.082031 5.859375 19.640625 11.339844 19.640625 C 16.816406 19.640625 21.257813 24.082031 21.257813 29.5625 "/>
<path style="fill:none;stroke-width:28.346;stroke-linecap:butt;stroke-linejoin:miter;stroke:rgb(0%,0%,0%);stroke-opacity:1;stroke-miterlimit:10;" d="M 212.578125 1424.375 C 212.578125 1369.609375 168.164063 1325.195313 113.398438 1325.195313 C 58.59375 1325.195313 14.179688 1369.609375 14.179688 1424.375 C 14.179688 1479.179688 58.59375 1523.59375 113.398438 1523.59375 C 168.164063 1523.59375 212.578125 1479.179688 212.578125 1424.375 Z M 212.578125 1424.375 " transform="matrix(0.1,0,0,-0.1,0,172)"/>
<path style=" stroke:none;fill-rule:nonzero;fill:rgb(0%,0%,0%);fill-opacity:1;" d="M 77.953125 29.5625 C 77.953125 35.039063 73.507813 39.480469 68.03125 39.480469 C 62.550781 39.480469 58.109375 35.039063 58.109375 29.5625 C 58.109375 24.082031 62.550781 19.640625 68.03125 19.640625 C 73.507813 19.640625 77.953125 24.082031 77.953125 29.5625 "/>
<path style="fill:none;stroke-width:28.346;stroke-linecap:butt;stroke-linejoin:miter;stroke:rgb(0%,0%,0%);stroke-opacity:1;stroke-miterlimit:10;" d="M 779.53125 1424.375 C 779.53125 1369.609375 735.078125 1325.195313 680.3125 1325.195313 C 625.507813 1325.195313 581.09375 1369.609375 581.09375 1424.375 C 581.09375 1479.179688 625.507813 1523.59375 680.3125 1523.59375 C 735.078125 1523.59375 779.53125 1479.179688 779.53125 1424.375 Z M 779.53125 1424.375 " transform="matrix(0.1,0,0,-0.1,0,172)"/>
<path style=" stroke:none;fill-rule:nonzero;fill:rgb(0%,0%,0%);fill-opacity:1;" d="M 135.355469 29.5625 C 135.355469 35.039063 130.914063 39.484375 125.433594 39.484375 C 119.953125 39.484375 115.511719 35.039063 115.511719 29.5625 C 115.511719 24.082031 119.953125 19.640625 125.433594 19.640625 C 130.914063 19.640625 135.355469 24.082031 135.355469 29.5625 "/>
<path style="fill:none;stroke-width:28.346;stroke-linecap:butt;stroke-linejoin:miter;stroke:rgb(0%,0%,0%);stroke-opacity:1;stroke-miterlimit:10;" d="M 1353.554688 1424.375 C 1353.554688 1369.609375 1309.140625 1325.15625 1254.335938 1325.15625 C 1199.53125 1325.15625 1155.117188 1369.609375 1155.117188 1424.375 C 1155.117188 1479.179688 1199.53125 1523.59375 1254.335938 1523.59375 C 1309.140625 1523.59375 1353.554688 1479.179688 1353.554688 1424.375 Z M 1353.554688 1424.375 " transform="matrix(0.1,0,0,-0.1,0,172)"/>
<path style=" stroke:none;fill-rule:nonzero;fill:rgb(0%,0%,0%);fill-opacity:1;" d="M 21.257813 86.253906 C 21.257813 91.730469 16.816406 96.175781 11.339844 96.175781 C 5.859375 96.175781 1.417969 91.730469 1.417969 86.253906 C 1.417969 80.773438 5.859375 76.332031 11.339844 76.332031 C 16.816406 76.332031 21.257813 80.773438 21.257813 86.253906 "/>
<path style="fill:none;stroke-width:28.346;stroke-linecap:butt;stroke-linejoin:miter;stroke:rgb(0%,0%,0%);stroke-opacity:1;stroke-miterlimit:10;" d="M 212.578125 857.460938 C 212.578125 802.695313 168.164063 758.242188 113.398438 758.242188 C 58.59375 758.242188 14.179688 802.695313 14.179688 857.460938 C 14.179688 912.265625 58.59375 956.679688 113.398438 956.679688 C 168.164063 956.679688 212.578125 912.265625 212.578125 857.460938 Z M 212.578125 857.460938 " transform="matrix(0.1,0,0,-0.1,0,172)"/>
<path style=" stroke:none;fill-rule:nonzero;fill:rgb(0%,0%,0%);fill-opacity:1;" d="M 21.257813 142.945313 C 21.257813 148.425781 16.816406 152.867188 11.339844 152.867188 C 5.859375 152.867188 1.417969 148.425781 1.417969 142.945313 C 1.417969 137.464844 5.859375 133.023438 11.339844 133.023438 C 16.816406 133.023438 21.257813 137.464844 21.257813 142.945313 "/>
<path style="fill:none;stroke-width:28.346;stroke-linecap:butt;stroke-linejoin:miter;stroke:rgb(0%,0%,0%);stroke-opacity:1;stroke-miterlimit:10;" d="M 212.578125 290.546875 C 212.578125 235.742188 168.164063 191.328125 113.398438 191.328125 C 58.59375 191.328125 14.179688 235.742188 14.179688 290.546875 C 14.179688 345.351563 58.59375 389.765625 113.398438 389.765625 C 168.164063 389.765625 212.578125 345.351563 212.578125 290.546875 Z M 212.578125 290.546875 " transform="matrix(0.1,0,0,-0.1,0,172)"/>
<path style=" stroke:none;fill-rule:nonzero;fill:rgb(0%,0%,0%);fill-opacity:1;" d="M 77.953125 142.945313 C 77.953125 148.425781 73.507813 152.867188 68.03125 152.867188 C 62.550781 152.867188 58.109375 148.425781 58.109375 142.945313 C 58.109375 137.464844 62.550781 133.023438 68.03125 133.023438 C 73.507813 133.023438 77.953125 137.464844 77.953125 142.945313 "/>
<path style="fill:none;stroke-width:28.346;stroke-linecap:butt;stroke-linejoin:miter;stroke:rgb(0%,0%,0%);stroke-opacity:1;stroke-miterlimit:10;" d="M 779.53125 290.546875 C 779.53125 235.742188 735.078125 191.328125 680.3125 191.328125 C 625.507813 191.328125 581.09375 235.742188 581.09375 290.546875 C 581.09375 345.351563 625.507813 389.765625 680.3125 389.765625 C 735.078125 389.765625 779.53125 345.351563 779.53125 290.546875 Z M 779.53125 290.546875 " transform="matrix(0.1,0,0,-0.1,0,172)"/>
<path style=" stroke:none;fill-rule:nonzero;fill:rgb(0%,0%,0%);fill-opacity:1;" d="M 134.644531 142.945313 C 134.644531 148.425781 130.199219 152.867188 124.722656 152.867188 C 119.242188 152.867188 114.800781 148.425781 114.800781 142.945313 C 114.800781 137.464844 119.242188 133.023438 124.722656 133.023438 C 130.199219 133.023438 134.644531 137.464844 134.644531 142.945313 "/>
<path style="fill:none;stroke-width:28.346;stroke-linecap:butt;stroke-linejoin:miter;stroke:rgb(0%,0%,0%);stroke-opacity:1;stroke-miterlimit:10;" d="M 1346.445313 290.546875 C 1346.445313 235.742188 1301.992188 191.328125 1247.226563 191.328125 C 1192.421875 191.328125 1148.007813 235.742188 1148.007813 290.546875 C 1148.007813 345.351563 1192.421875 389.765625 1247.226563 389.765625 C 1301.992188 389.765625 1346.445313 345.351563 1346.445313 290.546875 Z M 1346.445313 290.546875 " transform="matrix(0.1,0,0,-0.1,0,172)"/>
<path style=" stroke:none;fill-rule:nonzero;fill:rgb(0%,0%,0%);fill-opacity:1;" d="M 191.335938 142.945313 C 191.335938 148.425781 186.894531 152.867188 181.414063 152.867188 C 175.9375 152.867188 171.492188 148.425781 171.492188 142.945313 C 171.492188 137.464844 175.9375 133.023438 181.414063 133.023438 C 186.894531 133.023438 191.335938 137.464844 191.335938 142.945313 "/>
<path style="fill:none;stroke-width:28.346;stroke-linecap:butt;stroke-linejoin:miter;stroke:rgb(0%,0%,0%);stroke-opacity:1;stroke-miterlimit:10;" d="M 1913.359375 290.546875 C 1913.359375 235.742188 1868.945313 191.328125 1814.140625 191.328125 C 1759.375 191.328125 1714.921875 235.742188 1714.921875 290.546875 C 1714.921875 345.351563 1759.375 389.765625 1814.140625 389.765625 C 1868.945313 389.765625 1913.359375 345.351563 1913.359375 290.546875 Z M 1913.359375 290.546875 " transform="matrix(0.1,0,0,-0.1,0,172)"/>
<path style=" stroke:none;fill-rule:nonzero;fill:rgb(0%,0%,0%);fill-opacity:1;" d="M 248.027344 142.945313 C 248.027344 148.425781 243.585938 152.867188 238.105469 152.867188 C 232.628906 152.867188 228.183594 148.425781 228.183594 142.945313 C 228.183594 137.464844 232.628906 133.023438 238.105469 133.023438 C 243.585938 133.023438 248.027344 137.464844 248.027344 142.945313 "/>
<path style="fill:none;stroke-width:28.346;stroke-linecap:butt;stroke-linejoin:miter;stroke:rgb(0%,0%,0%);stroke-opacity:1;stroke-miterlimit:10;" d="M 2480.273438 290.546875 C 2480.273438 235.742188 2435.859375 191.328125 2381.054688 191.328125 C 2326.289063 191.328125 2281.835938 235.742188 2281.835938 290.546875 C 2281.835938 345.351563 2326.289063 389.765625 2381.054688 389.765625 C 2435.859375 389.765625 2480.273438 345.351563 2480.273438 290.546875 Z M 2480.273438 290.546875 " transform="matrix(0.1,0,0,-0.1,0,172)"/>
<path style=" stroke:none;fill-rule:nonzero;fill:rgb(0%,0%,0%);fill-opacity:1;" d="M 248.027344 86.253906 C 248.027344 91.730469 243.585938 96.175781 238.105469 96.175781 C 232.628906 96.175781 228.183594 91.730469 228.183594 86.253906 C 228.183594 80.773438 232.628906 76.332031 238.105469 76.332031 C 243.585938 76.332031 248.027344 80.773438 248.027344 86.253906 "/>
<path style="fill:none;stroke-width:28.346;stroke-linecap:butt;stroke-linejoin:miter;stroke:rgb(0%,0%,0%);stroke-opacity:1;stroke-miterlimit:10;" d="M 2480.273438 857.460938 C 2480.273438 802.695313 2435.859375 758.242188 2381.054688 758.242188 C 2326.289063 758.242188 2281.835938 802.695313 2281.835938 857.460938 C 2281.835938 912.265625 2326.289063 956.679688 2381.054688 956.679688 C 2435.859375 956.679688 2480.273438 912.265625 2480.273438 857.460938 Z M 2480.273438 857.460938 " transform="matrix(0.1,0,0,-0.1,0,172)"/>
<path style=" stroke:none;fill-rule:nonzero;fill:rgb(0%,0%,0%);fill-opacity:1;" d="M 248.027344 29.5625 C 248.027344 35.039063 243.585938 39.480469 238.105469 39.480469 C 232.628906 39.480469 228.183594 35.039063 228.183594 29.5625 C 228.183594 24.082031 232.628906 19.640625 238.105469 19.640625 C 243.585938 19.640625 248.027344 24.082031 248.027344 29.5625 "/>
<path style="fill:none;stroke-width:28.346;stroke-linecap:butt;stroke-linejoin:miter;stroke:rgb(0%,0%,0%);stroke-opacity:1;stroke-miterlimit:10;" d="M 2480.273438 1424.375 C 2480.273438 1369.609375 2435.859375 1325.195313 2381.054688 1325.195313 C 2326.289063 1325.195313 2281.835938 1369.609375 2281.835938 1424.375 C 2281.835938 1479.179688 2326.289063 1523.59375 2381.054688 1523.59375 C 2435.859375 1523.59375 2480.273438 1479.179688 2480.273438 1424.375 Z M 2480.273438 1424.375 " transform="matrix(0.1,0,0,-0.1,0,172)"/>
<path style=" stroke:none;fill-rule:nonzero;fill:rgb(0%,0%,0%);fill-opacity:1;" d="M 191.335938 29.5625 C 191.335938 35.039063 186.894531 39.480469 181.414063 39.480469 C 175.9375 39.480469 171.492188 35.039063 171.492188 29.5625 C 171.492188 24.082031 175.9375 19.640625 181.414063 19.640625 C 186.894531 19.640625 191.335938 24.082031 191.335938 29.5625 "/>
<path style="fill:none;stroke-width:28.346;stroke-linecap:butt;stroke-linejoin:miter;stroke:rgb(0%,0%,0%);stroke-opacity:1;stroke-miterlimit:10;" d="M 1913.359375 1424.375 C 1913.359375 1369.609375 1868.945313 1325.195313 1814.140625 1325.195313 C 1759.375 1325.195313 1714.921875 1369.609375 1714.921875 1424.375 C 1714.921875 1479.179688 1759.375 1523.59375 1814.140625 1523.59375 C 1868.945313 1523.59375 1913.359375 1479.179688 1913.359375 1424.375 Z M 1913.359375 1424.375 " transform="matrix(0.1,0,0,-0.1,0,172)"/>
<path style=" stroke:none;fill-rule:nonzero;fill:rgb(0%,0%,0%);fill-opacity:1;" d="M 191.335938 86.253906 C 191.335938 91.730469 186.894531 96.175781 181.414063 96.175781 C 175.9375 96.175781 171.492188 91.730469 171.492188 86.253906 C 171.492188 80.773438 175.9375 76.332031 181.414063 76.332031 C 186.894531 76.332031 191.335938 80.773438 191.335938 86.253906 "/>
<path style="fill:none;stroke-width:28.346;stroke-linecap:butt;stroke-linejoin:miter;stroke:rgb(0%,0%,0%);stroke-opacity:1;stroke-miterlimit:10;" d="M 1913.359375 857.460938 C 1913.359375 802.695313 1868.945313 758.242188 1814.140625 758.242188 C 1759.375 758.242188 1714.921875 802.695313 1714.921875 857.460938 C 1714.921875 912.265625 1759.375 956.679688 1814.140625 956.679688 C 1868.945313 956.679688 1913.359375 912.265625 1913.359375 857.460938 Z M 1913.359375 857.460938 " transform="matrix(0.1,0,0,-0.1,0,172)"/>
<path style=" stroke:none;fill-rule:nonzero;fill:rgb(0%,0%,0%);fill-opacity:1;" d="M 77.953125 86.253906 C 77.953125 91.730469 73.507813 96.175781 68.03125 96.175781 C 62.550781 96.175781 58.109375 91.730469 58.109375 86.253906 C 58.109375 80.773438 62.550781 76.332031 68.03125 76.332031 C 73.507813 76.332031 77.953125 80.773438 77.953125 86.253906 "/>
<path style="fill:none;stroke-width:28.346;stroke-linecap:butt;stroke-linejoin:miter;stroke:rgb(0%,0%,0%);stroke-opacity:1;stroke-miterlimit:10;" d="M 779.53125 857.460938 C 779.53125 802.695313 735.078125 758.242188 680.3125 758.242188 C 625.507813 758.242188 581.09375 802.695313 581.09375 857.460938 C 581.09375 912.265625 625.507813 956.679688 680.3125 956.679688 C 735.078125 956.679688 779.53125 912.265625 779.53125 857.460938 Z M 779.53125 857.460938 " transform="matrix(0.1,0,0,-0.1,0,172)"/>
<path style=" stroke:none;fill-rule:nonzero;fill:rgb(0%,0%,0%);fill-opacity:1;" d="M 134.644531 86.253906 C 134.644531 91.730469 130.199219 96.175781 124.722656 96.175781 C 119.242188 96.175781 114.800781 91.730469 114.800781 86.253906 C 114.800781 80.773438 119.242188 76.332031 124.722656 76.332031 C 130.199219 76.332031 134.644531 80.773438 134.644531 86.253906 "/>
<path style="fill:none;stroke-width:28.346;stroke-linecap:butt;stroke-linejoin:miter;stroke:rgb(0%,0%,0%);stroke-opacity:1;stroke-miterlimit:10;" d="M 1346.445313 857.460938 C 1346.445313 802.695313 1301.992188 758.242188 1247.226563 758.242188 C 1192.421875 758.242188 1148.007813 802.695313 1148.007813 857.460938 C 1148.007813 912.265625 1192.421875 956.679688 1247.226563 956.679688 C 1301.992188 956.679688 1346.445313 912.265625 1346.445313 857.460938 Z M 1346.445313 857.460938 " transform="matrix(0.1,0,0,-0.1,0,172)"/>
<path style="fill:none;stroke-width:14.173;stroke-linecap:butt;stroke-linejoin:miter;stroke:rgb(0%,0%,0%);stroke-opacity:1;stroke-dasharray:56.692;stroke-miterlimit:10;" d="M 963.75 7.070313 L 1530.703125 7.070313 L 1530.703125 1707.851563 L 963.75 1707.851563 Z M 963.75 7.070313 " transform="matrix(0.1,0,0,-0.1,0,172)"/>
</g>
</svg>
