<?xml version="1.0" encoding="UTF-8"?>
<svg xmlns="http://www.w3.org/2000/svg" xmlns:xlink="http://www.w3.org/1999/xlink" width="707pt" height="288pt" viewBox="0 0 707 288" version="1.1">
<g id="surface1">
<path style="fill:none;stroke-width:28.346;stroke-linecap:butt;stroke-linejoin:miter;stroke:rgb(0%,0%,0%);stroke-opacity:1;stroke-miterlimit:10;" d="M 20.039063 20.039063 L 2800.234375 2610.46875 " transform="matrix(0.1,0,0,-0.1,0,288)"/>
<path style="fill:none;stroke-width:28.346;stroke-linecap:butt;stroke-linejoin:miter;stroke:rgb(0%,0%,0%);stroke-opacity:1;stroke-miterlimit:10;" d="M 2793.945313 2609.257813 L 4210.46875 2851.445313 " transform="matrix(0.1,0,0,-0.1,0,288)"/>
<path style="fill:none;stroke-width:28.346;stroke-linecap:butt;stroke-linejoin:miter;stroke:rgb(0%,0%,0%);stroke-opacity:1;stroke-miterlimit:10;" d="M 4200.585938 2852.851563 L 7046.875 551.523438 " transform="matrix(0.1,0,0,-0.1,0,288)"/>
<path style="fill:none;stroke-width:28.346;stroke-linecap:butt;stroke-linejoin:miter;stroke:rgb(0%,0%,0%);stroke-opacity:1;stroke-miterlimit:10;" d="M 7053.945313 553.28125 L 27.109375 23.554688 " transform="matrix(0.1,0,0,-0.1,0,288)"/>
<path style="fill:none;stroke-width:28.346;stroke-linecap:butt;stroke-linejoin:miter;stroke:rgb(0%,0%,0%);stroke-opacity:1;stroke-miterlimit:10;" d="M 2618.242188 2438.75 L 4359.296875 2723.867188 " transform="matrix(0.1,0,0,-0.1,0,288)"/>
<path style="fill:none;stroke-width:28.346;stroke-linecap:butt;stroke-linejoin:miter;stroke:rgb(0%,0%,0%);stroke-opacity:1;stroke-miterlimit:10;" d="M 2460.585938 2289.921875 L 4543.515625 2575.039063 " transform="matrix(0.1,0,0,-0.1,0,288)"/>
<path style="fill:none;stroke-width:28.346;stroke-linecap:butt;stroke-linejoin:miter;stroke:rgb(0%,0%,0%);stroke-opacity:1;stroke-miterlimit:10;" d="M 2276.328125 2120.273438 L 4720.78125 2431.445313 " transform="matrix(0.1,0,0,-0.1,0,288)"/>
<path style="fill:none;stroke-width:28.346;stroke-linecap:butt;stroke-linejoin:miter;stroke:rgb(0%,0%,0%);stroke-opacity:1;stroke-miterlimit:10;" d="M 2093.867188 1947.109375 L 4883.671875 2298.671875 " transform="matrix(0.1,0,0,-0.1,0,288)"/>
<path style="fill:none;stroke-width:28.346;stroke-linecap:butt;stroke-linejoin:miter;stroke:rgb(0%,0%,0%);stroke-opacity:1;stroke-miterlimit:10;" d="M 1923.789063 1787.65625 L 5076.875 2147.96875 " transform="matrix(0.1,0,0,-0.1,0,288)"/>
<path style="fill:none;stroke-width:28.346;stroke-linecap:butt;stroke-linejoin:miter;stroke:rgb(0%,0%,0%);stroke-opacity:1;stroke-miterlimit:10;" d="M 1746.992188 1632.65625 L 5252.1875 2001.054688 " transform="matrix(0.1,0,0,-0.1,0,288)"/>
<path style="fill:none;stroke-width:28.346;stroke-linecap:butt;stroke-linejoin:miter;stroke:rgb(0%,0%,0%);stroke-opacity:1;stroke-miterlimit:10;" d="M 1576.914063 1471.445313 L 5417.03125 1870.273438 " transform="matrix(0.1,0,0,-0.1,0,288)"/>
<path style="fill:none;stroke-width:28.346;stroke-linecap:butt;stroke-linejoin:miter;stroke:rgb(0%,0%,0%);stroke-opacity:1;stroke-miterlimit:10;" d="M 1405.078125 1308.4375 L 5599.414063 1717.578125 " transform="matrix(0.1,0,0,-0.1,0,288)"/>
<path style="fill:none;stroke-width:28.346;stroke-linecap:butt;stroke-linejoin:miter;stroke:rgb(0%,0%,0%);stroke-opacity:1;stroke-miterlimit:10;" d="M 1234.960938 1147.226563 L 5765.976563 1585.507813 " transform="matrix(0.1,0,0,-0.1,0,288)"/>
<path style="fill:none;stroke-width:28.346;stroke-linecap:butt;stroke-linejoin:miter;stroke:rgb(0%,0%,0%);stroke-opacity:1;stroke-miterlimit:10;" d="M 1061.367188 988.671875 L 5948.476563 1440.195313 " transform="matrix(0.1,0,0,-0.1,0,288)"/>
<path style="fill:none;stroke-width:28.346;stroke-linecap:butt;stroke-linejoin:miter;stroke:rgb(0%,0%,0%);stroke-opacity:1;stroke-miterlimit:10;" d="M 887.773438 827.460938 L 6125.625 1297.148438 " transform="matrix(0.1,0,0,-0.1,0,288)"/>
<path style="fill:none;stroke-width:28.346;stroke-linecap:butt;stroke-linejoin:miter;stroke:rgb(0%,0%,0%);stroke-opacity:1;stroke-miterlimit:10;" d="M 721.210938 671.5625 L 6299.257813 1155.429688 " transform="matrix(0.1,0,0,-0.1,0,288)"/>
<path style="fill:none;stroke-width:28.346;stroke-linecap:butt;stroke-linejoin:miter;stroke:rgb(0%,0%,0%);stroke-opacity:1;stroke-miterlimit:10;" d="M 540.507813 508.554688 L 6485.234375 1008.945313 " transform="matrix(0.1,0,0,-0.1,0,288)"/>
<path style="fill:none;stroke-width:28.346;stroke-linecap:butt;stroke-linejoin:miter;stroke:rgb(0%,0%,0%);stroke-opacity:1;stroke-miterlimit:10;" d="M 366.914063 346.015625 L 6664.21875 870.625 " transform="matrix(0.1,0,0,-0.1,0,288)"/>
<path style="fill:none;stroke-width:28.346;stroke-linecap:butt;stroke-linejoin:miter;stroke:rgb(0%,0%,0%);stroke-opacity:1;stroke-miterlimit:10;" d="M 189.726563 177.695313 L 6834.257813 718.710938 " transform="matrix(0.1,0,0,-0.1,0,288)"/>
<path style="fill:none;stroke-width:28.346;stroke-linecap:butt;stroke-linejoin:miter;stroke:rgb(0%,0%,0%);stroke-opacity:1;stroke-miterlimit:10;" d="M 473.203125 57.226563 L 2866.171875 2615.46875 " transform="matrix(0.1,0,0,-0.1,0,288)"/>
<path style="fill:none;stroke-width:28.346;stroke-linecap:butt;stroke-linejoin:miter;stroke:rgb(0%,0%,0%);stroke-opacity:1;stroke-miterlimit:10;" d="M 893.984375 87.695313 L 2947.65625 2634.960938 " transform="matrix(0.1,0,0,-0.1,0,288)"/>
<path style="fill:none;stroke-width:28.346;stroke-linecap:butt;stroke-linejoin:miter;stroke:rgb(0%,0%,0%);stroke-opacity:1;stroke-miterlimit:10;" d="M 1326.25 116.015625 L 3043.320313 2650.898438 " transform="matrix(0.1,0,0,-0.1,0,288)"/>
<path style="fill:none;stroke-width:28.346;stroke-linecap:butt;stroke-linejoin:miter;stroke:rgb(0%,0%,0%);stroke-opacity:1;stroke-miterlimit:10;" d="M 1758.554688 151.484375 L 3133.320313 2660.078125 " transform="matrix(0.1,0,0,-0.1,0,288)"/>
<path style="fill:none;stroke-width:28.346;stroke-linecap:butt;stroke-linejoin:miter;stroke:rgb(0%,0%,0%);stroke-opacity:1;stroke-miterlimit:10;" d="M 2205 186.914063 L 3225.820313 2677.460938 " transform="matrix(0.1,0,0,-0.1,0,288)"/>
<path style="fill:none;stroke-width:28.346;stroke-linecap:butt;stroke-linejoin:miter;stroke:rgb(0%,0%,0%);stroke-opacity:1;stroke-miterlimit:10;" d="M 2644.335938 222.34375 L 3324.648438 2709.6875 " transform="matrix(0.1,0,0,-0.1,0,288)"/>
<path style="fill:none;stroke-width:28.346;stroke-linecap:butt;stroke-linejoin:miter;stroke:rgb(0%,0%,0%);stroke-opacity:1;stroke-miterlimit:10;" d="M 3083.710938 250.664063 L 3402.617188 2716.796875 " transform="matrix(0.1,0,0,-0.1,0,288)"/>
<path style="fill:none;stroke-width:28.346;stroke-linecap:butt;stroke-linejoin:miter;stroke:rgb(0%,0%,0%);stroke-opacity:1;stroke-miterlimit:10;" d="M 3540.546875 288.4375 L 3488.007813 2727.070313 " transform="matrix(0.1,0,0,-0.1,0,288)"/>
<path style="fill:none;stroke-width:28.346;stroke-linecap:butt;stroke-linejoin:miter;stroke:rgb(0%,0%,0%);stroke-opacity:1;stroke-miterlimit:10;" d="M 3969.53125 314.453125 L 3579.765625 2738.046875 " transform="matrix(0.1,0,0,-0.1,0,288)"/>
<path style="fill:none;stroke-width:28.346;stroke-linecap:butt;stroke-linejoin:miter;stroke:rgb(0%,0%,0%);stroke-opacity:1;stroke-miterlimit:10;" d="M 4394.726563 349.882813 L 3678.984375 2759.296875 " transform="matrix(0.1,0,0,-0.1,0,288)"/>
<path style="fill:none;stroke-width:28.346;stroke-linecap:butt;stroke-linejoin:miter;stroke:rgb(0%,0%,0%);stroke-opacity:1;stroke-miterlimit:10;" d="M 4834.0625 378.242188 L 3764.023438 2780.546875 " transform="matrix(0.1,0,0,-0.1,0,288)"/>
<path style="fill:none;stroke-width:28.346;stroke-linecap:butt;stroke-linejoin:miter;stroke:rgb(0%,0%,0%);stroke-opacity:1;stroke-miterlimit:10;" d="M 5259.257813 420.742188 L 3849.0625 2794.726563 " transform="matrix(0.1,0,0,-0.1,0,288)"/>
<path style="fill:none;stroke-width:28.346;stroke-linecap:butt;stroke-linejoin:miter;stroke:rgb(0%,0%,0%);stroke-opacity:1;stroke-miterlimit:10;" d="M 5698.632813 449.101563 L 3944.84375 2801.484375 " transform="matrix(0.1,0,0,-0.1,0,288)"/>
<path style="fill:none;stroke-width:28.346;stroke-linecap:butt;stroke-linejoin:miter;stroke:rgb(0%,0%,0%);stroke-opacity:1;stroke-miterlimit:10;" d="M 6129.140625 481.328125 L 4035.195313 2817.421875 " transform="matrix(0.1,0,0,-0.1,0,288)"/>
<path style="fill:none;stroke-width:28.346;stroke-linecap:butt;stroke-linejoin:miter;stroke:rgb(0%,0%,0%);stroke-opacity:1;stroke-miterlimit:10;" d="M 6570.273438 519.960938 L 4129.101563 2836.914063 " transform="matrix(0.1,0,0,-0.1,0,288)"/>
</g>
</svg>
