<?xml version="1.0" encoding="UTF-8"?>
<svg xmlns="http://www.w3.org/2000/svg" xmlns:xlink="http://www.w3.org/1999/xlink" width="314pt" height="87pt" viewBox="0 0 314 87" version="1.1">
<g id="surface1">
<path style="fill:none;stroke-width:14.173;stroke-linecap:butt;stroke-linejoin:miter;stroke:rgb(0%,0%,0%);stroke-opacity:1;stroke-miterlimit:10;" d="M 2274.765625 7.070313 L 3125.15625 7.070313 L 3125.15625 857.460938 L 2274.765625 857.460938 Z M 2274.765625 7.070313 " transform="matrix(0.1,0,0,-0.1,0,87)"/>
<path style="fill:none;stroke-width:14.173;stroke-linecap:butt;stroke-linejoin:miter;stroke:rgb(0%,0%,0%);stroke-opacity:1;stroke-miterlimit:10;" d="M 2841.679688 432.265625 L 2841.679688 7.070313 " transform="matrix(0.1,0,0,-0.1,0,87)"/>
<path style="fill:none;stroke-width:14.173;stroke-linecap:butt;stroke-linejoin:miter;stroke:rgb(0%,0%,0%);stroke-opacity:1;stroke-miterlimit:10;" d="M 2558.242188 432.265625 L 2558.242188 7.070313 " transform="matrix(0.1,0,0,-0.1,0,87)"/>
<path style="fill:none;stroke-width:14.173;stroke-linecap:butt;stroke-linejoin:miter;stroke:rgb(0%,0%,0%);stroke-opacity:1;stroke-miterlimit:10;" d="M 2841.679688 857.460938 L 2841.679688 432.265625 " transform="matrix(0.1,0,0,-0.1,0,87)"/>
<path style="fill:none;stroke-width:14.173;stroke-linecap:butt;stroke-linejoin:miter;stroke:rgb(0%,0%,0%);stroke-opacity:1;stroke-miterlimit:10;" d="M 2558.242188 857.460938 L 2558.242188 432.265625 " transform="matrix(0.1,0,0,-0.1,0,87)"/>
<path style="fill:none;stroke-width:14.173;stroke-linecap:butt;stroke-linejoin:miter;stroke:rgb(0%,0%,0%);stroke-opacity:1;stroke-miterlimit:10;" d="M 2699.960938 290.546875 L 3125.15625 290.546875 " transform="matrix(0.1,0,0,-0.1,0,87)"/>
<path style="fill:none;stroke-width:14.173;stroke-linecap:butt;stroke-linejoin:miter;stroke:rgb(0%,0%,0%);stroke-opacity:1;stroke-miterlimit:10;" d="M 2274.765625 290.546875 L 2699.960938 290.546875 " transform="matrix(0.1,0,0,-0.1,0,87)"/>
<path style="fill:none;stroke-width:14.173;stroke-linecap:butt;stroke-linejoin:miter;stroke:rgb(0%,0%,0%);stroke-opacity:1;stroke-miterlimit:10;" d="M 2699.960938 574.023438 L 3125.15625 574.023438 " transform="matrix(0.1,0,0,-0.1,0,87)"/>
<path style="fill:none;stroke-width:14.173;stroke-linecap:butt;stroke-linejoin:miter;stroke:rgb(0%,0%,0%);stroke-opacity:1;stroke-miterlimit:10;" d="M 2274.765625 574.023438 L 2699.960938 574.023438 " transform="matrix(0.1,0,0,-0.1,0,87)"/>
<path style="fill:none;stroke-width:14.173;stroke-linecap:butt;stroke-linejoin:miter;stroke:rgb(0%,0%,0%);stroke-opacity:1;stroke-miterlimit:10;" d="M 7.070313 7.070313 L 857.460938 7.070313 L 857.460938 857.460938 L 7.070313 857.460938 Z M 7.070313 7.070313 " transform="matrix(0.1,0,0,-0.1,0,87)"/>
<path style="fill:none;stroke-width:28.346;stroke-linecap:butt;stroke-linejoin:miter;stroke:rgb(0%,0%,0%);stroke-opacity:1;stroke-miterlimit:10;" d="M 1140.9375 432.265625 L 1853.320313 432.265625 " transform="matrix(0.1,0,0,-0.1,0,87)"/>
<path style=" stroke:none;fill-rule:evenodd;fill:rgb(0%,0%,0%);fill-opacity:1;" d="M 195.960938 43.773438 L 181.789063 50.859375 L 185.332031 43.773438 L 181.789063 36.6875 "/>
<path style="fill:none;stroke-width:28.346;stroke-linecap:butt;stroke-linejoin:miter;stroke:rgb(0%,0%,0%);stroke-opacity:1;stroke-miterlimit:10;" d="M 1959.609375 432.265625 L 1817.890625 361.40625 L 1853.320313 432.265625 L 1817.890625 503.125 Z M 1959.609375 432.265625 " transform="matrix(0.1,0,0,-0.1,0,87)"/>
<path style="fill:none;stroke-width:14.173;stroke-linecap:butt;stroke-linejoin:miter;stroke:rgb(0%,0%,0%);stroke-opacity:1;stroke-miterlimit:10;" d="M 7.070313 574.023438 L 432.265625 574.023438 " transform="matrix(0.1,0,0,-0.1,0,87)"/>
<path style="fill:none;stroke-width:14.173;stroke-linecap:butt;stroke-linejoin:miter;stroke:rgb(0%,0%,0%);stroke-opacity:1;stroke-miterlimit:10;" d="M 432.265625 574.023438 L 857.460938 574.023438 " transform="matrix(0.1,0,0,-0.1,0,87)"/>
<path style="fill:none;stroke-width:14.173;stroke-linecap:butt;stroke-linejoin:miter;stroke:rgb(0%,0%,0%);stroke-opacity:1;stroke-miterlimit:10;" d="M 290.546875 857.460938 L 290.546875 432.265625 " transform="matrix(0.1,0,0,-0.1,0,87)"/>
<path style="fill:none;stroke-width:14.173;stroke-linecap:butt;stroke-linejoin:miter;stroke:rgb(0%,0%,0%);stroke-opacity:1;stroke-miterlimit:10;" d="M 290.546875 432.265625 L 290.546875 7.070313 " transform="matrix(0.1,0,0,-0.1,0,87)"/>
<path style="fill:none;stroke-width:14.173;stroke-linecap:butt;stroke-linejoin:miter;stroke:rgb(0%,0%,0%);stroke-opacity:1;stroke-miterlimit:10;" d="M 574.023438 857.460938 L 574.023438 432.265625 " transform="matrix(0.1,0,0,-0.1,0,87)"/>
<path style="fill:none;stroke-width:14.173;stroke-linecap:butt;stroke-linejoin:miter;stroke:rgb(0%,0%,0%);stroke-opacity:1;stroke-miterlimit:10;" d="M 574.023438 432.265625 L 574.023438 7.070313 " transform="matrix(0.1,0,0,-0.1,0,87)"/>
<path style="fill:none;stroke-width:14.173;stroke-linecap:butt;stroke-linejoin:miter;stroke:rgb(0%,0%,0%);stroke-opacity:1;stroke-miterlimit:10;" d="M 7.070313 290.546875 L 432.265625 290.546875 " transform="matrix(0.1,0,0,-0.1,0,87)"/>
<path style="fill:none;stroke-width:14.173;stroke-linecap:butt;stroke-linejoin:miter;stroke:rgb(0%,0%,0%);stroke-opacity:1;stroke-miterlimit:10;" d="M 432.265625 290.546875 L 857.460938 290.546875 " transform="matrix(0.1,0,0,-0.1,0,87)"/>
<path style=" stroke:none;fill-rule:nonzero;fill:rgb(30.200195%,30.200195%,30.200195%);fill-opacity:1;" d="M 44.644531 43.773438 C 44.644531 44.554688 44.011719 45.191406 43.226563 45.191406 C 42.445313 45.191406 41.808594 44.554688 41.808594 43.773438 C 41.808594 42.988281 42.445313 42.355469 43.226563 42.355469 C 44.011719 42.355469 44.644531 42.988281 44.644531 43.773438 "/>
<path style="fill:none;stroke-width:28.346;stroke-linecap:butt;stroke-linejoin:miter;stroke:rgb(30.200195%,30.200195%,30.200195%);stroke-opacity:1;stroke-miterlimit:10;" d="M 446.445313 432.265625 C 446.445313 424.453125 440.117188 418.085938 432.265625 418.085938 C 424.453125 418.085938 418.085938 424.453125 418.085938 432.265625 C 418.085938 440.117188 424.453125 446.445313 432.265625 446.445313 C 440.117188 446.445313 446.445313 440.117188 446.445313 432.265625 Z M 446.445313 432.265625 " transform="matrix(0.1,0,0,-0.1,0,87)"/>
<path style=" stroke:none;fill-rule:nonzero;fill:rgb(30.200195%,30.200195%,30.200195%);fill-opacity:1;" d="M 36.140625 35.269531 C 36.140625 36.050781 35.507813 36.6875 34.722656 36.6875 C 33.941406 36.6875 33.304688 36.050781 33.304688 35.269531 C 33.304688 34.484375 33.941406 33.851563 34.722656 33.851563 C 35.507813 33.851563 36.140625 34.484375 36.140625 35.269531 "/>
<path style="fill:none;stroke-width:28.346;stroke-linecap:butt;stroke-linejoin:miter;stroke:rgb(30.200195%,30.200195%,30.200195%);stroke-opacity:1;stroke-miterlimit:10;" d="M 361.40625 517.304688 C 361.40625 509.492188 355.078125 503.125 347.226563 503.125 C 339.414063 503.125 333.046875 509.492188 333.046875 517.304688 C 333.046875 525.15625 339.414063 531.484375 347.226563 531.484375 C 355.078125 531.484375 361.40625 525.15625 361.40625 517.304688 Z M 361.40625 517.304688 " transform="matrix(0.1,0,0,-0.1,0,87)"/>
<path style=" stroke:none;fill-rule:nonzero;fill:rgb(30.200195%,30.200195%,30.200195%);fill-opacity:1;" d="M 44.644531 35.269531 C 44.644531 36.050781 44.011719 36.6875 43.226563 36.6875 C 42.445313 36.6875 41.808594 36.050781 41.808594 35.269531 C 41.808594 34.484375 42.445313 33.851563 43.226563 33.851563 C 44.011719 33.851563 44.644531 34.484375 44.644531 35.269531 "/>
<path style="fill:none;stroke-width:28.346;stroke-linecap:butt;stroke-linejoin:miter;stroke:rgb(30.200195%,30.200195%,30.200195%);stroke-opacity:1;stroke-miterlimit:10;" d="M 446.445313 517.304688 C 446.445313 509.492188 440.117188 503.125 432.265625 503.125 C 424.453125 503.125 418.085938 509.492188 418.085938 517.304688 C 418.085938 525.15625 424.453125 531.484375 432.265625 531.484375 C 440.117188 531.484375 446.445313 525.15625 446.445313 517.304688 Z M 446.445313 517.304688 " transform="matrix(0.1,0,0,-0.1,0,87)"/>
<path style=" stroke:none;fill-rule:nonzero;fill:rgb(30.200195%,30.200195%,30.200195%);fill-opacity:1;" d="M 53.148438 35.269531 C 53.148438 36.050781 52.515625 36.6875 51.730469 36.6875 C 50.949219 36.6875 50.3125 36.050781 50.3125 35.269531 C 50.3125 34.484375 50.949219 33.851563 51.730469 33.851563 C 52.515625 33.851563 53.148438 34.484375 53.148438 35.269531 "/>
<path style="fill:none;stroke-width:28.346;stroke-linecap:butt;stroke-linejoin:miter;stroke:rgb(30.200195%,30.200195%,30.200195%);stroke-opacity:1;stroke-miterlimit:10;" d="M 531.484375 517.304688 C 531.484375 509.492188 525.15625 503.125 517.304688 503.125 C 509.492188 503.125 503.125 509.492188 503.125 517.304688 C 503.125 525.15625 509.492188 531.484375 517.304688 531.484375 C 525.15625 531.484375 531.484375 525.15625 531.484375 517.304688 Z M 531.484375 517.304688 " transform="matrix(0.1,0,0,-0.1,0,87)"/>
<path style=" stroke:none;fill-rule:nonzero;fill:rgb(30.200195%,30.200195%,30.200195%);fill-opacity:1;" d="M 36.140625 43.773438 C 36.140625 44.554688 35.507813 45.191406 34.722656 45.191406 C 33.941406 45.191406 33.304688 44.554688 33.304688 43.773438 C 33.304688 42.988281 33.941406 42.355469 34.722656 42.355469 C 35.507813 42.355469 36.140625 42.988281 36.140625 43.773438 "/>
<path style="fill:none;stroke-width:28.346;stroke-linecap:butt;stroke-linejoin:miter;stroke:rgb(30.200195%,30.200195%,30.200195%);stroke-opacity:1;stroke-miterlimit:10;" d="M 361.40625 432.265625 C 361.40625 424.453125 355.078125 418.085938 347.226563 418.085938 C 339.414063 418.085938 333.046875 424.453125 333.046875 432.265625 C 333.046875 440.117188 339.414063 446.445313 347.226563 446.445313 C 355.078125 446.445313 361.40625 440.117188 361.40625 432.265625 Z M 361.40625 432.265625 " transform="matrix(0.1,0,0,-0.1,0,87)"/>
<path style=" stroke:none;fill-rule:nonzero;fill:rgb(30.200195%,30.200195%,30.200195%);fill-opacity:1;" d="M 53.148438 43.773438 C 53.148438 44.554688 52.515625 45.191406 51.730469 45.191406 C 50.949219 45.191406 50.3125 44.554688 50.3125 43.773438 C 50.3125 42.988281 50.949219 42.355469 51.730469 42.355469 C 52.515625 42.355469 53.148438 42.988281 53.148438 43.773438 "/>
<path style="fill:none;stroke-width:28.346;stroke-linecap:butt;stroke-linejoin:miter;stroke:rgb(30.200195%,30.200195%,30.200195%);stroke-opacity:1;stroke-miterlimit:10;" d="M 531.484375 432.265625 C 531.484375 424.453125 525.15625 418.085938 517.304688 418.085938 C 509.492188 418.085938 503.125 424.453125 503.125 432.265625 C 503.125 440.117188 509.492188 446.445313 517.304688 446.445313 C 525.15625 446.445313 531.484375 440.117188 531.484375 432.265625 Z M 531.484375 432.265625 " transform="matrix(0.1,0,0,-0.1,0,87)"/>
<path style=" stroke:none;fill-rule:nonzero;fill:rgb(30.200195%,30.200195%,30.200195%);fill-opacity:1;" d="M 36.140625 52.277344 C 36.140625 53.058594 35.507813 53.695313 34.722656 53.695313 C 33.941406 53.695313 33.304688 53.058594 33.304688 52.277344 C 33.304688 51.492188 33.941406 50.859375 34.722656 50.859375 C 35.507813 50.859375 36.140625 51.492188 36.140625 52.277344 "/>
<path style="fill:none;stroke-width:28.346;stroke-linecap:butt;stroke-linejoin:miter;stroke:rgb(30.200195%,30.200195%,30.200195%);stroke-opacity:1;stroke-miterlimit:10;" d="M 361.40625 347.226563 C 361.40625 339.414063 355.078125 333.046875 347.226563 333.046875 C 339.414063 333.046875 333.046875 339.414063 333.046875 347.226563 C 333.046875 355.078125 339.414063 361.40625 347.226563 361.40625 C 355.078125 361.40625 361.40625 355.078125 361.40625 347.226563 Z M 361.40625 347.226563 " transform="matrix(0.1,0,0,-0.1,0,87)"/>
<path style=" stroke:none;fill-rule:nonzero;fill:rgb(30.200195%,30.200195%,30.200195%);fill-opacity:1;" d="M 44.644531 52.277344 C 44.644531 53.058594 44.011719 53.695313 43.226563 53.695313 C 42.445313 53.695313 41.808594 53.058594 41.808594 52.277344 C 41.808594 51.492188 42.445313 50.859375 43.226563 50.859375 C 44.011719 50.859375 44.644531 51.492188 44.644531 52.277344 "/>
<path style="fill:none;stroke-width:28.346;stroke-linecap:butt;stroke-linejoin:miter;stroke:rgb(30.200195%,30.200195%,30.200195%);stroke-opacity:1;stroke-miterlimit:10;" d="M 446.445313 347.226563 C 446.445313 339.414063 440.117188 333.046875 432.265625 333.046875 C 424.453125 333.046875 418.085938 339.414063 418.085938 347.226563 C 418.085938 355.078125 424.453125 361.40625 432.265625 361.40625 C 440.117188 361.40625 446.445313 355.078125 446.445313 347.226563 Z M 446.445313 347.226563 " transform="matrix(0.1,0,0,-0.1,0,87)"/>
<path style=" stroke:none;fill-rule:nonzero;fill:rgb(30.200195%,30.200195%,30.200195%);fill-opacity:1;" d="M 53.148438 52.277344 C 53.148438 53.058594 52.515625 53.695313 51.730469 53.695313 C 50.949219 53.695313 50.3125 53.058594 50.3125 52.277344 C 50.3125 51.492188 50.949219 50.859375 51.730469 50.859375 C 52.515625 50.859375 53.148438 51.492188 53.148438 52.277344 "/>
<path style="fill:none;stroke-width:28.346;stroke-linecap:butt;stroke-linejoin:miter;stroke:rgb(30.200195%,30.200195%,30.200195%);stroke-opacity:1;stroke-miterlimit:10;" d="M 531.484375 347.226563 C 531.484375 339.414063 525.15625 333.046875 517.304688 333.046875 C 509.492188 333.046875 503.125 339.414063 503.125 347.226563 C 503.125 355.078125 509.492188 361.40625 517.304688 361.40625 C 525.15625 361.40625 531.484375 355.078125 531.484375 347.226563 Z M 531.484375 347.226563 " transform="matrix(0.1,0,0,-0.1,0,87)"/>
<path style=" stroke:none;fill-rule:nonzero;fill:rgb(30.200195%,30.200195%,30.200195%);fill-opacity:1;" d="M 269.882813 32.871094 C 269.882813 33.652344 269.246094 34.285156 268.464844 34.285156 C 267.683594 34.285156 267.046875 33.652344 267.046875 32.871094 C 267.046875 32.085938 267.683594 31.453125 268.464844 31.453125 C 269.246094 31.453125 269.882813 32.085938 269.882813 32.871094 "/>
<path style="fill:none;stroke-width:28.346;stroke-linecap:butt;stroke-linejoin:miter;stroke:rgb(30.200195%,30.200195%,30.200195%);stroke-opacity:1;stroke-miterlimit:10;" d="M 2698.828125 541.289063 C 2698.828125 533.476563 2692.460938 527.148438 2684.648438 527.148438 C 2676.835938 527.148438 2670.46875 533.476563 2670.46875 541.289063 C 2670.46875 549.140625 2676.835938 555.46875 2684.648438 555.46875 C 2692.460938 555.46875 2698.828125 549.140625 2698.828125 541.289063 Z M 2698.828125 541.289063 " transform="matrix(0.1,0,0,-0.1,0,87)"/>
<path style=" stroke:none;fill-rule:nonzero;fill:rgb(30.200195%,30.200195%,30.200195%);fill-opacity:1;" d="M 251.570313 23.929688 C 251.570313 24.710938 250.9375 25.347656 250.152344 25.347656 C 249.371094 25.347656 248.734375 24.710938 248.734375 23.929688 C 248.734375 23.148438 249.371094 22.511719 250.152344 22.511719 C 250.9375 22.511719 251.570313 23.148438 251.570313 23.929688 "/>
<path style="fill:none;stroke-width:28.346;stroke-linecap:butt;stroke-linejoin:miter;stroke:rgb(30.200195%,30.200195%,30.200195%);stroke-opacity:1;stroke-miterlimit:10;" d="M 2515.703125 630.703125 C 2515.703125 622.890625 2509.375 616.523438 2501.523438 616.523438 C 2493.710938 616.523438 2487.34375 622.890625 2487.34375 630.703125 C 2487.34375 638.515625 2493.710938 644.882813 2501.523438 644.882813 C 2509.375 644.882813 2515.703125 638.515625 2515.703125 630.703125 Z M 2515.703125 630.703125 " transform="matrix(0.1,0,0,-0.1,0,87)"/>
<path style=" stroke:none;fill-rule:nonzero;fill:rgb(30.200195%,30.200195%,30.200195%);fill-opacity:1;" d="M 271.414063 6.921875 C 271.414063 7.707031 270.777344 8.339844 269.996094 8.339844 C 269.214844 8.339844 268.578125 7.707031 268.578125 6.921875 C 268.578125 6.140625 269.214844 5.503906 269.996094 5.503906 C 270.777344 5.503906 271.414063 6.140625 271.414063 6.921875 "/>
<path style="fill:none;stroke-width:28.346;stroke-linecap:butt;stroke-linejoin:miter;stroke:rgb(30.200195%,30.200195%,30.200195%);stroke-opacity:1;stroke-miterlimit:10;" d="M 2714.140625 800.78125 C 2714.140625 792.929688 2707.773438 786.601563 2699.960938 786.601563 C 2692.148438 786.601563 2685.78125 792.929688 2685.78125 800.78125 C 2685.78125 808.59375 2692.148438 814.960938 2699.960938 814.960938 C 2707.773438 814.960938 2714.140625 808.59375 2714.140625 800.78125 Z M 2714.140625 800.78125 " transform="matrix(0.1,0,0,-0.1,0,87)"/>
<path style=" stroke:none;fill-rule:nonzero;fill:rgb(30.200195%,30.200195%,30.200195%);fill-opacity:1;" d="M 257.476563 43.898438 C 257.476563 44.679688 256.839844 45.316406 256.058594 45.316406 C 255.273438 45.316406 254.640625 44.679688 254.640625 43.898438 C 254.640625 43.113281 255.273438 42.480469 256.058594 42.480469 C 256.839844 42.480469 257.476563 43.113281 257.476563 43.898438 "/>
<path style="fill:none;stroke-width:28.346;stroke-linecap:butt;stroke-linejoin:miter;stroke:rgb(30.200195%,30.200195%,30.200195%);stroke-opacity:1;stroke-miterlimit:10;" d="M 2574.765625 431.015625 C 2574.765625 423.203125 2568.398438 416.835938 2560.585938 416.835938 C 2552.734375 416.835938 2546.40625 423.203125 2546.40625 431.015625 C 2546.40625 438.867188 2552.734375 445.195313 2560.585938 445.195313 C 2568.398438 445.195313 2574.765625 438.867188 2574.765625 431.015625 Z M 2574.765625 431.015625 " transform="matrix(0.1,0,0,-0.1,0,87)"/>
<path style=" stroke:none;fill-rule:nonzero;fill:rgb(30.200195%,30.200195%,30.200195%);fill-opacity:1;" d="M 282.753906 21.09375 C 282.753906 21.878906 282.117188 22.511719 281.335938 22.511719 C 280.550781 22.511719 279.917969 21.878906 279.917969 21.09375 C 279.917969 20.3125 280.550781 19.679688 281.335938 19.679688 C 282.117188 19.679688 282.753906 20.3125 282.753906 21.09375 "/>
<path style="fill:none;stroke-width:28.346;stroke-linecap:butt;stroke-linejoin:miter;stroke:rgb(30.200195%,30.200195%,30.200195%);stroke-opacity:1;stroke-miterlimit:10;" d="M 2827.539063 659.0625 C 2827.539063 651.210938 2821.171875 644.882813 2813.359375 644.882813 C 2805.507813 644.882813 2799.179688 651.210938 2799.179688 659.0625 C 2799.179688 666.875 2805.507813 673.203125 2813.359375 673.203125 C 2821.171875 673.203125 2827.539063 666.875 2827.539063 659.0625 Z M 2827.539063 659.0625 " transform="matrix(0.1,0,0,-0.1,0,87)"/>
<path style=" stroke:none;fill-rule:nonzero;fill:rgb(30.200195%,30.200195%,30.200195%);fill-opacity:1;" d="M 262.910156 63.613281 C 262.910156 64.398438 262.273438 65.03125 261.492188 65.03125 C 260.710938 65.03125 260.074219 64.398438 260.074219 63.613281 C 260.074219 62.832031 260.710938 62.199219 261.492188 62.199219 C 262.273438 62.199219 262.910156 62.832031 262.910156 63.613281 "/>
<path style="fill:none;stroke-width:28.346;stroke-linecap:butt;stroke-linejoin:miter;stroke:rgb(30.200195%,30.200195%,30.200195%);stroke-opacity:1;stroke-miterlimit:10;" d="M 2629.101563 233.867188 C 2629.101563 226.015625 2622.734375 219.6875 2614.921875 219.6875 C 2607.109375 219.6875 2600.742188 226.015625 2600.742188 233.867188 C 2600.742188 241.679688 2607.109375 248.007813 2614.921875 248.007813 C 2622.734375 248.007813 2629.101563 241.679688 2629.101563 233.867188 Z M 2629.101563 233.867188 " transform="matrix(0.1,0,0,-0.1,0,87)"/>
<path style=" stroke:none;fill-rule:nonzero;fill:rgb(30.200195%,30.200195%,30.200195%);fill-opacity:1;" d="M 278.84375 49.640625 C 278.84375 50.421875 278.207031 51.058594 277.425781 51.058594 C 276.644531 51.058594 276.007813 50.421875 276.007813 49.640625 C 276.007813 48.859375 276.644531 48.222656 277.425781 48.222656 C 278.207031 48.222656 278.84375 48.859375 278.84375 49.640625 "/>
<path style="fill:none;stroke-width:28.346;stroke-linecap:butt;stroke-linejoin:miter;stroke:rgb(30.200195%,30.200195%,30.200195%);stroke-opacity:1;stroke-miterlimit:10;" d="M 2788.4375 373.59375 C 2788.4375 365.78125 2782.070313 359.414063 2774.257813 359.414063 C 2766.445313 359.414063 2760.078125 365.78125 2760.078125 373.59375 C 2760.078125 381.40625 2766.445313 387.773438 2774.257813 387.773438 C 2782.070313 387.773438 2788.4375 381.40625 2788.4375 373.59375 Z M 2788.4375 373.59375 " transform="matrix(0.1,0,0,-0.1,0,87)"/>
<path style=" stroke:none;fill-rule:nonzero;fill:rgb(30.200195%,30.200195%,30.200195%);fill-opacity:1;" d="M 294.089844 35.269531 C 294.089844 36.050781 293.453125 36.6875 292.671875 36.6875 C 291.890625 36.6875 291.253906 36.050781 291.253906 35.269531 C 291.253906 34.484375 291.890625 33.851563 292.671875 33.851563 C 293.453125 33.851563 294.089844 34.484375 294.089844 35.269531 "/>
<path style="fill:none;stroke-width:28.346;stroke-linecap:butt;stroke-linejoin:miter;stroke:rgb(30.200195%,30.200195%,30.200195%);stroke-opacity:1;stroke-miterlimit:10;" d="M 2940.898438 517.304688 C 2940.898438 509.492188 2934.53125 503.125 2926.71875 503.125 C 2918.90625 503.125 2912.539063 509.492188 2912.539063 517.304688 C 2912.539063 525.15625 2918.90625 531.484375 2926.71875 531.484375 C 2934.53125 531.484375 2940.898438 525.15625 2940.898438 517.304688 Z M 2940.898438 517.304688 " transform="matrix(0.1,0,0,-0.1,0,87)"/>
<path style=" stroke:none;fill-rule:nonzero;fill:rgb(30.200195%,30.200195%,30.200195%);fill-opacity:1;" d="M 261.839844 15.636719 C 261.839844 16.421875 261.207031 17.054688 260.421875 17.054688 C 259.640625 17.054688 259.007813 16.421875 259.007813 15.636719 C 259.007813 14.855469 259.640625 14.21875 260.421875 14.21875 C 261.207031 14.21875 261.839844 14.855469 261.839844 15.636719 "/>
<path style="fill:none;stroke-width:28.346;stroke-linecap:butt;stroke-linejoin:miter;stroke:rgb(30.200195%,30.200195%,30.200195%);stroke-opacity:1;stroke-miterlimit:10;" d="M 2618.398438 713.632813 C 2618.398438 705.78125 2612.070313 699.453125 2604.21875 699.453125 C 2596.40625 699.453125 2590.078125 705.78125 2590.078125 713.632813 C 2590.078125 721.445313 2596.40625 727.8125 2604.21875 727.8125 C 2612.070313 727.8125 2618.398438 721.445313 2618.398438 713.632813 Z M 2618.398438 713.632813 " transform="matrix(0.1,0,0,-0.1,0,87)"/>
</g>
</svg>
