<?xml version="1.0" encoding="utf-8"?>
<!DOCTYPE svg PUBLIC "-//W3C//DTD SVG 1.1//EN" "http://www.w3.org/Graphics/SVG/1.1/DTD/svg11.dtd">
<svg version="1.1" xmlns="http://www.w3.org/2000/svg" xmlns:xlink="http://www.w3.org/1999/xlink" x="0px" y="0px" viewBox="0 0 1000 1000" enable-background="new 0 0 1000 1000" xml:space="preserve">
<g><g fill="#eeeeee" transform="translate(0.000000,512.000000) scale(0.100000,-0.100000)"><path d="M3431.6,5000.6c-676-76.6-1340.4-344.7-1886.2-762.1c-162.8-124.5-473-427-608.9-595.5C316,2875,15.4,1867.8,120.7,908.4C226-64.4,689.4-941.4,1428.6-1559.9c1164.3-976.6,2814.9-1154.7,4145.8-444.3l180,95.7L7135-3285.2c1300.2-1298.3,1386.4-1380.7,1489.8-1417c250.8-91.9,543.8-101.5,743-24.9c210.6,80.4,400.2,270,480.6,480.6c76.6,197.2,67,494-23,741.1c-38.3,105.3-111.1,181.9-1419,1491.7L7029.7-633.1l95.8,180c287.2,541.9,427,1110.6,427,1740.7c0,637.7-126.4,1154.7-417.5,1723.4c-570.7,1108.7-1683.2,1863.2-2935.6,1989.6C3973.5,5025.5,3642.2,5023.6,3431.6,5000.6z M4245.4,3920.6c587.9-95.7,1116.4-377.2,1528.1-813.8c342.8-365.8,578.3-829.1,674.1-1340.4c49.8-250.9,49.8-710.4,1.9-957.5c-210.6-1093.4-1043.6-1922.6-2146.6-2139c-235.5-46-720-44-955.5,1.9C2686.7-1198,2095-832.2,1696.7-303.7c-151.3,201.1-354.3,603.2-419.4,834.9c-201.1,706.6-111.1,1474.5,245.1,2087.2c407.9,702.8,1127.9,1193,1920.7,1309.8C3628.8,3955,4059.6,3951.2,4245.4,3920.6z"/></g></g>
</svg>
