<?xml version="1.0" encoding="UTF-8"?>
<svg xmlns="http://www.w3.org/2000/svg" xmlns:xlink="http://www.w3.org/1999/xlink" width="176pt" height="180pt" viewBox="0 0 176 180" version="1.1">
<g id="surface1">
<rect x="0" y="0" width="176" height="180" style="fill:rgb(100%,100%,100%);fill-opacity:1;stroke:none;"/>
<path style="fill:none;stroke-width:0.12;stroke-linecap:butt;stroke-linejoin:miter;stroke:rgb(0%,0%,0%);stroke-opacity:1;stroke-miterlimit:10;" d="M 240.71875 707.539063 L 240.5625 707.925781 L 240.253906 708.234375 L 239.867188 708.390625 L 239.253906 708.390625 L 238.867188 708.234375 L 238.558594 707.925781 L 238.402344 707.539063 L 238.171875 707.078125 L 238.171875 706.230469 L 238.402344 705.6875 L 238.558594 705.382813 L 238.867188 704.996094 L 239.253906 704.839844 L 239.867188 704.839844 L 240.253906 704.996094 L 240.5625 705.382813 L 240.71875 705.6875 L 240.71875 706.382813 L 239.867188 706.382813 M 240.71875 707.539063 L 240.5625 707.539063 L 240.40625 707.925781 L 240.253906 708.082031 L 239.867188 708.234375 L 239.253906 708.234375 L 238.867188 708.082031 L 238.710938 707.925781 L 238.558594 707.539063 L 238.402344 707.078125 L 238.402344 706.230469 L 238.558594 705.6875 L 238.710938 705.382813 L 238.867188 705.226563 L 239.253906 704.996094 L 239.867188 704.996094 L 240.253906 705.226563 L 240.40625 705.382813 L 240.5625 705.6875 L 240.5625 706.230469 L 239.867188 706.230469 L 239.867188 706.382813 M 244.339844 707.539063 L 244.183594 707.925781 L 243.800781 708.234375 L 243.492188 708.390625 L 242.796875 708.390625 L 242.488281 708.234375 L 242.105469 707.925781 L 241.949219 707.539063 L 241.796875 707.078125 L 241.796875 706.230469 L 241.949219 705.6875 L 242.105469 705.382813 L 242.488281 704.996094 L 242.796875 704.839844 L 243.492188 704.839844 L 243.800781 704.996094 L 244.183594 705.382813 L 244.339844 705.6875 M 244.339844 707.539063 L 244.183594 707.539063 L 243.953125 707.925781 L 243.800781 708.082031 L 243.492188 708.234375 L 242.796875 708.234375 L 242.488281 708.082031 L 242.105469 707.539063 L 241.949219 707.078125 L 241.949219 706.230469 L 242.105469 705.6875 L 242.488281 705.226563 L 242.796875 704.996094 L 243.492188 704.996094 L 243.800781 705.226563 L 243.953125 705.382813 L 244.183594 705.6875 L 244.339844 705.6875 M 247.191406 708.234375 L 247.421875 707.925781 L 247.578125 707.925781 L 247.421875 708.234375 L 246.882813 708.390625 L 246.574219 708.390625 L 246.035156 708.234375 L 245.648438 707.773438 L 245.496094 706.925781 L 245.496094 706.074219 L 245.648438 705.382813 L 246.035156 704.996094 L 246.574219 704.839844 L 246.730469 704.839844 L 247.191406 704.996094 L 247.578125 705.382813 L 247.730469 705.84375 L 247.730469 706.074219 L 247.578125 706.539063 L 247.191406 706.925781 L 246.730469 707.078125 L 246.574219 707.078125 L 246.035156 706.925781 L 245.648438 706.539063 M 247.421875 708.082031 L 246.882813 708.234375 L 246.574219 708.234375 L 246.035156 708.082031 M 246.191406 708.234375 L 245.882813 707.773438 L 245.648438 706.925781 L 245.648438 706.074219 L 245.882813 705.382813 L 246.34375 704.996094 M 245.648438 705.6875 L 246.035156 705.226563 L 246.574219 704.996094 L 246.730469 704.996094 L 247.191406 705.226563 L 247.578125 705.6875 M 246.882813 704.996094 L 247.421875 705.382813 L 247.578125 705.84375 L 247.578125 706.074219 L 247.421875 706.539063 L 246.882813 706.925781 M 247.578125 706.230469 L 247.191406 706.691406 L 246.730469 706.925781 L 246.574219 706.925781 L 246.035156 706.691406 L 245.648438 706.230469 " transform="matrix(1,0,0,-1,-90,714)"/>
<path style="fill:none;stroke-width:0.12;stroke-linecap:butt;stroke-linejoin:miter;stroke:rgb(0%,0%,0%);stroke-opacity:1;stroke-miterlimit:10;" d="M 246.34375 706.925781 L 245.882813 706.539063 L 245.648438 706.074219 M 249.734375 708.390625 L 249.273438 708.234375 L 248.886719 707.773438 L 248.734375 706.925781 L 248.734375 706.382813 L 248.886719 705.535156 L 249.273438 704.996094 L 249.734375 704.839844 L 250.121094 704.839844 L 250.660156 704.996094 L 250.96875 705.535156 L 251.121094 706.382813 L 251.121094 706.925781 L 250.96875 707.773438 L 250.660156 708.234375 L 250.121094 708.390625 Z M 249.425781 708.234375 L 249.117188 707.773438 L 248.886719 706.925781 L 248.886719 706.382813 L 249.117188 705.535156 L 249.425781 704.996094 M 249.273438 705.226563 L 249.734375 704.996094 L 250.121094 704.996094 L 250.660156 705.226563 M 250.429688 704.996094 L 250.816406 705.535156 L 250.96875 706.382813 L 250.96875 706.925781 L 250.816406 707.773438 L 250.429688 708.234375 M 250.660156 708.082031 L 250.121094 708.234375 L 249.734375 708.234375 L 249.273438 708.082031 M 252.125 708.390625 L 254.515625 708.390625 L 252.820313 704.839844 M 252.125 708.390625 L 252.125 708.234375 L 254.359375 708.234375 M 254.359375 708.390625 L 252.664063 704.839844 L 252.820313 704.839844 M 256.054688 707.773438 L 256.441406 707.925781 L 256.902344 708.390625 L 256.902344 704.839844 M 256.054688 707.773438 L 256.054688 707.539063 L 256.441406 707.773438 L 256.75 708.082031 L 256.75 704.839844 L 256.902344 704.839844 M 259.988281 708.390625 L 259.449219 708.234375 L 259.140625 707.773438 L 258.984375 706.925781 L 258.984375 706.382813 L 259.140625 705.535156 L 259.449219 704.996094 L 259.988281 704.839844 L 260.296875 704.839844 L 260.835938 704.996094 L 261.144531 705.535156 L 261.375 706.382813 L 261.375 706.925781 L 261.144531 707.773438 L 260.835938 708.234375 L 260.296875 708.390625 Z M 259.679688 708.234375 L 259.292969 707.773438 L 259.140625 706.925781 L 259.140625 706.382813 L 259.292969 705.535156 L 259.679688 704.996094 M 259.449219 705.226563 L 259.988281 704.996094 L 260.296875 704.996094 L 260.835938 705.226563 M 260.679688 704.996094 L 260.988281 705.535156 L 261.144531 706.382813 L 261.144531 706.925781 L 260.988281 707.773438 L 260.679688 708.234375 M 260.835938 708.082031 L 260.296875 708.234375 L 259.988281 708.234375 L 259.449219 708.082031 M 104.125 541.347656 L 104.585938 541.578125 L 105.28125 542.351563 L 105.28125 537.257813 M 104.125 541.347656 L 104.125 541.113281 L 104.585938 541.347656 L 105.050781 541.886719 L 105.050781 537.257813 L 105.28125 537.257813 M 109.210938 542.351563 L 108.519531 542.117188 L 108.132813 541.347656 L 107.902344 540.113281 L 107.902344 539.417969 L 108.132813 538.183594 L 108.519531 537.488281 L 109.210938 537.257813 L 109.597656 537.257813 L 110.289063 537.488281 L 110.753906 538.183594 L 110.90625 539.417969 L 110.90625 540.113281 L 110.753906 541.347656 L 110.289063 542.117188 L 109.597656 542.351563 Z M 108.75 542.117188 L 108.285156 541.347656 L 108.132813 540.113281 L 108.132813 539.417969 L 108.285156 538.183594 L 108.75 537.488281 " transform="matrix(1,0,0,-1,-90,714)"/>
<path style="fill:none;stroke-width:0.12;stroke-linecap:butt;stroke-linejoin:miter;stroke:rgb(0%,0%,0%);stroke-opacity:1;stroke-miterlimit:10;" d="M 108.519531 537.71875 L 109.210938 537.488281 L 109.597656 537.488281 L 110.289063 537.71875 M 110.058594 537.488281 L 110.523438 538.183594 L 110.753906 539.417969 L 110.753906 540.113281 L 110.523438 541.347656 L 110.058594 542.117188 M 110.289063 541.886719 L 109.597656 542.117188 L 109.210938 542.117188 L 108.519531 541.886719 M 244.726563 542.351563 L 244.726563 537.257813 L 244.878906 537.257813 M 244.726563 542.351563 L 244.878906 542.351563 L 244.878906 537.257813 M 112.21875 543.042969 L 114.839844 543.042969 L 114.839844 542.8125 M 112.21875 543.042969 L 112.21875 542.8125 L 114.839844 542.8125 M 116.070313 544.046875 L 116.070313 544.199219 L 116.226563 544.585938 L 116.378906 544.742188 L 116.6875 544.894531 L 117.304688 544.894531 L 117.613281 544.742188 L 117.769531 544.585938 L 117.921875 544.199219 L 117.921875 543.894531 L 117.769531 543.507813 L 117.460938 543.042969 L 116.070313 541.347656 M 116.070313 544.046875 L 116.226563 544.046875 L 116.226563 544.199219 L 116.378906 544.585938 L 116.6875 544.742188 L 117.304688 544.742188 L 117.613281 544.585938 L 117.769531 544.199219 L 117.769531 543.894531 L 117.613281 543.507813 L 117.304688 543.042969 L 115.917969 541.347656 M 116.070313 541.5 L 118.074219 541.5 L 118.074219 541.347656 M 115.917969 541.347656 L 118.074219 541.347656 M 250.199219 538.339844 L 250.042969 538.644531 L 249.734375 539.03125 L 249.425781 539.1875 L 248.808594 539.1875 L 248.503906 539.03125 L 248.195313 538.644531 L 248.039063 538.339844 L 247.886719 537.796875 L 247.886719 536.949219 L 248.039063 536.484375 L 248.195313 536.101563 L 248.503906 535.789063 L 248.808594 535.636719 L 249.425781 535.636719 L 249.734375 535.789063 L 250.042969 536.101563 L 250.199219 536.484375 M 250.199219 538.339844 L 250.042969 538.339844 L 249.890625 538.644531 L 249.734375 538.878906 L 249.425781 539.03125 L 248.808594 539.03125 L 248.503906 538.878906 L 248.195313 538.339844 L 248.039063 537.796875 L 248.039063 536.949219 L 248.195313 536.484375 L 248.503906 535.945313 L 248.808594 535.789063 L 249.425781 535.789063 L 249.734375 535.945313 L 249.890625 536.101563 L 250.042969 536.484375 L 250.199219 536.484375 M 101.425781 655.152344 L 101.425781 655.304688 L 101.578125 655.691406 L 101.734375 655.847656 L 102.042969 656 L 102.660156 656 L 102.96875 655.847656 L 103.121094 655.691406 L 103.277344 655.304688 L 103.277344 654.996094 L 103.121094 654.613281 L 102.8125 654.148438 L 101.425781 652.453125 M 101.425781 655.152344 L 101.578125 655.152344 L 101.578125 655.304688 L 101.734375 655.691406 L 102.042969 655.847656 L 102.660156 655.847656 L 102.96875 655.691406 L 103.121094 655.304688 L 103.121094 654.996094 L 102.96875 654.613281 L 102.660156 654.148438 L 101.273438 652.453125 M 101.425781 652.605469 L 103.429688 652.605469 L 103.429688 652.453125 M 101.273438 652.453125 L 103.429688 652.453125 M 90.480469 701.753906 L 90.480469 696.660156 L 90.632813 696.660156 M 90.480469 701.753906 L 90.632813 701.753906 L 90.632813 696.660156 " transform="matrix(1,0,0,-1,-90,714)"/>
<path style="fill:none;stroke-width:0.12;stroke-linecap:butt;stroke-linejoin:miter;stroke:rgb(0%,0%,0%);stroke-opacity:1;stroke-miterlimit:10;" d="M 90.632813 699.132813 L 91.328125 699.824219 L 91.789063 700.058594 L 92.40625 700.058594 L 92.871094 699.824219 L 93.101563 699.132813 L 93.101563 696.660156 M 90.632813 699.132813 L 91.328125 699.59375 L 91.789063 699.824219 L 92.175781 699.824219 L 92.636719 699.59375 L 92.871094 699.132813 L 92.871094 696.660156 L 93.101563 696.660156 M 95.566406 698.28125 L 95.566406 694.734375 M 95.722656 698.128906 L 95.722656 694.734375 L 95.566406 694.734375 M 95.566406 698.28125 L 97.417969 698.28125 M 95.722656 698.128906 L 97.417969 698.128906 L 97.417969 698.28125 M 95.722656 696.585938 L 96.648438 696.585938 L 96.648438 696.429688 M 95.722656 696.429688 L 96.648438 696.429688 M 98.34375 698.28125 L 98.34375 694.734375 M 98.496094 698.128906 L 98.496094 694.886719 M 98.34375 698.28125 L 100.191406 698.28125 M 98.496094 698.128906 L 100.191406 698.128906 L 100.191406 698.28125 M 98.496094 696.585938 L 99.421875 696.585938 L 99.421875 696.429688 M 98.496094 696.429688 L 99.421875 696.429688 M 98.496094 694.886719 L 100.191406 694.886719 L 100.191406 694.734375 M 98.34375 694.734375 L 100.191406 694.734375 M 122.085938 546.746094 L 122.085938 546.824219 L 122.238281 547.132813 L 122.394531 547.289063 L 122.699219 547.441406 L 123.242188 547.441406 L 123.550781 547.289063 L 123.703125 547.132813 L 123.855469 546.824219 L 123.855469 546.59375 L 123.703125 546.285156 L 123.394531 545.820313 L 122.085938 544.355469 M 122.085938 546.746094 L 122.238281 546.746094 L 122.238281 546.824219 L 122.394531 547.132813 L 122.699219 547.289063 L 123.242188 547.289063 L 123.550781 547.132813 L 123.703125 546.824219 L 123.703125 546.59375 L 123.550781 546.285156 L 123.242188 545.820313 L 121.929688 544.355469 M 122.085938 544.511719 L 124.011719 544.511719 L 124.011719 544.355469 M 121.929688 544.355469 L 124.011719 544.355469 M 138.734375 546.980469 L 138.734375 544.355469 L 138.890625 544.355469 M 138.890625 547.441406 L 138.890625 544.355469 M 138.890625 547.441406 L 137.269531 545.128906 L 139.429688 545.128906 M 138.734375 546.980469 L 137.425781 545.128906 M 137.425781 545.28125 L 139.429688 545.28125 L 139.429688 545.128906 M 147.984375 547.289063 L 148.140625 546.980469 L 148.292969 546.980469 L 148.140625 547.289063 L 147.675781 547.441406 L 147.445313 547.441406 L 146.984375 547.289063 L 146.675781 546.824219 L 146.519531 546.128906 L 146.519531 545.4375 L 146.675781 544.820313 L 146.984375 544.511719 L 147.445313 544.355469 L 147.597656 544.355469 L 147.984375 544.511719 L 148.292969 544.820313 L 148.445313 545.28125 L 148.445313 545.4375 L 148.292969 545.820313 L 147.984375 546.128906 L 147.597656 546.285156 L 147.445313 546.285156 L 146.984375 546.128906 L 146.675781 545.820313 M 148.140625 547.132813 L 147.675781 547.289063 L 147.445313 547.289063 L 146.984375 547.132813 M 147.136719 547.289063 L 146.828125 546.824219 L 146.675781 546.128906 L 146.675781 545.4375 L 146.828125 544.820313 L 147.289063 544.511719 M 146.675781 545.128906 L 146.984375 544.664063 L 147.445313 544.511719 L 147.597656 544.511719 L 147.984375 544.664063 L 148.292969 545.128906 " transform="matrix(1,0,0,-1,-90,714)"/>
<path style="fill:none;stroke-width:0.12;stroke-linecap:butt;stroke-linejoin:miter;stroke:rgb(0%,0%,0%);stroke-opacity:1;stroke-miterlimit:10;" d="M 147.675781 544.511719 L 148.140625 544.820313 L 148.292969 545.28125 L 148.292969 545.4375 L 148.140625 545.820313 L 147.675781 546.128906 M 148.292969 545.511719 L 147.984375 545.976563 L 147.597656 546.128906 L 147.445313 546.128906 L 146.984375 545.976563 L 146.675781 545.511719 M 147.289063 546.128906 L 146.828125 545.820313 L 146.675781 545.4375 M 153.378906 547.441406 L 152.996094 547.289063 L 152.839844 546.980469 L 152.839844 546.746094 L 153.070313 546.285156 L 153.378906 546.128906 L 153.996094 545.976563 L 154.304688 545.820313 L 154.460938 545.667969 L 154.535156 545.4375 L 154.535156 544.972656 L 154.460938 544.664063 L 153.996094 544.511719 L 153.378906 544.511719 L 152.996094 544.664063 L 152.839844 544.972656 L 152.839844 545.4375 L 152.996094 545.667969 L 153.070313 545.820313 L 153.378906 545.976563 L 153.996094 546.128906 L 154.304688 546.285156 L 154.460938 546.4375 L 154.535156 546.746094 L 154.535156 546.980469 L 154.460938 547.289063 L 153.996094 547.441406 Z M 153.070313 547.289063 L 152.996094 546.980469 L 152.996094 546.746094 L 153.070313 546.4375 L 153.378906 546.285156 L 153.996094 546.128906 L 154.304688 545.976563 L 154.535156 545.667969 L 154.691406 545.4375 L 154.691406 544.972656 L 154.460938 544.511719 L 153.996094 544.355469 L 153.378906 544.355469 L 152.996094 544.511719 L 152.839844 544.664063 L 152.6875 544.972656 L 152.6875 545.4375 L 152.839844 545.667969 L 153.070313 545.976563 L 153.378906 546.128906 L 153.996094 546.285156 L 154.304688 546.4375 L 154.460938 546.746094 L 154.460938 546.980469 L 154.304688 547.289063 M 154.460938 547.132813 L 153.996094 547.289063 L 153.378906 547.289063 L 152.996094 547.132813 M 152.839844 544.820313 L 153.226563 544.511719 M 154.152344 544.511719 L 154.535156 544.820313 M 101.734375 604.769531 L 102.042969 604.921875 L 102.503906 605.464844 L 102.503906 601.914063 M 101.734375 604.769531 L 101.734375 604.613281 L 102.042969 604.769531 L 102.351563 605.15625 L 102.351563 601.914063 L 102.503906 601.914063 M 92.945313 653.070313 L 93.332031 653.300781 L 94.027344 653.996094 L 94.027344 648.902344 M 92.945313 653.070313 L 92.945313 652.835938 L 93.332031 653.070313 L 93.796875 653.53125 L 93.796875 648.902344 L 94.027344 648.902344 M 97.957031 653.996094 L 97.261719 653.761719 L 96.878906 653.070313 L 96.648438 651.835938 L 96.648438 651.140625 L 96.878906 649.90625 L 97.261719 649.132813 L 97.957031 648.902344 L 98.421875 648.902344 L 99.035156 649.132813 L 99.5 649.90625 L 99.730469 651.140625 L 99.730469 651.835938 L 99.5 653.070313 L 99.035156 653.761719 L 98.421875 653.996094 Z M 97.496094 653.761719 L 97.109375 653.070313 L 96.878906 651.835938 L 96.878906 651.140625 L 97.109375 649.90625 L 97.496094 649.132813 M 97.261719 649.363281 L 97.957031 649.132813 L 98.421875 649.132813 L 99.035156 649.363281 M 98.804688 649.132813 L 99.269531 649.90625 L 99.5 651.140625 L 99.5 651.835938 L 99.269531 653.070313 L 98.804688 653.761719 " transform="matrix(1,0,0,-1,-90,714)"/>
<path style="fill:none;stroke-width:0.12;stroke-linecap:butt;stroke-linejoin:miter;stroke:rgb(0%,0%,0%);stroke-opacity:1;stroke-miterlimit:10;" d="M 99.035156 653.53125 L 98.421875 653.761719 L 97.957031 653.761719 L 97.261719 653.53125 M 101.039063 554.773438 L 100.578125 554.617188 L 100.269531 554.078125 L 100.113281 553.230469 L 100.113281 552.6875 L 100.269531 551.839844 L 100.578125 551.378906 L 101.039063 551.222656 L 101.347656 551.222656 L 101.8125 551.378906 L 102.121094 551.839844 L 102.273438 552.6875 L 102.273438 553.230469 L 102.121094 554.078125 L 101.8125 554.617188 L 101.347656 554.773438 Z M 100.730469 554.617188 L 100.425781 554.078125 L 100.269531 553.230469 L 100.269531 552.6875 L 100.425781 551.839844 L 100.730469 551.378906 M 100.578125 551.53125 L 101.039063 551.378906 L 101.347656 551.378906 L 101.8125 551.53125 M 101.65625 551.378906 L 101.964844 551.839844 L 102.121094 552.6875 L 102.121094 553.230469 L 101.964844 554.078125 L 101.65625 554.617188 M 101.8125 554.386719 L 101.347656 554.617188 L 101.039063 554.617188 L 100.578125 554.386719 M 92.945313 602.378906 L 93.332031 602.609375 L 94.027344 603.304688 L 94.027344 598.210938 M 92.945313 602.378906 L 92.945313 602.070313 L 93.332031 602.378906 L 93.796875 602.839844 L 93.796875 598.210938 L 94.027344 598.210938 M 97.957031 603.304688 L 97.261719 603.070313 L 96.878906 602.378906 L 96.648438 601.144531 L 96.648438 600.371094 L 96.878906 599.214844 L 97.261719 598.441406 L 97.957031 598.210938 L 98.421875 598.210938 L 99.035156 598.441406 L 99.5 599.214844 L 99.730469 600.371094 L 99.730469 601.144531 L 99.5 602.378906 L 99.035156 603.070313 L 98.421875 603.304688 Z M 97.496094 603.070313 L 97.109375 602.378906 L 96.878906 601.144531 L 96.878906 600.371094 L 97.109375 599.214844 L 97.496094 598.441406 M 97.261719 598.675781 L 97.957031 598.441406 L 98.421875 598.441406 L 99.035156 598.675781 M 98.804688 598.441406 L 99.269531 599.214844 L 99.5 600.371094 L 99.5 601.144531 L 99.269531 602.378906 L 98.804688 603.070313 M 99.035156 602.839844 L 98.421875 603.070313 L 97.957031 603.070313 L 97.261719 602.839844 M 104.046875 596.667969 L 103.585938 596.511719 L 103.429688 596.203125 L 103.429688 595.894531 L 103.585938 595.664063 L 103.738281 595.511719 L 104.046875 595.355469 L 104.585938 595.203125 L 104.894531 595.046875 L 105.050781 594.894531 L 105.203125 594.585938 L 105.203125 594.199219 L 105.050781 593.890625 L 104.585938 593.734375 L 104.046875 593.734375 L 103.585938 593.890625 L 103.429688 594.199219 L 103.429688 594.585938 L 103.585938 594.894531 L 103.738281 595.046875 L 104.046875 595.203125 L 104.585938 595.355469 L 104.894531 595.511719 L 105.050781 595.664063 L 105.203125 595.894531 L 105.203125 596.203125 L 105.050781 596.511719 L 104.585938 596.667969 Z M 103.738281 596.511719 L 103.585938 596.203125 L 103.585938 595.894531 L 103.738281 595.664063 L 104.046875 595.511719 L 104.585938 595.355469 L 104.894531 595.203125 L 105.203125 594.894531 L 105.355469 594.585938 L 105.355469 594.199219 L 105.203125 593.890625 L 105.050781 593.734375 L 104.585938 593.582031 L 104.046875 593.582031 L 103.585938 593.734375 L 103.429688 593.890625 L 103.277344 594.199219 L 103.277344 594.585938 L 103.429688 594.894531 L 103.738281 595.203125 L 104.046875 595.355469 L 104.585938 595.511719 L 104.894531 595.664063 L 105.050781 595.894531 L 105.050781 596.203125 L 104.894531 596.511719 " transform="matrix(1,0,0,-1,-90,714)"/>
<path style="fill:none;stroke-width:0.12;stroke-linecap:butt;stroke-linejoin:miter;stroke:rgb(0%,0%,0%);stroke-opacity:1;stroke-miterlimit:10;" d="M 105.050781 596.359375 L 104.585938 596.511719 L 104.046875 596.511719 L 103.585938 596.359375 M 103.429688 594.042969 L 103.894531 593.734375 M 104.742188 593.734375 L 105.203125 594.042969 M 104.894531 590.265625 L 105.050781 589.953125 L 105.203125 589.953125 L 105.050781 590.265625 L 104.585938 590.417969 L 104.277344 590.417969 L 103.894531 590.265625 L 103.585938 589.800781 L 103.429688 589.105469 L 103.429688 588.410156 L 103.585938 587.796875 L 103.894531 587.484375 L 104.277344 587.332031 L 104.433594 587.332031 L 104.894531 587.484375 L 105.203125 587.796875 L 105.355469 588.257813 L 105.355469 588.410156 L 105.203125 588.796875 L 104.894531 589.105469 L 104.433594 589.261719 L 104.277344 589.261719 L 103.894531 589.105469 L 103.585938 588.796875 M 105.050781 590.109375 L 104.585938 590.265625 L 104.277344 590.265625 L 103.894531 590.109375 M 104.046875 590.265625 L 103.738281 589.800781 L 103.585938 589.105469 L 103.585938 588.410156 L 103.738281 587.796875 L 104.125 587.484375 M 103.585938 588.101563 L 103.894531 587.640625 L 104.277344 587.484375 L 104.433594 587.484375 L 104.894531 587.640625 L 105.203125 588.101563 M 104.585938 587.484375 L 105.050781 587.796875 L 105.203125 588.257813 L 105.203125 588.410156 L 105.050781 588.796875 L 104.585938 589.105469 M 105.203125 588.488281 L 104.894531 588.953125 L 104.433594 589.105469 L 104.277344 589.105469 L 103.894531 588.953125 L 103.585938 588.488281 M 104.125 589.105469 L 103.738281 588.796875 L 103.585938 588.410156 M 104.742188 581.3125 L 104.742188 578.691406 L 104.894531 578.691406 M 104.894531 581.777344 L 104.894531 578.691406 M 104.894531 581.777344 L 103.277344 579.460938 L 105.433594 579.460938 M 104.742188 581.3125 L 103.429688 579.460938 M 103.429688 579.617188 L 105.433594 579.617188 L 105.433594 579.460938 M 103.429688 565.496094 L 103.429688 565.652344 L 103.585938 565.960938 L 103.738281 566.113281 L 104.046875 566.269531 L 104.585938 566.269531 L 104.894531 566.113281 L 105.050781 565.960938 L 105.203125 565.652344 L 105.203125 565.34375 L 105.050781 565.035156 L 104.742188 564.648438 L 103.429688 563.183594 M 103.429688 565.496094 L 103.585938 565.496094 L 103.585938 565.652344 L 103.738281 565.960938 L 104.046875 566.113281 L 104.585938 566.113281 L 104.894531 565.960938 L 105.050781 565.652344 L 105.050781 565.34375 L 104.894531 565.035156 L 104.585938 564.648438 L 103.277344 563.183594 M 103.429688 563.335938 L 105.355469 563.335938 L 105.355469 563.183594 M 103.277344 563.183594 L 105.355469 563.183594 M 92.945313 550.605469 L 93.332031 550.835938 L 94.027344 551.609375 L 94.027344 546.515625 M 92.945313 550.605469 L 92.945313 550.375 L 93.332031 550.605469 L 93.796875 551.066406 L 93.796875 546.515625 L 94.027344 546.515625 M 97.957031 551.609375 L 97.261719 551.378906 L 96.878906 550.605469 L 96.648438 549.371094 L 96.648438 548.675781 L 96.878906 547.441406 L 97.261719 546.746094 L 97.957031 546.515625 L 98.421875 546.515625 L 99.035156 546.746094 L 99.5 547.441406 L 99.730469 548.675781 L 99.730469 549.371094 L 99.5 550.605469 L 99.035156 551.378906 L 98.421875 551.609375 Z M 97.957031 551.609375 " transform="matrix(1,0,0,-1,-90,714)"/>
<path style="fill:none;stroke-width:0.12;stroke-linecap:butt;stroke-linejoin:miter;stroke:rgb(0%,0%,0%);stroke-opacity:1;stroke-miterlimit:10;" d="M 97.496094 551.378906 L 97.109375 550.605469 L 96.878906 549.371094 L 96.878906 548.675781 L 97.109375 547.441406 L 97.496094 546.746094 M 97.261719 546.980469 L 97.957031 546.746094 L 98.421875 546.746094 L 99.035156 546.980469 M 98.804688 546.746094 L 99.269531 547.441406 L 99.5 548.675781 L 99.5 549.371094 L 99.269531 550.605469 L 98.804688 551.378906 M 99.035156 551.066406 L 98.421875 551.378906 L 97.957031 551.378906 L 97.261719 551.066406 M 163.554688 543.042969 L 166.175781 543.042969 L 166.175781 542.8125 M 163.554688 543.042969 L 163.554688 542.8125 L 166.175781 542.8125 M 167.71875 544.199219 L 168.027344 544.355469 L 168.488281 544.894531 L 168.488281 541.347656 M 167.71875 544.199219 L 167.71875 544.046875 L 168.027344 544.199219 L 168.335938 544.585938 L 168.335938 541.347656 L 168.488281 541.347656 M 155.769531 541.347656 L 156.15625 541.578125 L 156.847656 542.351563 L 156.847656 537.257813 M 155.769531 541.347656 L 155.769531 541.113281 L 156.15625 541.347656 L 156.617188 541.886719 L 156.617188 537.257813 L 156.847656 537.257813 M 160.78125 542.351563 L 160.164063 542.117188 L 159.699219 541.347656 L 159.46875 540.113281 L 159.46875 539.417969 L 159.699219 538.183594 L 160.164063 537.488281 L 160.78125 537.257813 L 161.242188 537.257813 L 161.859375 537.488281 L 162.320313 538.183594 L 162.554688 539.417969 L 162.554688 540.113281 L 162.320313 541.347656 L 161.859375 542.117188 L 161.242188 542.351563 Z M 160.316406 542.117188 L 159.933594 541.347656 L 159.699219 540.113281 L 159.699219 539.417969 L 159.933594 538.183594 L 160.316406 537.488281 M 160.164063 537.71875 L 160.78125 537.488281 L 161.242188 537.488281 L 161.859375 537.71875 M 161.628906 537.488281 L 162.089844 538.183594 L 162.320313 539.417969 L 162.320313 540.113281 L 162.089844 541.347656 L 161.628906 542.117188 M 161.859375 541.886719 L 161.242188 542.117188 L 160.78125 542.117188 L 160.164063 541.886719 M 215.585938 544.894531 L 215.125 544.742188 L 214.816406 544.199219 L 214.660156 543.351563 L 214.660156 542.8125 L 214.816406 541.964844 L 215.125 541.5 L 215.585938 541.347656 L 215.894531 541.347656 L 216.359375 541.5 L 216.664063 541.964844 L 216.820313 542.8125 L 216.820313 543.351563 L 216.664063 544.199219 L 216.359375 544.742188 L 215.894531 544.894531 Z M 215.277344 544.742188 L 214.972656 544.199219 L 214.816406 543.351563 L 214.816406 542.8125 L 214.972656 541.964844 L 215.277344 541.5 M 215.125 541.65625 L 215.585938 541.5 L 215.894531 541.5 L 216.359375 541.65625 M 216.203125 541.5 L 216.511719 541.964844 L 216.664063 542.8125 L 216.664063 543.351563 L 216.511719 544.199219 L 216.203125 544.742188 M 216.359375 544.585938 L 215.894531 544.742188 L 215.585938 544.742188 L 215.125 544.585938 M 206.335938 541.347656 L 206.722656 541.578125 L 207.414063 542.351563 L 207.414063 537.257813 M 206.335938 541.347656 L 206.335938 541.113281 L 206.722656 541.347656 L 207.183594 541.886719 L 207.183594 537.257813 L 207.414063 537.257813 " transform="matrix(1,0,0,-1,-90,714)"/>
<path style="fill:none;stroke-width:0.12;stroke-linecap:butt;stroke-linejoin:miter;stroke:rgb(0%,0%,0%);stroke-opacity:1;stroke-miterlimit:10;" d="M 211.347656 542.351563 L 210.730469 542.117188 L 210.269531 541.347656 L 210.035156 540.113281 L 210.035156 539.417969 L 210.269531 538.183594 L 210.730469 537.488281 L 211.347656 537.257813 L 211.808594 537.257813 L 212.425781 537.488281 L 212.890625 538.183594 L 213.121094 539.417969 L 213.121094 540.113281 L 212.890625 541.347656 L 212.425781 542.117188 L 211.808594 542.351563 Z M 210.886719 542.117188 L 210.5 541.347656 L 210.269531 540.113281 L 210.269531 539.417969 L 210.5 538.183594 L 210.886719 537.488281 M 210.730469 537.71875 L 211.347656 537.488281 L 211.808594 537.488281 L 212.425781 537.71875 M 212.195313 537.488281 L 212.65625 538.183594 L 212.890625 539.417969 L 212.890625 540.113281 L 212.65625 541.347656 L 212.195313 542.117188 M 212.425781 541.886719 L 211.808594 542.117188 L 211.347656 542.117188 L 210.730469 541.886719 M 103.429688 616.652344 L 103.429688 616.726563 L 103.585938 617.035156 L 103.738281 617.191406 L 104.046875 617.347656 L 104.585938 617.347656 L 104.894531 617.191406 L 105.050781 617.035156 L 105.203125 616.726563 L 105.203125 616.496094 L 105.050781 616.1875 L 104.742188 615.726563 L 103.429688 614.257813 M 103.429688 616.652344 L 103.585938 616.652344 L 103.585938 616.726563 L 103.738281 617.035156 L 104.046875 617.191406 L 104.585938 617.191406 L 104.894531 617.035156 L 105.050781 616.726563 L 105.050781 616.496094 L 104.894531 616.1875 L 104.585938 615.726563 L 103.277344 614.257813 M 103.429688 614.414063 L 105.355469 614.414063 L 105.355469 614.257813 M 103.277344 614.257813 L 105.355469 614.257813 M 104.742188 632.46875 L 104.742188 629.84375 L 104.894531 629.84375 M 104.894531 632.855469 L 104.894531 629.84375 M 104.894531 632.855469 L 103.277344 630.539063 L 105.433594 630.539063 M 104.742188 632.46875 L 103.429688 630.539063 M 103.429688 630.695313 L 105.433594 630.695313 L 105.433594 630.539063 M 104.894531 641.339844 L 105.050781 641.109375 L 105.203125 641.109375 L 105.050781 641.339844 L 104.585938 641.496094 L 104.277344 641.496094 L 103.894531 641.339844 L 103.585938 640.953125 L 103.429688 640.183594 L 103.429688 639.488281 L 103.585938 638.871094 L 103.894531 638.640625 L 104.277344 638.484375 L 104.433594 638.484375 L 104.894531 638.640625 L 105.203125 638.871094 L 105.355469 639.335938 L 105.355469 639.488281 L 105.203125 639.953125 L 104.894531 640.183594 L 104.433594 640.339844 L 104.277344 640.339844 L 103.894531 640.183594 L 103.585938 639.953125 M 105.050781 641.265625 L 104.585938 641.339844 L 104.277344 641.339844 L 103.894531 641.265625 M 104.046875 641.339844 L 103.738281 640.953125 L 103.585938 640.183594 L 103.585938 639.488281 L 103.738281 638.871094 L 104.125 638.640625 M 103.585938 639.179688 L 103.894531 638.71875 L 104.277344 638.640625 L 104.433594 638.640625 L 104.894531 638.71875 L 105.203125 639.179688 M 104.585938 638.640625 L 105.050781 638.871094 L 105.203125 639.335938 L 105.203125 639.488281 L 105.050781 639.953125 L 104.585938 640.183594 M 105.203125 639.644531 L 104.894531 640.03125 L 104.433594 640.183594 L 104.277344 640.183594 L 103.894531 640.03125 L 103.585938 639.644531 " transform="matrix(1,0,0,-1,-90,714)"/>
<path style="fill:none;stroke-width:0.12;stroke-linecap:butt;stroke-linejoin:miter;stroke:rgb(0%,0%,0%);stroke-opacity:1;stroke-miterlimit:10;" d="M 104.125 640.183594 L 103.738281 639.953125 L 103.585938 639.488281 M 104.046875 647.746094 L 103.585938 647.589844 L 103.429688 647.359375 L 103.429688 647.050781 L 103.585938 646.742188 L 103.738281 646.589844 L 104.046875 646.433594 L 104.585938 646.277344 L 104.894531 646.125 L 105.050781 645.972656 L 105.203125 645.738281 L 105.203125 645.277344 L 105.050781 644.96875 L 104.585938 644.8125 L 104.046875 644.8125 L 103.585938 644.96875 L 103.429688 645.277344 L 103.429688 645.738281 L 103.585938 645.972656 L 103.738281 646.125 L 104.046875 646.277344 L 104.585938 646.433594 L 104.894531 646.589844 L 105.050781 646.742188 L 105.203125 647.050781 L 105.203125 647.359375 L 105.050781 647.589844 L 104.585938 647.746094 Z M 103.738281 647.589844 L 103.585938 647.359375 L 103.585938 647.050781 L 103.738281 646.742188 L 104.046875 646.589844 L 104.585938 646.433594 L 104.894531 646.277344 L 105.203125 645.972656 L 105.355469 645.738281 L 105.355469 645.277344 L 105.203125 644.96875 L 105.050781 644.8125 L 104.585938 644.660156 L 104.046875 644.660156 L 103.585938 644.8125 L 103.429688 644.96875 L 103.277344 645.277344 L 103.277344 645.738281 L 103.429688 645.972656 L 103.738281 646.277344 L 104.046875 646.433594 L 104.585938 646.589844 L 104.894531 646.742188 L 105.050781 647.050781 L 105.050781 647.359375 L 104.894531 647.589844 M 105.050781 647.4375 L 104.585938 647.589844 L 104.046875 647.589844 L 103.585938 647.4375 M 103.429688 645.121094 L 103.894531 644.8125 M 104.742188 644.8125 L 105.203125 645.121094 M 103.429688 667.730469 L 103.429688 667.882813 L 103.585938 668.191406 L 104.046875 668.421875 L 104.585938 668.421875 L 105.050781 668.191406 L 105.203125 667.882813 L 105.203125 667.574219 L 105.050781 667.265625 L 104.742188 666.878906 L 103.429688 665.414063 M 103.429688 667.730469 L 103.585938 667.730469 L 103.585938 667.882813 L 103.738281 668.191406 L 104.046875 668.269531 L 104.585938 668.269531 L 104.894531 668.191406 L 105.050781 667.882813 L 105.050781 667.574219 L 104.894531 667.265625 L 104.585938 666.878906 L 103.277344 665.414063 M 103.429688 665.492188 L 105.355469 665.492188 L 105.355469 665.414063 M 103.277344 665.414063 L 105.355469 665.414063 M 104.742188 683.546875 L 104.742188 680.921875 L 104.894531 680.921875 M 104.894531 684.007813 L 104.894531 680.921875 M 104.894531 684.007813 L 103.277344 681.695313 L 105.433594 681.695313 M 104.742188 683.546875 L 103.429688 681.695313 M 103.429688 681.769531 L 105.433594 681.769531 L 105.433594 681.695313 M 104.894531 692.496094 L 105.050781 692.1875 L 105.203125 692.1875 L 105.050781 692.496094 L 104.585938 692.648438 L 104.277344 692.648438 L 103.894531 692.496094 L 103.585938 692.03125 L 103.429688 691.339844 L 103.429688 690.566406 L 103.585938 690.027344 L 103.894531 689.71875 L 104.277344 689.5625 L 104.433594 689.5625 L 104.894531 689.71875 L 105.203125 690.027344 L 105.355469 690.414063 L 105.355469 690.566406 L 105.203125 691.03125 L 104.894531 691.339844 L 104.433594 691.492188 L 104.277344 691.492188 L 103.894531 691.339844 L 103.585938 691.03125 " transform="matrix(1,0,0,-1,-90,714)"/>
<path style="fill:none;stroke-width:0.12;stroke-linecap:butt;stroke-linejoin:miter;stroke:rgb(0%,0%,0%);stroke-opacity:1;stroke-miterlimit:10;" d="M 105.050781 692.339844 L 104.585938 692.496094 L 104.277344 692.496094 L 103.894531 692.339844 M 104.046875 692.496094 L 103.738281 692.03125 L 103.585938 691.339844 L 103.585938 690.566406 L 103.738281 690.027344 L 104.125 689.71875 M 103.585938 690.257813 L 103.894531 689.871094 L 104.277344 689.71875 L 104.433594 689.71875 L 104.894531 689.871094 L 105.203125 690.257813 M 104.585938 689.71875 L 105.050781 690.027344 L 105.203125 690.414063 L 105.203125 690.566406 L 105.050781 691.03125 L 104.585938 691.339844 M 105.203125 690.722656 L 104.894531 691.183594 L 104.433594 691.339844 L 104.277344 691.339844 L 103.894531 691.183594 L 103.585938 690.722656 M 104.125 691.339844 L 103.738281 691.03125 L 103.585938 690.566406 M 204.488281 547.441406 L 204.023438 547.289063 L 203.871094 546.980469 L 203.871094 546.746094 L 204.023438 546.4375 L 204.179688 546.285156 L 204.488281 546.128906 L 205.027344 545.976563 L 205.335938 545.820313 L 205.488281 545.667969 L 205.644531 545.4375 L 205.644531 544.972656 L 205.488281 544.664063 L 205.027344 544.511719 L 204.488281 544.511719 L 204.023438 544.664063 L 203.871094 544.972656 L 203.871094 545.4375 L 204.023438 545.667969 L 204.179688 545.820313 L 204.488281 545.976563 L 205.027344 546.128906 L 205.335938 546.285156 L 205.488281 546.4375 L 205.644531 546.746094 L 205.644531 546.980469 L 205.488281 547.289063 L 205.027344 547.441406 Z M 204.179688 547.289063 L 204.023438 546.980469 L 204.023438 546.746094 L 204.179688 546.4375 L 204.488281 546.285156 L 205.027344 546.128906 L 205.335938 545.976563 L 205.644531 545.667969 L 205.796875 545.4375 L 205.796875 544.972656 L 205.644531 544.664063 L 205.488281 544.511719 L 205.027344 544.355469 L 204.488281 544.355469 L 204.023438 544.511719 L 203.871094 544.664063 L 203.714844 544.972656 L 203.714844 545.4375 L 203.871094 545.667969 L 204.179688 545.976563 L 204.488281 546.128906 L 205.027344 546.285156 L 205.335938 546.4375 L 205.488281 546.746094 L 205.488281 546.980469 L 205.335938 547.289063 M 205.488281 547.132813 L 205.027344 547.289063 L 204.488281 547.289063 L 204.023438 547.132813 M 203.871094 544.820313 L 204.332031 544.511719 M 205.179688 544.511719 L 205.644531 544.820313 " transform="matrix(1,0,0,-1,-90,714)"/>
<path style="fill:none;stroke-width:0.12;stroke-linecap:butt;stroke-linejoin:miter;stroke:rgb(0%,0%,0%);stroke-opacity:1;stroke-miterlimit:10;" d="M 199.089844 547.289063 L 199.246094 546.980469 L 199.398438 546.980469 L 199.246094 547.289063 L 198.78125 547.441406 L 198.476563 547.441406 L 198.089844 547.289063 L 197.78125 546.824219 L 197.628906 546.128906 L 197.628906 545.4375 L 197.78125 544.820313 L 198.089844 544.511719 L 198.476563 544.355469 L 198.628906 544.355469 L 199.089844 544.511719 L 199.398438 544.820313 L 199.554688 545.28125 L 199.554688 545.4375 L 199.398438 545.820313 L 199.089844 546.128906 L 198.628906 546.285156 L 198.476563 546.285156 L 198.089844 546.128906 L 197.78125 545.820313 M 199.246094 547.132813 L 198.78125 547.289063 L 198.476563 547.289063 L 198.089844 547.132813 M 198.164063 547.289063 L 197.933594 546.824219 L 197.78125 546.128906 L 197.78125 545.4375 L 197.933594 544.820313 L 198.320313 544.511719 M 197.78125 545.128906 L 198.089844 544.664063 L 198.476563 544.511719 L 198.628906 544.511719 L 199.089844 544.664063 L 199.398438 545.128906 M 198.78125 544.511719 L 199.246094 544.820313 L 199.398438 545.28125 L 199.398438 545.4375 L 199.246094 545.820313 L 198.78125 546.128906 M 199.398438 545.511719 L 199.089844 545.976563 L 198.628906 546.128906 L 198.476563 546.128906 L 198.089844 545.976563 L 197.78125 545.511719 M 198.320313 546.128906 L 197.933594 545.820313 L 197.78125 545.4375 M 189.839844 546.980469 L 189.839844 544.355469 L 189.917969 544.355469 M 189.917969 547.441406 L 189.917969 544.355469 M 189.917969 547.441406 L 188.378906 545.128906 L 190.535156 545.128906 M 189.839844 546.980469 L 188.53125 545.128906 M 188.53125 545.28125 L 190.535156 545.28125 L 190.535156 545.128906 M 173.191406 546.746094 L 173.191406 546.824219 L 173.421875 547.289063 L 173.730469 547.441406 L 174.347656 547.441406 L 174.65625 547.289063 L 174.886719 546.824219 L 174.886719 546.59375 L 174.5 545.820313 L 173.191406 544.355469 M 173.191406 546.746094 L 173.34375 546.746094 L 173.34375 546.824219 L 173.421875 547.132813 L 173.730469 547.289063 L 174.347656 547.289063 L 174.65625 547.132813 L 174.734375 546.824219 L 174.734375 546.59375 L 174.65625 546.285156 L 174.347656 545.820313 L 173.035156 544.355469 M 173.191406 544.511719 L 175.039063 544.511719 L 175.039063 544.355469 M 173.035156 544.355469 L 175.039063 544.355469 M 255.515625 547.441406 L 255.132813 547.289063 L 254.976563 546.980469 L 254.976563 546.746094 L 255.132813 546.4375 L 255.285156 546.285156 L 255.515625 546.128906 L 256.132813 545.976563 L 256.441406 545.820313 L 256.597656 545.667969 L 256.75 545.4375 L 256.75 544.972656 L 256.597656 544.664063 L 256.132813 544.511719 L 255.515625 544.511719 L 255.132813 544.664063 L 254.976563 544.972656 L 254.976563 545.4375 L 255.132813 545.667969 L 255.285156 545.820313 L 255.515625 545.976563 L 256.132813 546.128906 L 256.441406 546.285156 L 256.597656 546.4375 L 256.75 546.746094 L 256.75 546.980469 L 256.597656 547.289063 L 256.132813 547.441406 Z M 255.285156 547.289063 L 255.132813 546.980469 L 255.132813 546.746094 L 255.285156 546.4375 L 255.515625 546.285156 L 256.132813 546.128906 L 256.441406 545.976563 L 256.75 545.667969 L 256.902344 545.4375 L 256.902344 544.972656 L 256.75 544.664063 L 256.597656 544.511719 L 256.132813 544.355469 L 255.515625 544.355469 L 255.132813 544.511719 L 254.976563 544.664063 L 254.824219 544.972656 L 254.824219 545.4375 L 254.976563 545.667969 L 255.285156 545.976563 L 255.515625 546.128906 L 256.132813 546.285156 L 256.441406 546.4375 L 256.597656 546.746094 L 256.597656 546.980469 L 256.441406 547.289063 " transform="matrix(1,0,0,-1,-90,714)"/>
<path style="fill:none;stroke-width:0.12;stroke-linecap:butt;stroke-linejoin:miter;stroke:rgb(0%,0%,0%);stroke-opacity:1;stroke-miterlimit:10;" d="M 256.597656 547.132813 L 256.132813 547.289063 L 255.515625 547.289063 L 255.132813 547.132813 M 254.976563 544.820313 L 255.441406 544.511719 M 256.289063 544.511719 L 256.75 544.820313 M 250.121094 547.289063 L 250.273438 546.980469 L 250.429688 546.980469 L 250.273438 547.289063 L 249.890625 547.441406 L 249.582031 547.441406 L 249.117188 547.289063 L 248.808594 546.824219 L 248.734375 546.128906 L 248.734375 545.4375 L 248.808594 544.820313 L 249.117188 544.511719 L 249.582031 544.355469 L 249.734375 544.355469 L 250.121094 544.511719 L 250.429688 544.820313 L 250.582031 545.28125 L 250.582031 545.4375 L 250.429688 545.820313 L 250.121094 546.128906 L 249.734375 546.285156 L 249.582031 546.285156 L 249.117188 546.128906 L 248.808594 545.820313 M 250.273438 547.132813 L 249.890625 547.289063 L 249.582031 547.289063 L 249.117188 547.132813 M 249.273438 547.289063 L 248.964844 546.824219 L 248.808594 546.128906 L 248.808594 545.4375 L 248.964844 544.820313 L 249.425781 544.511719 M 248.808594 545.128906 L 249.117188 544.664063 L 249.582031 544.511719 L 249.734375 544.511719 L 250.121094 544.664063 L 250.429688 545.128906 M 249.890625 544.511719 L 250.273438 544.820313 L 250.429688 545.28125 L 250.429688 545.4375 L 250.273438 545.820313 L 249.890625 546.128906 M 250.429688 545.511719 L 250.121094 545.976563 L 249.734375 546.128906 L 249.582031 546.128906 L 249.117188 545.976563 L 248.808594 545.511719 M 249.425781 546.128906 L 248.964844 545.820313 L 248.808594 545.4375 M 240.871094 546.980469 L 240.871094 544.355469 L 241.023438 544.355469 M 241.023438 547.441406 L 241.023438 544.355469 M 241.023438 547.441406 L 239.40625 545.128906 L 241.640625 545.128906 M 240.871094 546.980469 L 239.558594 545.128906 M 239.558594 545.28125 L 241.640625 545.28125 L 241.640625 545.128906 M 224.222656 546.746094 L 224.222656 546.824219 L 224.375 547.132813 L 224.527344 547.289063 L 224.835938 547.441406 L 225.378906 547.441406 L 225.683594 547.289063 L 225.839844 547.132813 L 225.992188 546.824219 L 225.992188 546.59375 L 225.839844 546.285156 L 225.53125 545.820313 L 224.222656 544.355469 M 224.222656 546.746094 L 224.375 546.746094 L 224.375 546.824219 L 224.527344 547.132813 L 224.835938 547.289063 L 225.378906 547.289063 L 225.683594 547.132813 L 225.839844 546.824219 L 225.839844 546.59375 L 225.683594 546.285156 L 225.378906 545.820313 L 224.066406 544.355469 M 224.222656 544.511719 L 226.148438 544.511719 L 226.148438 544.355469 M 224.066406 544.355469 L 226.148438 544.355469 " transform="matrix(1,0,0,-1,-90,714)"/>
<path style="fill:none;stroke-width:0.613;stroke-linecap:butt;stroke-linejoin:miter;stroke:rgb(0%,0%,0%);stroke-opacity:1;stroke-miterlimit:10;" d="M 107.992188 702.847656 L 261.21875 702.847656 L 261.21875 549.527344 L 107.992188 549.527344 L 107.992188 702.847656 " transform="matrix(1,0,0,-1,-90,714)"/>
<path style="fill:none;stroke-width:0.12;stroke-linecap:butt;stroke-linejoin:miter;stroke:rgb(0%,0%,0%);stroke-opacity:1;stroke-miterlimit:10;" d="M 261.144531 564.878906 L 107.976563 564.878906 M 261.144531 573.90625 L 174.425781 573.90625 M 261.144531 580.234375 L 107.976563 580.234375 M 261.144531 585.25 L 107.976563 585.25 M 261.144531 589.261719 L 107.976563 589.261719 M 261.144531 592.65625 L 107.976563 592.65625 M 261.144531 595.664063 L 107.976563 595.664063 M 261.144531 598.289063 L 107.976563 598.289063 M 261.144531 600.601563 L 107.976563 600.601563 M 261.144531 651.679688 L 107.976563 651.679688 M 261.144531 649.363281 L 107.976563 649.363281 M 261.144531 646.742188 L 107.976563 646.742188 M 261.144531 643.808594 L 107.976563 643.808594 M 261.144531 640.339844 L 107.976563 640.339844 M 261.144531 636.324219 L 107.976563 636.324219 M 261.144531 631.386719 L 107.976563 631.386719 M 261.144531 624.984375 L 107.976563 624.984375 M 261.144531 615.957031 L 107.976563 615.957031 M 261.144531 651.679688 L 107.976563 651.679688 M 261.144531 649.363281 L 107.976563 649.363281 M 261.144531 646.742188 L 107.976563 646.742188 M 261.144531 643.808594 L 107.976563 643.808594 M 261.144531 640.339844 L 107.976563 640.339844 M 261.144531 636.324219 L 107.976563 636.324219 M 261.144531 631.386719 L 107.976563 631.386719 M 261.144531 624.984375 L 107.976563 624.984375 M 261.144531 615.957031 L 107.976563 615.957031 M 261.144531 549.523438 L 261.144531 702.835938 M 261.144531 700.441406 L 107.976563 700.441406 M 261.144531 697.820313 L 107.976563 697.820313 M 261.144531 694.886719 L 107.976563 694.886719 M 261.144531 691.492188 L 107.976563 691.492188 M 261.144531 687.402344 L 107.976563 687.402344 M 261.144531 682.464844 L 107.976563 682.464844 M 261.144531 676.0625 L 107.976563 676.0625 M 261.144531 667.109375 L 107.976563 667.109375 M 225.453125 549.523438 L 225.453125 702.835938 M 234.472656 549.523438 L 234.472656 702.835938 M 240.871094 549.523438 L 240.871094 702.835938 M 245.804688 549.523438 L 245.804688 702.835938 M 249.8125 549.523438 L 249.8125 702.835938 M 253.28125 549.523438 L 253.28125 702.835938 M 256.210938 549.523438 L 256.210938 702.835938 M 258.832031 549.523438 L 258.832031 702.835938 M 174.425781 549.523438 L 174.425781 564.878906 M 183.367188 549.523438 L 183.367188 702.835938 M 189.765625 549.523438 L 189.765625 702.835938 M 194.695313 549.523438 L 194.695313 702.835938 M 198.78125 549.523438 L 198.78125 702.835938 M 202.175781 549.523438 L 202.175781 702.835938 M 205.179688 549.523438 L 205.179688 702.835938 M 207.800781 549.523438 L 207.800781 702.835938 M 210.113281 549.523438 L 210.113281 702.835938 M 174.425781 549.523438 L 174.425781 702.835938 M 183.367188 549.523438 L 183.367188 702.835938 M 189.765625 549.523438 L 189.765625 702.835938 M 194.695313 549.523438 L 194.695313 702.835938 M 198.78125 549.523438 L 198.78125 702.835938 M 202.175781 549.523438 L 202.175781 702.835938 M 205.179688 549.523438 L 205.179688 702.835938 M 207.800781 549.523438 L 207.800781 702.835938 M 210.113281 549.523438 L 210.113281 702.835938 M 159.007813 549.523438 L 159.007813 564.878906 M 156.695313 549.523438 L 156.695313 564.878906 " transform="matrix(1,0,0,-1,-90,714)"/>
<path style="fill:none;stroke-width:0.12;stroke-linecap:butt;stroke-linejoin:miter;stroke:rgb(0%,0%,0%);stroke-opacity:1;stroke-miterlimit:10;" d="M 154.074219 549.523438 L 154.074219 564.878906 M 151.144531 549.523438 L 151.144531 564.878906 M 147.675781 549.523438 L 147.675781 564.878906 M 143.667969 549.523438 L 143.667969 564.878906 M 138.734375 549.523438 L 138.734375 564.878906 M 132.335938 549.523438 L 132.335938 564.878906 M 123.316406 549.523438 L 123.316406 702.835938 M 174.425781 580.234375 L 174.425781 702.835938 M 159.007813 580.234375 L 159.007813 702.835938 M 123.316406 573.90625 L 107.976563 573.90625 M 156.695313 580.234375 L 156.695313 702.835938 M 154.074219 580.234375 L 154.074219 702.835938 M 151.144531 580.234375 L 151.144531 702.835938 M 147.675781 580.234375 L 147.675781 702.835938 M 143.667969 580.234375 L 143.667969 702.835938 M 138.734375 580.234375 L 138.734375 702.835938 M 132.335938 580.234375 L 132.335938 702.835938 M 138.890625 571.050781 L 138.734375 571.359375 L 138.425781 571.746094 L 138.117188 571.902344 L 137.5 571.902344 L 137.191406 571.746094 L 136.886719 571.359375 L 136.730469 571.050781 L 136.574219 570.511719 L 136.574219 569.664063 L 136.730469 569.199219 L 136.886719 568.8125 L 137.191406 568.507813 L 137.5 568.351563 L 138.117188 568.351563 L 138.425781 568.507813 L 138.734375 568.8125 L 138.890625 569.199219 M 138.890625 571.050781 L 138.734375 571.050781 L 138.578125 571.359375 L 138.425781 571.515625 L 138.117188 571.746094 L 137.5 571.746094 L 137.191406 571.515625 L 136.886719 571.050781 L 136.730469 570.511719 L 136.730469 569.664063 L 136.886719 569.199219 L 137.191406 568.660156 L 137.5 568.507813 L 138.117188 568.507813 L 138.425781 568.660156 L 138.578125 568.8125 L 138.734375 569.199219 L 138.890625 569.199219 M 139.96875 571.902344 L 139.96875 568.351563 M 140.121094 571.746094 L 140.121094 568.507813 M 139.96875 571.902344 L 141.816406 571.902344 M 140.121094 571.746094 L 141.816406 571.746094 L 141.816406 571.902344 M 140.121094 570.203125 L 141.046875 570.203125 L 141.046875 570.050781 M 140.121094 570.050781 L 141.046875 570.050781 M 140.121094 568.507813 L 141.816406 568.507813 L 141.816406 568.351563 M 139.96875 568.351563 L 141.816406 568.351563 M 131.875 575.0625 L 133.648438 569.894531 M 131.875 575.0625 L 132.105469 575.0625 L 133.648438 570.664063 M 135.421875 575.0625 L 135.1875 575.0625 L 133.648438 570.664063 M 135.421875 575.0625 L 133.648438 569.894531 M 145.59375 573.367188 L 149.296875 573.367188 L 149.296875 573.058594 M 145.59375 573.367188 L 145.59375 573.058594 L 149.296875 573.058594 M 145.59375 571.359375 L 149.296875 571.359375 L 149.296875 571.128906 M 145.59375 571.359375 L 145.59375 571.128906 L 149.296875 571.128906 M 153.070313 574.292969 L 153.070313 569.894531 L 153.226563 569.894531 M 153.226563 575.0625 L 153.226563 569.894531 M 153.226563 575.0625 L 150.835938 571.128906 L 154.152344 571.128906 M 153.070313 574.292969 L 151.066406 571.128906 M 151.066406 571.359375 L 154.152344 571.359375 L 154.152344 571.128906 M 155 575.0625 L 156.773438 569.894531 M 155 575.0625 L 155.230469 575.0625 L 156.773438 570.664063 " transform="matrix(1,0,0,-1,-90,714)"/>
<path style="fill:none;stroke-width:0.12;stroke-linecap:butt;stroke-linejoin:miter;stroke:rgb(0%,0%,0%);stroke-opacity:1;stroke-miterlimit:10;" d="M 158.546875 575.0625 L 158.3125 575.0625 L 156.773438 570.664063 M 158.546875 575.0625 L 156.773438 569.894531 " transform="matrix(1,0,0,-1,-90,714)"/>
<path style="fill:none;stroke-width:1.022;stroke-linecap:butt;stroke-linejoin:miter;stroke:rgb(0%,0%,0%);stroke-opacity:1;stroke-miterlimit:10;" d="M 107.992188 669.46875 L 111.601563 670.015625 L 115.023438 670.527344 L 118.257813 671.003906 L 121.320313 671.449219 L 124.214844 671.863281 L 126.960938 672.246094 L 129.558594 672.601563 L 132.019531 672.929688 L 134.355469 673.230469 L 136.585938 673.507813 L 138.71875 673.757813 L 140.777344 673.980469 L 142.777344 674.179688 L 144.734375 674.351563 L 146.667969 674.496094 L 148.589844 674.613281 L 150.519531 674.707031 L 152.464844 674.773438 L 154.425781 674.808594 L 156.410156 674.816406 L 158.425781 674.792969 L 160.472656 674.738281 L 162.554688 674.652344 L 164.683594 674.535156 L 166.859375 674.382813 L 169.058594 674.199219 L 171.265625 673.992188 L 173.457031 673.765625 L 175.609375 673.519531 L 177.707031 673.261719 L 179.71875 672.992188 L 181.632813 672.722656 L 183.429688 672.449219 L 185.125 672.171875 L 186.742188 671.878906 L 188.308594 671.570313 L 189.839844 671.230469 L 191.367188 670.859375 L 192.90625 670.445313 L 194.480469 669.988281 L 196.113281 669.476563 L 197.792969 668.914063 L 199.515625 668.300781 L 201.265625 667.636719 L 203.035156 666.921875 L 204.8125 666.15625 L 206.589844 665.34375 L 208.351563 664.484375 L 210.097656 663.578125 L 211.824219 662.617188 L 213.550781 661.597656 L 215.273438 660.511719 L 217.011719 659.347656 L 218.765625 658.105469 L 220.550781 656.769531 L 222.371094 655.34375 L 224.234375 653.8125 L 226.144531 652.179688 L 228.097656 650.4375 L 230.097656 648.589844 L 232.140625 646.625 L 234.226563 644.550781 L 236.363281 642.359375 L 238.539063 640.046875 L 240.773438 637.609375 L 243.09375 635.003906 L 245.539063 632.183594 L 248.164063 629.097656 L 251 625.699219 L 254.09375 621.945313 L 257.484375 617.785156 L 261.21875 613.167969 " transform="matrix(1,0,0,-1,-90,714)"/>
<path style="fill:none;stroke-width:0.12;stroke-linecap:butt;stroke-linejoin:miter;stroke:rgb(0%,0%,0%);stroke-opacity:1;stroke-miterlimit:10;" d="M 256.210938 543.277344 L 255.746094 542.8125 L 255.363281 542.117188 L 254.898438 541.113281 L 254.667969 539.882813 L 254.667969 538.953125 L 254.898438 537.71875 L 255.363281 536.71875 L 255.746094 536.023438 L 256.210938 535.558594 L 256.441406 535.558594 M 256.210938 543.277344 L 256.441406 543.277344 L 255.980469 542.8125 L 255.59375 542.117188 L 255.132813 541.113281 L 254.898438 539.882813 L 254.898438 538.953125 L 255.132813 537.71875 L 255.59375 536.71875 L 255.980469 536.023438 L 256.441406 535.558594 M 259.292969 542.351563 L 257.519531 537.257813 M 259.292969 541.578125 L 257.753906 537.257813 L 257.519531 537.257813 M 259.292969 541.578125 L 260.835938 537.257813 L 261.066406 537.257813 M 259.292969 542.351563 L 261.066406 537.257813 M 258.214844 538.722656 L 260.371094 538.722656 M 257.984375 538.414063 L 260.605469 538.414063 M 262.144531 543.277344 L 262.53125 542.8125 L 262.992188 542.117188 L 263.457031 541.113281 L 263.6875 539.882813 L 263.6875 538.953125 L 263.457031 537.71875 L 262.992188 536.71875 L 262.53125 536.023438 L 262.144531 535.558594 L 262.378906 535.558594 M 262.144531 543.277344 L 262.378906 543.277344 L 262.761719 542.8125 L 263.226563 542.117188 L 263.6875 541.113281 L 263.84375 539.882813 L 263.84375 538.953125 L 263.6875 537.71875 L 263.226563 536.71875 L 262.761719 536.023438 L 262.378906 535.558594 " transform="matrix(1,0,0,-1,-90,714)"/>
</g>
</svg>
