<?xml version="1.0" encoding="UTF-8" standalone="no"?>
<svg
   xmlns:dc="http://purl.org/dc/elements/1.1/"
   xmlns:cc="http://creativecommons.org/ns#"
   xmlns:rdf="http://www.w3.org/1999/02/22-rdf-syntax-ns#"
   xmlns:svg="http://www.w3.org/2000/svg"
   xmlns="http://www.w3.org/2000/svg"
   viewBox="0 0 170 127.5"
   height="127.5"
   width="170"
   xml:space="preserve"
   version="1.1"
   id="svg2"><metadata
     id="metadata8"><rdf:RDF><cc:Work
         rdf:about=""><dc:format>image/svg+xml</dc:format><dc:type
           rdf:resource="http://purl.org/dc/dcmitype/StillImage" /></cc:Work></rdf:RDF></metadata><defs
     id="defs6"><clipPath
       id="clipPath80"
       clipPathUnits="userSpaceOnUse"><path
         id="path82"
         d="m 913.602,926.496 446.398,0 0,-79.199 -446.398,0 0,79.199 z" /></clipPath></defs><g
     transform="matrix(1.25,0,0,-1.25,0,127.5)"
     id="g10"><g
       transform="scale(0.1,0.1)"
       id="g12"><path
         id="path14"
         style="fill:none;stroke:#000000;stroke-width:6.47399998;stroke-linecap:round;stroke-linejoin:round;stroke-miterlimit:10;stroke-dasharray:none;stroke-opacity:1"
         d="m 491.199,1005.7 0,-350.403 350.403,175.199 -350.403,175.204 z" /><path
         id="path16"
         style="fill:none;stroke:#000000;stroke-width:6.47399998;stroke-linecap:round;stroke-linejoin:round;stroke-miterlimit:10;stroke-dasharray:none;stroke-opacity:1"
         d="m 958,830.496 -116.398,0" /><path
         id="path18"
         style="fill:none;stroke:#000000;stroke-width:6.47399998;stroke-linecap:round;stroke-linejoin:round;stroke-miterlimit:10;stroke-dasharray:none;stroke-opacity:1"
         d="m 491.199,830.496 -116.398,0" /><path
         id="path20"
         style="fill:none;stroke:#000000;stroke-width:6.47399998;stroke-linecap:round;stroke-linejoin:miter;stroke-miterlimit:10;stroke-dasharray:none;stroke-opacity:1"
         d="m 226,544.898 58.8008,0 0,169.199 -58.8008,0 0,-169.199 z" /><path
         id="path22"
         style="fill:none;stroke:#000000;stroke-width:6.47399998;stroke-linecap:round;stroke-linejoin:round;stroke-miterlimit:10;stroke-dasharray:none;stroke-opacity:1"
         d="m 258.398,538.898 0,-57.601" /><path
         id="path24"
         style="fill:none;stroke:#000000;stroke-width:6.47399998;stroke-linecap:round;stroke-linejoin:round;stroke-miterlimit:10;stroke-dasharray:none;stroke-opacity:1"
         d="m 258.398,714.098 0,57.601" /><path
         id="path26"
         style="fill:none;stroke:#000000;stroke-width:6.47399998;stroke-linecap:round;stroke-linejoin:miter;stroke-miterlimit:10;stroke-dasharray:none;stroke-opacity:1"
         d="m 226,254.496 58.8008,0 0,168 -58.8008,0 0,-168 z" /><path
         id="path28"
         style="fill:none;stroke:#000000;stroke-width:6.47399998;stroke-linecap:round;stroke-linejoin:round;stroke-miterlimit:10;stroke-dasharray:none;stroke-opacity:1"
         d="m 258.398,247.297 0,-57.598" /><path
         id="path30"
         style="fill:none;stroke:#000000;stroke-width:6.47399998;stroke-linecap:round;stroke-linejoin:round;stroke-miterlimit:10;stroke-dasharray:none;stroke-opacity:1"
         d="m 258.398,422.496 0,58.801" /><path
         id="path32"
         style="fill:#ff0000;fill-opacity:1;fill-rule:evenodd;stroke:none"
         d="m 382,834.098 c 0,4.8 -4.801,9.601 -10.801,9.601 -4.801,0 -9.597,-4.801 -9.597,-9.601 0,-6 4.796,-9.602 10.796,-9.602 4.801,0 9.602,3.602 9.602,9.602" /><path
         id="path34"
         style="fill:none;stroke:#ff0000;stroke-width:6.47399998;stroke-linecap:round;stroke-linejoin:round;stroke-miterlimit:10;stroke-dasharray:none;stroke-opacity:1"
         d="m 382,834.098 c 0,4.8 -4.801,9.601 -10.801,9.601 -4.801,0 -9.597,-4.801 -9.597,-9.601 0,-6 4.796,-9.602 10.796,-9.602 4.801,0 9.602,3.602 9.602,9.602 z" /><path
         id="path36"
         style="fill:#ff0000;fill-opacity:1;fill-rule:evenodd;stroke:none"
         d="m 264.398,834.098 c 0,4.8 -3.597,9.601 -9.597,9.601 -4.801,0 -9.602,-4.801 -9.602,-9.601 0,-6 4.801,-9.602 9.602,-9.602 6,0 9.597,3.602 9.597,9.602" /><path
         id="path38"
         style="fill:none;stroke:#ff0000;stroke-width:6.47399998;stroke-linecap:round;stroke-linejoin:round;stroke-miterlimit:10;stroke-dasharray:none;stroke-opacity:1"
         d="m 264.398,834.098 c 0,4.8 -3.597,9.601 -9.597,9.601 -4.801,0 -9.602,-4.801 -9.602,-9.601 0,-6 4.801,-9.602 9.602,-9.602 6,0 9.597,3.602 9.597,9.602 z" /><path
         id="path40"
         style="fill:#ff0000;fill-opacity:1;fill-rule:evenodd;stroke:none"
         d="m 1198,834.098 c 0,4.8 -4.8,9.601 -9.6,9.601 -6,0 -10.8,-4.801 -10.8,-9.601 0,-6 4.8,-9.602 10.8,-9.602 4.8,0 9.6,3.602 9.6,9.602" /><path
         id="path42"
         style="fill:none;stroke:#ff0000;stroke-width:6.47399998;stroke-linecap:round;stroke-linejoin:round;stroke-miterlimit:10;stroke-dasharray:none;stroke-opacity:1"
         d="m 1198,834.098 c 0,4.8 -4.8,9.601 -9.6,9.601 -6,0 -10.8,-4.801 -10.8,-9.601 0,-6 4.8,-9.602 10.8,-9.602 4.8,0 9.6,3.602 9.6,9.602 z" /><path
         id="path44"
         style="fill:#ff0000;fill-opacity:1;fill-rule:evenodd;stroke:none"
         d="m 964,834.098 c 0,4.8 -3.602,9.601 -9.602,9.601 -4.796,0 -9.597,-4.801 -9.597,-9.601 0,-6 4.801,-9.602 9.597,-9.602 6,0 9.602,3.602 9.602,9.602" /><path
         id="path46"
         style="fill:none;stroke:#ff0000;stroke-width:6.47399998;stroke-linecap:round;stroke-linejoin:round;stroke-miterlimit:10;stroke-dasharray:none;stroke-opacity:1"
         d="m 964,834.098 c 0,4.8 -3.602,9.601 -9.602,9.601 -4.796,0 -9.597,-4.801 -9.597,-9.601 0,-6 4.801,-9.602 9.597,-9.602 6,0 9.602,3.602 9.602,9.602 z" /><path
         id="path48"
         style="fill:none;stroke:#000000;stroke-width:12.94799995;stroke-linecap:round;stroke-linejoin:round;stroke-miterlimit:10;stroke-dasharray:none;stroke-opacity:1"
         d="m 199.602,130.898 117.597,0" /><path
         id="path50"
         style="fill:none;stroke:#000000;stroke-width:6.47399998;stroke-linecap:round;stroke-linejoin:round;stroke-miterlimit:10;stroke-dasharray:none;stroke-opacity:1"
         d="m 258.398,130.898 0,58.801" /><path
         id="path52"
         style="fill:#ff0000;fill-opacity:1;fill-rule:evenodd;stroke:none"
         d="m 90.3984,834.098 c 0,4.8 -4.7968,9.601 -9.5976,9.601 -6,0 -9.6016,-4.801 -9.6016,-9.601 0,-6 3.6016,-9.602 9.6016,-9.602 4.8008,0 9.5976,3.602 9.5976,9.602" /><path
         id="path54"
         style="fill:none;stroke:#ff0000;stroke-width:6.47399998;stroke-linecap:round;stroke-linejoin:round;stroke-miterlimit:10;stroke-dasharray:none;stroke-opacity:1"
         d="m 90.3984,834.098 c 0,4.8 -4.7968,9.601 -9.5976,9.601 -6,0 -9.6016,-4.801 -9.6016,-9.601 0,-6 3.6016,-9.602 9.6016,-9.602 4.8008,0 9.5976,3.602 9.5976,9.602 z" /><path
         id="path56"
         style="fill:#ff0000;fill-opacity:1;fill-rule:evenodd;stroke:none"
         d="m 264.398,483.699 c 0,6 -3.597,9.598 -9.597,9.598 -4.801,0 -9.602,-3.598 -9.602,-9.598 0,-4.801 4.801,-9.601 9.602,-9.601 6,0 9.597,4.8 9.597,9.601" /><path
         id="path58"
         style="fill:none;stroke:#ff0000;stroke-width:6.47399998;stroke-linecap:round;stroke-linejoin:round;stroke-miterlimit:10;stroke-dasharray:none;stroke-opacity:1"
         d="m 264.398,483.699 c 0,6 -3.597,9.598 -9.597,9.598 -4.801,0 -9.602,-3.598 -9.602,-9.598 0,-4.801 4.801,-9.601 9.602,-9.601 6,0 9.597,4.8 9.597,9.601 z" /><path
         id="path60"
         style="fill:#ff0000;fill-opacity:1;fill-rule:evenodd;stroke:none"
         d="m 1080.4,834.098 c 0,4.8 -3.6,9.601 -9.6,9.601 -4.8,0 -9.6,-4.801 -9.6,-9.601 0,-6 4.8,-9.602 9.6,-9.602 6,0 9.6,3.602 9.6,9.602" /><path
         id="path62"
         style="fill:none;stroke:#ff0000;stroke-width:6.47399998;stroke-linecap:round;stroke-linejoin:round;stroke-miterlimit:10;stroke-dasharray:none;stroke-opacity:1"
         d="m 1080.4,834.098 c 0,4.8 -3.6,9.601 -9.6,9.601 -4.8,0 -9.6,-4.801 -9.6,-9.601 0,-6 4.8,-9.602 9.6,-9.602 6,0 9.6,3.602 9.6,9.602 z" /><g
         transform="scale(10,10)"
         id="g64"><text
           id="text66"
           style="font-variant:normal;font-weight:normal;font-size:7.12405872px;font-family:'Helvetica LT Std';-inkscape-font-specification:Helvetica;writing-mode:lr-tb;fill:#000000;fill-opacity:1;fill-rule:nonzero;stroke:none"
           transform="matrix(1.00007,0,0,-1,10.3602,63.0098)"><tspan
             id="tspan68"
             y="0"
             x="0 4.5600119">R9</tspan><tspan
             id="tspan70"
             y="29.162241"
             x="-1.9203144 2.6396973 6.4797082">R10</tspan><tspan
             id="tspan72"
             y="-17.521126"
             x="44.639946 49.91996">Au</tspan><tspan
             id="tspan74"
             y="-23.281691"
             x="-8.4000683 -3.2400539 0.59995621">Vb5</tspan></text>
</g><g
         id="g76"><g
           clip-path="url(#clipPath80)"
           id="g78"><g
             transform="scale(10,10)"
             id="g84"><text
               id="text86"
               style="font-variant:normal;font-weight:normal;font-size:7.12405872px;font-family:'Helvetica LT Std';-inkscape-font-specification:Helvetica;writing-mode:lr-tb;fill:#000000;fill-opacity:1;fill-rule:nonzero;stroke:none"
               transform="matrix(1.00007,0,0,-1,91.3602,86.2898)"><tspan
                 id="tspan88"
                 y="0"
                 x="0 5.1597805 9.0000229 10.919951 14.87973 16.800051 21.959829 25.920002 27.83993 29.759859 31.679789 36.839958 40.800129">Vo = Au · Vb5</tspan></text>
</g></g></g><path
         id="path90"
         style="fill:none;stroke:#000000;stroke-width:6.47399998;stroke-linecap:round;stroke-linejoin:round;stroke-miterlimit:10;stroke-dasharray:none;stroke-opacity:1"
         d="m 317.199,714.098 0,-116.399" /><path
         id="path92"
         style="fill:none;stroke:#000000;stroke-width:6.47399998;stroke-linecap:round;stroke-linejoin:round;stroke-miterlimit:10;stroke-dasharray:none;stroke-opacity:1"
         d="m 317.199,597.699 -20.398,44.399 39.597,0 -19.199,-44.399 z" /><g
         transform="scale(10,10)"
         id="g94"><text
           id="text96"
           style="font-variant:normal;font-weight:normal;font-size:7.12405872px;font-family:'Helvetica LT Std';-inkscape-font-specification:Helvetica;writing-mode:lr-tb;fill:#000000;fill-opacity:1;fill-rule:nonzero;stroke:none"
           transform="matrix(1.00007,0,0,-1,27.1602,74.6496)"><tspan
             id="tspan98"
             y="0"
             x="0 1.320004">I9</tspan></text>
</g><path
         id="path100"
         style="fill:none;stroke:#ff0000;stroke-width:6.47399998;stroke-linecap:round;stroke-linejoin:round;stroke-miterlimit:10;stroke-dasharray:none;stroke-opacity:1"
         d="m 258.398,771.699 0,58.797" /><path
         id="path102"
         style="fill:none;stroke:#ff0000;stroke-width:6.47399998;stroke-linecap:round;stroke-linejoin:round;stroke-miterlimit:10;stroke-dasharray:none;stroke-opacity:1"
         d="m 258.398,830.496 116.403,0" /><path
         id="path104"
         style="fill:none;stroke:#ff0000;stroke-width:6.47399998;stroke-linecap:round;stroke-linejoin:round;stroke-miterlimit:10;stroke-dasharray:none;stroke-opacity:1"
         d="m 83.1992,830.496 175.1988,0" /><path
         id="path106"
         style="fill:none;stroke:#ff0000;stroke-width:6.47399998;stroke-linecap:round;stroke-linejoin:round;stroke-miterlimit:10;stroke-dasharray:none;stroke-opacity:1"
         d="m 258.398,481.297 0,0" /><path
         id="path108"
         style="fill:none;stroke:#ff0000;stroke-width:6.47399998;stroke-linecap:round;stroke-linejoin:round;stroke-miterlimit:10;stroke-dasharray:none;stroke-opacity:1"
         d="m 258.398,481.297 0,0" /><path
         id="path110"
         style="fill:none;stroke:#ff0000;stroke-width:6.47399998;stroke-linecap:round;stroke-linejoin:round;stroke-miterlimit:10;stroke-dasharray:none;stroke-opacity:1"
         d="m 958,830.496 116.4,0" /><path
         id="path112"
         style="fill:none;stroke:#ff0000;stroke-width:6.47399998;stroke-linecap:round;stroke-linejoin:round;stroke-miterlimit:10;stroke-dasharray:none;stroke-opacity:1"
         d="m 1074.4,830.496 116.4,0" /><path
         id="path114"
         style="fill:none;stroke:#ff0000;stroke-width:6.47399998;stroke-linecap:round;stroke-linejoin:round;stroke-miterlimit:10;stroke-dasharray:none;stroke-opacity:1"
         d="m 258.398,481.297 816.002,0 0,349.199" /></g></g></svg>