<?xml version="1.0" encoding="UTF-8" standalone="no"?>
<svg
   xmlns:dc="http://purl.org/dc/elements/1.1/"
   xmlns:cc="http://creativecommons.org/ns#"
   xmlns:rdf="http://www.w3.org/1999/02/22-rdf-syntax-ns#"
   xmlns:svg="http://www.w3.org/2000/svg"
   xmlns="http://www.w3.org/2000/svg"
   viewBox="0 0 93.75 61.25"
   height="61.25"
   width="93.75"
   xml:space="preserve"
   version="1.1"
   id="svg2"><metadata
     id="metadata8"><rdf:RDF><cc:Work
         rdf:about=""><dc:format>image/svg+xml</dc:format><dc:type
           rdf:resource="http://purl.org/dc/dcmitype/StillImage" /></cc:Work></rdf:RDF></metadata><defs
     id="defs6" /><g
     transform="matrix(1.25,0,0,-1.25,0,61.25)"
     id="g10"><g
       transform="scale(0.1,0.1)"
       id="g12"><path
         id="path14"
         style="fill:none;stroke:#000000;stroke-width:6.4776001;stroke-linecap:round;stroke-linejoin:round;stroke-miterlimit:10;stroke-dasharray:none;stroke-opacity:1"
         d="m 206.801,481.289 0,-350.402 L 556,306.09 206.801,481.289 Z" /><path
         id="path16"
         style="fill:none;stroke:#000000;stroke-width:6.4776001;stroke-linecap:round;stroke-linejoin:round;stroke-miterlimit:10;stroke-dasharray:none;stroke-opacity:1"
         d="m 264.398,208.887 -38.398,0" /><path
         id="path18"
         style="fill:none;stroke:#000000;stroke-width:6.4776001;stroke-linecap:round;stroke-linejoin:round;stroke-miterlimit:10;stroke-dasharray:none;stroke-opacity:1"
         d="m 226,403.289 38.398,0" /><path
         id="path20"
         style="fill:none;stroke:#000000;stroke-width:6.4776001;stroke-linecap:round;stroke-linejoin:round;stroke-miterlimit:10;stroke-dasharray:none;stroke-opacity:1"
         d="m 245.199,422.488 0,-38.398" /><path
         id="path22"
         style="fill:none;stroke:#000000;stroke-width:6.4776001;stroke-linecap:round;stroke-linejoin:round;stroke-miterlimit:10;stroke-dasharray:none;stroke-opacity:1"
         d="m 206.801,422.488 -116.4026,0" /><path
         id="path24"
         style="fill:none;stroke:#000000;stroke-width:6.4776001;stroke-linecap:round;stroke-linejoin:round;stroke-miterlimit:10;stroke-dasharray:none;stroke-opacity:1"
         d="m 206.801,189.688 -116.4026,0" /><path
         id="path26"
         style="fill:none;stroke:#000000;stroke-width:6.4776001;stroke-linecap:round;stroke-linejoin:round;stroke-miterlimit:10;stroke-dasharray:none;stroke-opacity:1"
         d="m 556,306.09 117.602,0" /><path
         id="path28"
         style="fill:none;stroke:#000000;stroke-width:12.9552002;stroke-linecap:round;stroke-linejoin:round;stroke-miterlimit:10;stroke-dasharray:none;stroke-opacity:1"
         d="m 31.6016,130.887 116.3984,0" /><path
         id="path30"
         style="fill:none;stroke:#000000;stroke-width:6.4776001;stroke-linecap:round;stroke-linejoin:round;stroke-miterlimit:10;stroke-dasharray:none;stroke-opacity:1"
         d="m 90.3984,130.887 0,58.801" /><path
         id="path32"
         style="fill:#ff0000;fill-opacity:1;fill-rule:evenodd;stroke:none"
         d="m 38.8008,426.09 c 0,4.797 -4.8008,9.598 -10.8008,9.598 -4.8008,0 -9.6016,-4.801 -9.6016,-9.598 0,-6 4.8008,-9.602 9.6016,-9.602 6,0 10.8008,3.602 10.8008,9.602" /><path
         id="path34"
         style="fill:none;stroke:#ff0000;stroke-width:6.4776001;stroke-linecap:round;stroke-linejoin:round;stroke-miterlimit:10;stroke-dasharray:none;stroke-opacity:1"
         d="m 38.8008,426.09 c 0,4.797 -4.8008,9.598 -10.8008,9.598 -4.8008,0 -9.6016,-4.801 -9.6016,-9.598 0,-6 4.8008,-9.602 9.6016,-9.602 6,0 10.8008,3.602 10.8008,9.602 z" /><path
         id="path36"
         style="fill:#ff0000;fill-opacity:1;fill-rule:evenodd;stroke:none"
         d="m 738.398,309.688 c 0,4.8 -4.796,9.601 -10.796,9.601 -4.801,0 -9.602,-4.801 -9.602,-9.601 0,-6 4.801,-10.801 10.801,-10.801 4.801,0 9.597,4.801 9.597,10.801" /><path
         id="path38"
         style="fill:none;stroke:#ff0000;stroke-width:6.4776001;stroke-linecap:round;stroke-linejoin:round;stroke-miterlimit:10;stroke-dasharray:none;stroke-opacity:1"
         d="m 738.398,309.688 c 0,4.8 -4.796,9.601 -10.796,9.601 -4.801,0 -9.602,-4.801 -9.602,-9.601 0,-6 4.801,-10.801 10.801,-10.801 4.801,0 9.597,4.801 9.597,10.801 z" /><path
         id="path40"
         style="fill:none;stroke:#ff0000;stroke-width:6.4776001;stroke-linecap:round;stroke-linejoin:round;stroke-miterlimit:10;stroke-dasharray:none;stroke-opacity:1"
         d="m 90.3984,189.688 0,0" /><path
         id="path42"
         style="fill:none;stroke:#ff0000;stroke-width:6.4776001;stroke-linecap:round;stroke-linejoin:round;stroke-miterlimit:10;stroke-dasharray:none;stroke-opacity:1"
         d="m 90.3984,422.488 -58.7968,0" /><path
         id="path44"
         style="fill:none;stroke:#ff0000;stroke-width:6.4776001;stroke-linecap:round;stroke-linejoin:round;stroke-miterlimit:10;stroke-dasharray:none;stroke-opacity:1"
         d="m 731.199,306.09 -57.597,0" /></g></g></svg>