<?xml version="1.0" encoding="UTF-8" standalone="no"?>
<svg
   xmlns:dc="http://purl.org/dc/elements/1.1/"
   xmlns:cc="http://creativecommons.org/ns#"
   xmlns:rdf="http://www.w3.org/1999/02/22-rdf-syntax-ns#"
   xmlns:svg="http://www.w3.org/2000/svg"
   xmlns="http://www.w3.org/2000/svg"
   viewBox="0 0 538.75 88.75"
   height="88.75"
   width="538.75"
   xml:space="preserve"
   version="1.1"
   id="svg2"><metadata
     id="metadata8"><rdf:RDF><cc:Work
         rdf:about=""><dc:format>image/svg+xml</dc:format><dc:type
           rdf:resource="http://purl.org/dc/dcmitype/StillImage" /></cc:Work></rdf:RDF></metadata><defs
     id="defs6"><clipPath
       id="clipPath16"
       clipPathUnits="userSpaceOnUse"><path
         style="clip-rule:evenodd"
         id="path18"
         d="m 0,-0.2 430.9,0 0,71.2 L 0,71 0,-0.2 Z" /></clipPath><clipPath
       id="clipPath24"
       clipPathUnits="userSpaceOnUse"><path
         style="clip-rule:evenodd"
         id="path26"
         d="M 2.8,2 428,2 428,66.6 2.8,66.6 2.8,2 Z" /></clipPath></defs><g
     transform="matrix(1.25,0,0,-1.25,0,88.75)"
     id="g10"><g
       id="g12"><g
         clip-path="url(#clipPath16)"
         id="g14" /></g><g
       id="g20"><g
         clip-path="url(#clipPath24)"
         id="g22"><path
           id="path28"
           style="fill:#ffffff;fill-opacity:1;fill-rule:evenodd;stroke:none"
           d="m 226,2.6 62.3,0 0,21.2 -62.3,0 0,-21.2 z" /><g
           id="g30"><path
             id="path32"
             style="fill:none;stroke:#000000;stroke-width:1;stroke-linecap:butt;stroke-linejoin:miter;stroke-miterlimit:10;stroke-dasharray:none;stroke-opacity:1"
             d="m 226,23.8 62.2,0 0,-21.2 -62.2,0 0,21.2 z" /></g><g
           id="g34"><text
             id="text36"
             style="font-variant:normal;font-weight:normal;font-size:8.50960541px;font-family:Arial;-inkscape-font-specification:ArialMT;writing-mode:lr-tb;fill:#000000;fill-opacity:1;fill-rule:nonzero;stroke:none"
             transform="matrix(1,0,0,-0.99887128,231.8,10.3)"><tspan
               id="tspan38"
               y="0"
               x="0 5.1908588">Ti</tspan></text>
<text
             id="text40"
             style="font-variant:normal;font-weight:normal;font-size:8.50960541px;font-family:Arial;-inkscape-font-specification:ArialMT;writing-mode:lr-tb;fill:#000000;fill-opacity:1;fill-rule:nonzero;stroke:none"
             transform="matrix(1,0,0,-0.99887128,238.9,10.3)"><tspan
               id="tspan42"
               y="0"
               x="0 1.8891323">lb</tspan></text>
<text
             id="text44"
             style="font-variant:normal;font-weight:normal;font-size:8.50960541px;font-family:Arial;-inkscape-font-specification:ArialMT;writing-mode:lr-tb;fill:#000000;fill-opacity:1;fill-rule:nonzero;stroke:none"
             transform="matrix(1,0,0,-0.99887128,245.5,10.3)"><tspan
               id="tspan46"
               y="0"
               x="0">a</tspan></text>
<text
             id="text48"
             style="font-variant:normal;font-weight:normal;font-size:8.50960541px;font-family:Arial;-inkscape-font-specification:ArialMT;writing-mode:lr-tb;fill:#000000;fill-opacity:1;fill-rule:nonzero;stroke:none"
             transform="matrix(1,0,0,-0.99887128,250.2,10.3)"><tspan
               id="tspan50"
               y="0"
               x="0">k</tspan></text>
<text
             id="text52"
             style="font-variant:normal;font-weight:normal;font-size:8.50960541px;font-family:Arial;-inkscape-font-specification:ArialMT;writing-mode:lr-tb;fill:#000000;fill-opacity:1;fill-rule:nonzero;stroke:none"
             transform="matrix(1,0,0,-0.99887128,254.4,10.3)"><tspan
               id="tspan54"
               y="0"
               x="0">e</tspan></text>
<text
             id="text56"
             style="font-variant:normal;font-weight:normal;font-size:8.50960541px;font-family:Arial;-inkscape-font-specification:ArialMT;writing-mode:lr-tb;fill:#000000;fill-opacity:1;fill-rule:nonzero;stroke:none"
             transform="matrix(1,0,0,-0.99887128,259.1,10.3)"><tspan
               id="tspan58"
               y="0"
               x="0">k</tspan></text>
<text
             id="text60"
             style="font-variant:normal;font-weight:normal;font-size:8.50960541px;font-family:Arial;-inkscape-font-specification:ArialMT;writing-mode:lr-tb;fill:#000000;fill-opacity:1;fill-rule:nonzero;stroke:none"
             transform="matrix(1,0,0,-0.99887128,263.4,10.3)"><tspan
               id="tspan62"
               y="0"
               x="0">o</tspan></text>
<text
             id="text64"
             style="font-variant:normal;font-weight:normal;font-size:8.50960541px;font-family:Arial;-inkscape-font-specification:ArialMT;writing-mode:lr-tb;fill:#000000;fill-opacity:1;fill-rule:nonzero;stroke:none"
             transform="matrix(1,0,0,-0.99887128,268.1,10.3)"><tspan
               id="tspan66"
               y="0"
               x="0">b</tspan></text>
<text
             id="text68"
             style="font-variant:normal;font-weight:normal;font-size:8.50960541px;font-family:Arial;-inkscape-font-specification:ArialMT;writing-mode:lr-tb;fill:#000000;fill-opacity:1;fill-rule:nonzero;stroke:none"
             transform="matrix(1,0,0,-0.99887128,272.8,10.3)"><tspan
               id="tspan70"
               y="0"
               x="0 1.8891323">li</tspan></text>
<text
             id="text72"
             style="font-variant:normal;font-weight:normal;font-size:8.50960541px;font-family:Arial;-inkscape-font-specification:ArialMT;writing-mode:lr-tb;fill:#000000;fill-opacity:1;fill-rule:nonzero;stroke:none"
             transform="matrix(1,0,0,-0.99887128,276.6,10.3)"><tspan
               id="tspan74"
               y="0"
               x="0">n</tspan></text>
<text
             id="text76"
             style="font-variant:normal;font-weight:normal;font-size:8.50960541px;font-family:Arial;-inkscape-font-specification:ArialMT;writing-mode:lr-tb;fill:#000000;fill-opacity:1;fill-rule:nonzero;stroke:none"
             transform="matrix(1,0,0,-0.99887128,281.3,10.3)"><tspan
               id="tspan78"
               y="0"
               x="0">g</tspan></text>
</g><path
           id="path80"
           style="fill:#ffffff;fill-opacity:1;fill-rule:evenodd;stroke:none"
           d="m 141.4,66.1 c 6,0 10.9,-4.8 10.9,-10.8 0,-6 -4.9,-10.9 -10.9,-10.9 -6,0 -10.9,4.9 -10.9,10.9 0,6 4.9,10.8 10.9,10.8" /><g
           id="g82"><path
             id="path84"
             style="fill:none;stroke:#000000;stroke-width:1;stroke-linecap:butt;stroke-linejoin:miter;stroke-miterlimit:10;stroke-dasharray:none;stroke-opacity:1"
             d="m 152.3,55.3 0,0.3 0,0.2 -0.1,0.3 0,0.3 0,0.2 -0.1,0.3 0,0.3 0,0.2 -0.1,0.3 -0.1,0.3 0,0.2 -0.1,0.3 -0.1,0.2 -0.1,0.3 -0.1,0.3 -0.1,0.2 -0.1,0.3 -0.1,0.2 -0.1,0.2 -0.2,0.3 -0.1,0.2 -0.1,0.3 -0.2,0.2 -0.1,0.2 -0.2,0.2 -0.1,0.2 -0.2,0.3 -0.2,0.2 -0.2,0.2 -0.1,0.2 -0.2,0.2 -0.2,0.2 -0.2,0.1 -0.2,0.2 -0.2,0.2 -0.2,0.2 -0.2,0.1 -0.3,0.2 -0.2,0.2 -0.2,0.1 -0.2,0.2 -0.3,0.1 -0.2,0.1 -0.2,0.2 -0.3,0.1 -0.2,0.1 -0.3,0.1 -0.2,0.1 -0.3,0.1 -0.2,0.1 -0.3,0.1 -0.3,0 -0.2,0.1 -0.3,0.1 -0.2,0 -0.3,0.1 -0.3,0 -0.2,0.1 -0.3,0 -0.3,0 -0.3,0 -0.2,0 -0.3,0 0,0 -0.3,0 -0.2,0 -0.3,0 -0.3,0 -0.3,0 -0.2,-0.1 -0.3,0 -0.3,-0.1 -0.2,0 -0.3,-0.1 -0.2,-0.1 -0.3,0 -0.3,-0.1 -0.2,-0.1 -0.3,-0.1 -0.2,-0.1 -0.3,-0.1 -0.2,-0.1 -0.3,-0.1 -0.2,-0.2 -0.2,-0.1 -0.3,-0.1 -0.2,-0.2 -0.2,-0.1 -0.2,-0.2 -0.3,-0.2 -0.2,-0.1 -0.2,-0.2 -0.2,-0.2 -0.2,-0.2 -0.2,-0.1 -0.2,-0.2 -0.2,-0.2 -0.1,-0.2 -0.2,-0.2 -0.2,-0.2 -0.2,-0.3 -0.1,-0.2 -0.2,-0.2 -0.1,-0.2 -0.2,-0.2 -0.1,-0.3 -0.1,-0.2 -0.2,-0.3 -0.1,-0.2 -0.1,-0.2 -0.1,-0.3 -0.1,-0.2 -0.1,-0.3 -0.1,-0.3 -0.1,-0.2 -0.1,-0.3 0,-0.2 -0.1,-0.3 -0.1,-0.3 0,-0.2 0,-0.3 -0.1,-0.3 0,-0.2 0,-0.3 -0.1,-0.3 0,-0.2 0,-0.3 0,0 0,-0.3 0,-0.3 0.1,-0.2 0,-0.3 0,-0.3 0.1,-0.2 0,-0.3 0,-0.3 0.1,-0.2 0.1,-0.3 0,-0.3 0.1,-0.2 0.1,-0.3 0.1,-0.2 0.1,-0.3 0.1,-0.2 0.1,-0.3 0.1,-0.2 0.1,-0.3 0.2,-0.2 0.1,-0.2 0.1,-0.3 0.2,-0.2 0.1,-0.2 0.2,-0.2 0.1,-0.3 0.2,-0.2 0.2,-0.2 0.2,-0.2 0.1,-0.2 0.2,-0.2 0.2,-0.2 0.2,-0.2 0.2,-0.1 0.2,-0.2 0.2,-0.2 0.2,-0.2 0.3,-0.1 0.2,-0.2 0.2,-0.1 0.2,-0.2 0.3,-0.1 0.2,-0.1 0.2,-0.2 0.3,-0.1 0.2,-0.1 0.3,-0.1 0.2,-0.1 0.3,-0.1 0.2,-0.1 0.3,-0.1 0.3,-0.1 0.2,0 0.3,-0.1 0.2,-0.1 0.3,0 0.3,0 0.2,-0.1 0.3,0 0.3,0 0.3,-0.1 0.2,0 0.3,0 0,0 0.3,0 0.2,0 0.3,0.1 0.3,0 0.3,0 0.2,0.1 0.3,0 0.3,0 0.2,0.1 0.3,0.1 0.2,0 0.3,0.1 0.3,0.1 0.2,0.1 0.3,0.1 0.2,0.1 0.3,0.1 0.2,0.1 0.3,0.1 0.2,0.2 0.2,0.1 0.3,0.1 0.2,0.2 0.2,0.1 0.2,0.2 0.3,0.1 0.2,0.2 0.2,0.2 0.2,0.2 0.2,0.1 0.2,0.2 0.2,0.2 0.2,0.2 0.1,0.2 0.2,0.2 0.2,0.2 0.2,0.2 0.1,0.3 0.2,0.2 0.1,0.2 0.2,0.2 0.1,0.3 0.1,0.2 0.2,0.2 0.1,0.3 0.1,0.2 0.1,0.3 0.1,0.2 0.1,0.3 0.1,0.2 0.1,0.3 0.1,0.2 0,0.3 0.1,0.3 0.1,0.2 0,0.3 0,0.3 0.1,0.2 0,0.3 0,0.3 0.1,0.2 0,0.3 0,0.3 z" /></g><g
           id="g86"><text
             id="text88"
             style="font-variant:normal;font-weight:normal;font-size:8.50960541px;font-family:Arial;-inkscape-font-specification:ArialMT;writing-mode:lr-tb;fill:#000000;fill-opacity:1;fill-rule:nonzero;stroke:none"
             transform="matrix(1,0,0,-0.99887128,138.6,52.3)"><tspan
               id="tspan90"
               y="0"
               x="0">∑</tspan></text>
</g><g
           id="g92"><path
             id="path94"
             style="fill:none;stroke:#000000;stroke-width:1;stroke-linecap:butt;stroke-linejoin:miter;stroke-miterlimit:10;stroke-dasharray:none;stroke-opacity:1"
             d="m 35.7,55.6 26.1,0" /></g><path
           id="path96"
           style="fill:#000000;fill-opacity:1;fill-rule:evenodd;stroke:none"
           d="m 65.8,55.6 -5.4,-2.7 1.4,2.7 -1.4,2.6 5.4,-2.6 z" /><g
           id="g98"><path
             id="path100"
             style="fill:none;stroke:#000000;stroke-width:1;stroke-linecap:butt;stroke-linejoin:miter;stroke-miterlimit:10;stroke-dasharray:none;stroke-opacity:1"
             d="m 65.8,55.6 -5.4,-2.7 1.4,2.7 -1.4,2.6 5.4,-2.6 z" /></g><g
           id="g102"><path
             id="path104"
             style="fill:none;stroke:#000000;stroke-width:1;stroke-linecap:butt;stroke-linejoin:miter;stroke-miterlimit:10;stroke-dasharray:none;stroke-opacity:1"
             d="m 226,55.6 16,0" /></g><path
           id="path106"
           style="fill:#000000;fill-opacity:1;fill-rule:evenodd;stroke:none"
           d="m 246,55.6 -5.3,-2.7 1.3,2.7 -1.3,2.6 5.3,-2.6 z" /><g
           id="g108"><path
             id="path110"
             style="fill:none;stroke:#000000;stroke-width:1;stroke-linecap:butt;stroke-linejoin:miter;stroke-miterlimit:10;stroke-dasharray:none;stroke-opacity:1"
             d="m 246,55.6 -5.3,-2.7 1.3,2.7 -1.3,2.6 5.3,-2.6 z" /></g><g
           id="g112"><path
             id="path114"
             style="fill:none;stroke:#000000;stroke-width:1;stroke-linecap:butt;stroke-linejoin:miter;stroke-miterlimit:10;stroke-dasharray:none;stroke-opacity:1"
             d="m 289.6,55.6 16,0" /></g><path
           id="path116"
           style="fill:#000000;fill-opacity:1;fill-rule:evenodd;stroke:none"
           d="m 309.6,55.6 -5.3,-2.7 1.3,2.7 -1.3,2.6 5.3,-2.6 z" /><g
           id="g118"><path
             id="path120"
             style="fill:none;stroke:#000000;stroke-width:1;stroke-linecap:butt;stroke-linejoin:miter;stroke-miterlimit:10;stroke-dasharray:none;stroke-opacity:1"
             d="m 309.6,55.6 -5.3,-2.7 1.3,2.7 -1.3,2.6 5.3,-2.6 z" /></g><path
           id="path122"
           style="fill:#ffffff;fill-opacity:1;fill-rule:evenodd;stroke:none"
           d="m 66.9,45 42.4,0 0,21.2 -42.4,0 0,-21.2 z" /><g
           id="g124"><path
             id="path126"
             style="fill:none;stroke:#000000;stroke-width:1;stroke-linecap:butt;stroke-linejoin:miter;stroke-miterlimit:10;stroke-dasharray:none;stroke-opacity:1"
             d="m 66.9,66.1 42.4,0 0,-21.1 -42.4,0 0,21.1 z" /></g><g
           id="g128"><text
             id="text130"
             style="font-variant:normal;font-weight:normal;font-size:8.50960541px;font-family:Arial;-inkscape-font-specification:ArialMT;writing-mode:lr-tb;fill:#000000;fill-opacity:1;fill-rule:nonzero;stroke:none"
             transform="matrix(1,0,0,-0.99887128,73.8,52.6)"><tspan
               id="tspan132"
               y="0"
               x="0">I</tspan></text>
<text
             id="text134"
             style="font-variant:normal;font-weight:normal;font-size:8.50960541px;font-family:Arial;-inkscape-font-specification:ArialMT;writing-mode:lr-tb;fill:#000000;fill-opacity:1;fill-rule:nonzero;stroke:none"
             transform="matrix(1,0,0,-0.99887128,76.2,52.6)"><tspan
               id="tspan136"
               y="0"
               x="0">n</tspan></text>
<text
             id="text138"
             style="font-variant:normal;font-weight:normal;font-size:8.50960541px;font-family:Arial;-inkscape-font-specification:ArialMT;writing-mode:lr-tb;fill:#000000;fill-opacity:1;fill-rule:nonzero;stroke:none"
             transform="matrix(1,0,0,-0.99887128,80.9,52.6)"><tspan
               id="tspan140"
               y="0"
               x="0">n</tspan></text>
<text
             id="text142"
             style="font-variant:normal;font-weight:normal;font-size:8.50960541px;font-family:Arial;-inkscape-font-specification:ArialMT;writing-mode:lr-tb;fill:#000000;fill-opacity:1;fill-rule:nonzero;stroke:none"
             transform="matrix(1,0,0,-0.99887128,85.6,52.6)"><tspan
               id="tspan144"
               y="0"
               x="0">g</tspan></text>
<text
             id="text146"
             style="font-variant:normal;font-weight:normal;font-size:8.50960541px;font-family:Arial;-inkscape-font-specification:ArialMT;writing-mode:lr-tb;fill:#000000;fill-opacity:1;fill-rule:nonzero;stroke:none"
             transform="matrix(1,0,0,-0.99887128,90.3,52.6)"><tspan
               id="tspan148"
               y="0"
               x="0">a</tspan></text>
<text
             id="text150"
             style="font-variant:normal;font-weight:normal;font-size:8.50960541px;font-family:Arial;-inkscape-font-specification:ArialMT;writing-mode:lr-tb;fill:#000000;fill-opacity:1;fill-rule:nonzero;stroke:none"
             transform="matrix(1,0,0,-0.99887128,95,52.6)"><tspan
               id="tspan152"
               y="0"
               x="0">n</tspan></text>
<text
             id="text154"
             style="font-variant:normal;font-weight:normal;font-size:8.50960541px;font-family:Arial;-inkscape-font-specification:ArialMT;writing-mode:lr-tb;fill:#000000;fill-opacity:1;fill-rule:nonzero;stroke:none"
             transform="matrix(1,0,0,-0.99887128,99.7,52.6)"><tspan
               id="tspan156"
               y="0"
               x="0">g</tspan></text>
</g><path
           id="path158"
           style="fill:#ffffff;fill-opacity:1;fill-rule:evenodd;stroke:none"
           d="m 172.9,45 53,0 0,21.2 -53,0 0,-21.2 z" /><g
           id="g160"><path
             id="path162"
             style="fill:none;stroke:#000000;stroke-width:1;stroke-linecap:butt;stroke-linejoin:miter;stroke-miterlimit:10;stroke-dasharray:none;stroke-opacity:1"
             d="m 172.9,66.1 53,0 0,-21.1 -53,0 0,21.1 z" /></g><g
           id="g164"><text
             id="text166"
             style="font-variant:normal;font-weight:normal;font-size:8.50960541px;font-family:Arial;-inkscape-font-specification:ArialMT;writing-mode:lr-tb;fill:#000000;fill-opacity:1;fill-rule:nonzero;stroke:none"
             transform="matrix(1,0,0,-0.99887128,178.3,56.8)"><tspan
               id="tspan168"
               y="0"
               x="0">D</tspan></text>
<text
             id="text170"
             style="font-variant:normal;font-weight:normal;font-size:8.50960541px;font-family:Arial;-inkscape-font-specification:ArialMT;writing-mode:lr-tb;fill:#000000;fill-opacity:1;fill-rule:nonzero;stroke:none"
             transform="matrix(1,0,0,-0.99887128,184.4,56.8)"><tspan
               id="tspan172"
               y="0"
               x="0">i</tspan></text>
<text
             id="text174"
             style="font-variant:normal;font-weight:normal;font-size:8.50960541px;font-family:Arial;-inkscape-font-specification:ArialMT;writing-mode:lr-tb;fill:#000000;fill-opacity:1;fill-rule:nonzero;stroke:none"
             transform="matrix(1,0,0,-0.99887128,186.3,56.8)"><tspan
               id="tspan176"
               y="0"
               x="0">f</tspan></text>
<text
             id="text178"
             style="font-variant:normal;font-weight:normal;font-size:8.50960541px;font-family:Arial;-inkscape-font-specification:ArialMT;writing-mode:lr-tb;fill:#000000;fill-opacity:1;fill-rule:nonzero;stroke:none"
             transform="matrix(1,0,0,-0.99887128,188.7,56.8)"><tspan
               id="tspan180"
               y="0"
               x="0 2.3571606">fe</tspan></text>
<text
             id="text182"
             style="font-variant:normal;font-weight:normal;font-size:8.50960541px;font-family:Arial;-inkscape-font-specification:ArialMT;writing-mode:lr-tb;fill:#000000;fill-opacity:1;fill-rule:nonzero;stroke:none"
             transform="matrix(1,0,0,-0.99887128,195.8,56.8)"><tspan
               id="tspan184"
               y="0"
               x="0">r</tspan></text>
<text
             id="text186"
             style="font-variant:normal;font-weight:normal;font-size:8.50960541px;font-family:Arial;-inkscape-font-specification:ArialMT;writing-mode:lr-tb;fill:#000000;fill-opacity:1;fill-rule:nonzero;stroke:none"
             transform="matrix(1,0,0,-0.99887128,198.6,56.8)"><tspan
               id="tspan188"
               y="0"
               x="0">e</tspan></text>
<text
             id="text190"
             style="font-variant:normal;font-weight:normal;font-size:8.50960541px;font-family:Arial;-inkscape-font-specification:ArialMT;writing-mode:lr-tb;fill:#000000;fill-opacity:1;fill-rule:nonzero;stroke:none"
             transform="matrix(1,0,0,-0.99887128,203.3,56.8)"><tspan
               id="tspan192"
               y="0"
               x="0">n</tspan></text>
<text
             id="text194"
             style="font-variant:normal;font-weight:normal;font-size:8.50960541px;font-family:Arial;-inkscape-font-specification:ArialMT;writing-mode:lr-tb;fill:#000000;fill-opacity:1;fill-rule:nonzero;stroke:none"
             transform="matrix(1,0,0,-0.99887128,208,56.8)"><tspan
               id="tspan196"
               y="0"
               x="0">s</tspan></text>
<text
             id="text198"
             style="font-variant:normal;font-weight:normal;font-size:8.50960541px;font-family:Arial;-inkscape-font-specification:ArialMT;writing-mode:lr-tb;fill:#000000;fill-opacity:1;fill-rule:nonzero;stroke:none"
             transform="matrix(1,0,0,-0.99887128,212.2,56.8)"><tspan
               id="tspan200"
               y="0"
               x="0 1.8891323">ia</tspan></text>
<text
             id="text202"
             style="font-variant:normal;font-weight:normal;font-size:8.50960541px;font-family:Arial;-inkscape-font-specification:ArialMT;writing-mode:lr-tb;fill:#000000;fill-opacity:1;fill-rule:nonzero;stroke:none"
             transform="matrix(1,0,0,-0.99887128,218.8,56.8)"><tspan
               id="tspan204"
               y="0"
               x="0 1.8891323">l-</tspan></text>
</g><g
           id="g206"><text
             id="text208"
             style="font-variant:normal;font-weight:normal;font-size:8.50960541px;font-family:Arial;-inkscape-font-specification:ArialMT;writing-mode:lr-tb;fill:#000000;fill-opacity:1;fill-rule:nonzero;stroke:none"
             transform="matrix(1,0,0,-0.99887128,182.7,48.4)"><tspan
               id="tspan210"
               y="0"
               x="0">f</tspan></text>
<text
             id="text212"
             style="font-variant:normal;font-weight:normal;font-size:8.50960541px;font-family:Arial;-inkscape-font-specification:ArialMT;writing-mode:lr-tb;fill:#000000;fill-opacity:1;fill-rule:nonzero;stroke:none"
             transform="matrix(1,0,0,-0.99887128,185.1,48.4)"><tspan
               id="tspan214"
               y="0"
               x="0">o</tspan></text>
<text
             id="text216"
             style="font-variant:normal;font-weight:normal;font-size:8.50960541px;font-family:Arial;-inkscape-font-specification:ArialMT;writing-mode:lr-tb;fill:#000000;fill-opacity:1;fill-rule:nonzero;stroke:none"
             transform="matrix(1,0,0,-0.99887128,189.8,48.4)"><tspan
               id="tspan218"
               y="0"
               x="0">r</tspan></text>
<text
             id="text220"
             style="font-variant:normal;font-weight:normal;font-size:8.50960541px;font-family:Arial;-inkscape-font-specification:ArialMT;writing-mode:lr-tb;fill:#000000;fill-opacity:1;fill-rule:nonzero;stroke:none"
             transform="matrix(1,0,0,-0.99887128,192.6,48.4)"><tspan
               id="tspan222"
               y="0"
               x="0">s</tspan></text>
<text
             id="text224"
             style="font-variant:normal;font-weight:normal;font-size:8.50960541px;font-family:Arial;-inkscape-font-specification:ArialMT;writing-mode:lr-tb;fill:#000000;fill-opacity:1;fill-rule:nonzero;stroke:none"
             transform="matrix(1,0,0,-0.99887128,196.9,48.4)"><tspan
               id="tspan226"
               y="0"
               x="0 2.3571606">te</tspan></text>
<text
             id="text228"
             style="font-variant:normal;font-weight:normal;font-size:8.50960541px;font-family:Arial;-inkscape-font-specification:ArialMT;writing-mode:lr-tb;fill:#000000;fill-opacity:1;fill-rule:nonzero;stroke:none"
             transform="matrix(1,0,0,-0.99887128,203.9,48.4)"><tspan
               id="tspan230"
               y="0"
               x="0">r</tspan></text>
<text
             id="text232"
             style="font-variant:normal;font-weight:normal;font-size:8.50960541px;font-family:Arial;-inkscape-font-specification:ArialMT;writing-mode:lr-tb;fill:#000000;fill-opacity:1;fill-rule:nonzero;stroke:none"
             transform="matrix(1,0,0,-0.99887128,206.7,48.4)"><tspan
               id="tspan234"
               y="0"
               x="0">k</tspan></text>
<text
             id="text236"
             style="font-variant:normal;font-weight:normal;font-size:8.50960541px;font-family:Arial;-inkscape-font-specification:ArialMT;writing-mode:lr-tb;fill:#000000;fill-opacity:1;fill-rule:nonzero;stroke:none"
             transform="matrix(1,0,0,-0.99887128,211,48.4)"><tspan
               id="tspan238"
               y="0"
               x="0">e</tspan></text>
<text
             id="text240"
             style="font-variant:normal;font-weight:normal;font-size:8.50960541px;font-family:Arial;-inkscape-font-specification:ArialMT;writing-mode:lr-tb;fill:#000000;fill-opacity:1;fill-rule:nonzero;stroke:none"
             transform="matrix(1,0,0,-0.99887128,215.7,48.4)"><tspan
               id="tspan242"
               y="0"
               x="0">r</tspan></text>
</g><path
           id="path244"
           style="fill:#ffffff;fill-opacity:1;fill-rule:evenodd;stroke:none"
           d="m 247.2,45 42.4,0 0,21.2 -42.4,0 0,-21.2 z" /><g
           id="g246"><path
             id="path248"
             style="fill:none;stroke:#000000;stroke-width:1;stroke-linecap:butt;stroke-linejoin:miter;stroke-miterlimit:10;stroke-dasharray:none;stroke-opacity:1"
             d="m 247.2,66.1 42.3,0 0,-21.1 -42.3,0 0,21.1 z" /></g><g
           id="g250"><text
             id="text252"
             style="font-variant:normal;font-weight:normal;font-size:8.50960541px;font-family:Arial;-inkscape-font-specification:ArialMT;writing-mode:lr-tb;fill:#000000;fill-opacity:1;fill-rule:nonzero;stroke:none"
             transform="matrix(1,0,0,-0.99887128,251.4,56.8)"><tspan
               id="tspan254"
               y="0"
               x="0">K</tspan></text>
<text
             id="text256"
             style="font-variant:normal;font-weight:normal;font-size:8.50960541px;font-family:Arial;-inkscape-font-specification:ArialMT;writing-mode:lr-tb;fill:#000000;fill-opacity:1;fill-rule:nonzero;stroke:none"
             transform="matrix(1,0,0,-0.99887128,257.1,56.8)"><tspan
               id="tspan258"
               y="0"
               x="0">l</tspan></text>
<text
             id="text260"
             style="font-variant:normal;font-weight:normal;font-size:8.50960541px;font-family:Arial;-inkscape-font-specification:ArialMT;writing-mode:lr-tb;fill:#000000;fill-opacity:1;fill-rule:nonzero;stroke:none"
             transform="matrix(1,0,0,-0.99887128,259,56.8)"><tspan
               id="tspan262"
               y="0"
               x="0">a</tspan></text>
<text
             id="text264"
             style="font-variant:normal;font-weight:normal;font-size:8.50960541px;font-family:Arial;-inkscape-font-specification:ArialMT;writing-mode:lr-tb;fill:#000000;fill-opacity:1;fill-rule:nonzero;stroke:none"
             transform="matrix(1,0,0,-0.99887128,263.7,56.8)"><tspan
               id="tspan266"
               y="0"
               x="0">s</tspan></text>
<text
             id="text268"
             style="font-variant:normal;font-weight:normal;font-size:8.50960541px;font-family:Arial;-inkscape-font-specification:ArialMT;writing-mode:lr-tb;fill:#000000;fill-opacity:1;fill-rule:nonzero;stroke:none"
             transform="matrix(1,0,0,-0.99887128,267.9,56.8)"><tspan
               id="tspan270"
               y="0"
               x="0">s</tspan></text>
<text
             id="text272"
             style="font-variant:normal;font-weight:normal;font-size:8.50960541px;font-family:Arial;-inkscape-font-specification:ArialMT;writing-mode:lr-tb;fill:#000000;fill-opacity:1;fill-rule:nonzero;stroke:none"
             transform="matrix(1,0,0,-0.99887128,272.2,56.8)"><tspan
               id="tspan274"
               y="0"
               x="0">e</tspan></text>
<text
             id="text276"
             style="font-variant:normal;font-weight:normal;font-size:8.50960541px;font-family:Arial;-inkscape-font-specification:ArialMT;writing-mode:lr-tb;fill:#000000;fill-opacity:1;fill-rule:nonzero;stroke:none"
             transform="matrix(1,0,0,-0.99887128,279.3,56.8)"><tspan
               id="tspan278"
               y="0"
               x="0">A</tspan></text>
<text
             id="text280"
             style="font-variant:normal;font-weight:normal;font-size:8.50960541px;font-family:Arial;-inkscape-font-specification:ArialMT;writing-mode:lr-tb;fill:#000000;fill-opacity:1;fill-rule:nonzero;stroke:none"
             transform="matrix(1,0,0,-0.99887128,284.9,56.8)"><tspan
               id="tspan282"
               y="0"
               x="0">-</tspan></text>
</g><g
           id="g284"><text
             id="text286"
             style="font-variant:normal;font-weight:normal;font-size:8.50960541px;font-family:Arial;-inkscape-font-specification:ArialMT;writing-mode:lr-tb;fill:#000000;fill-opacity:1;fill-rule:nonzero;stroke:none"
             transform="matrix(1,0,0,-0.99887128,258.4,48.4)"><tspan
               id="tspan288"
               y="0"
               x="0">d</tspan></text>
<text
             id="text290"
             style="font-variant:normal;font-weight:normal;font-size:8.50960541px;font-family:Arial;-inkscape-font-specification:ArialMT;writing-mode:lr-tb;fill:#000000;fill-opacity:1;fill-rule:nonzero;stroke:none"
             transform="matrix(1,0,0,-0.99887128,263.2,48.4)"><tspan
               id="tspan292"
               y="0"
               x="0">r</tspan></text>
<text
             id="text294"
             style="font-variant:normal;font-weight:normal;font-size:8.50960541px;font-family:Arial;-inkscape-font-specification:ArialMT;writing-mode:lr-tb;fill:#000000;fill-opacity:1;fill-rule:nonzero;stroke:none"
             transform="matrix(1,0,0,-0.99887128,266,48.4)"><tspan
               id="tspan296"
               y="0"
               x="0">i</tspan></text>
<text
             id="text298"
             style="font-variant:normal;font-weight:normal;font-size:8.50960541px;font-family:Arial;-inkscape-font-specification:ArialMT;writing-mode:lr-tb;fill:#000000;fill-opacity:1;fill-rule:nonzero;stroke:none"
             transform="matrix(1,0,0,-0.99887128,267.9,48.4)"><tspan
               id="tspan300"
               y="0"
               x="0">v</tspan></text>
<text
             id="text302"
             style="font-variant:normal;font-weight:normal;font-size:8.50960541px;font-family:Arial;-inkscape-font-specification:ArialMT;writing-mode:lr-tb;fill:#000000;fill-opacity:1;fill-rule:nonzero;stroke:none"
             transform="matrix(1,0,0,-0.99887128,272.1,48.4)"><tspan
               id="tspan304"
               y="0"
               x="0">e</tspan></text>
<text
             id="text306"
             style="font-variant:normal;font-weight:normal;font-size:8.50960541px;font-family:Arial;-inkscape-font-specification:ArialMT;writing-mode:lr-tb;fill:#000000;fill-opacity:1;fill-rule:nonzero;stroke:none"
             transform="matrix(1,0,0,-0.99887128,276.8,48.4)"><tspan
               id="tspan308"
               y="0"
               x="0">r</tspan></text>
</g><path
           id="path310"
           style="fill:#ffffff;fill-opacity:1;fill-rule:evenodd;stroke:none"
           d="m 310.8,45 53,0 0,21.2 -53,0 0,-21.2 z" /><g
           id="g312"><path
             id="path314"
             style="fill:none;stroke:#000000;stroke-width:1;stroke-linecap:butt;stroke-linejoin:miter;stroke-miterlimit:10;stroke-dasharray:none;stroke-opacity:1"
             d="m 310.8,66.1 53,0 0,-21.1 -53,0 0,21.1 z" /></g><g
           id="g316"><text
             id="text318"
             style="font-variant:normal;font-weight:normal;font-size:8.50960541px;font-family:Arial;-inkscape-font-specification:ArialMT;writing-mode:lr-tb;fill:#000000;fill-opacity:1;fill-rule:nonzero;stroke:none"
             transform="matrix(1,0,0,-0.99887128,321.2,56.8)"><tspan
               id="tspan320"
               y="0"
               x="0">U</tspan></text>
<text
             id="text322"
             style="font-variant:normal;font-weight:normal;font-size:8.50960541px;font-family:Arial;-inkscape-font-specification:ArialMT;writing-mode:lr-tb;fill:#000000;fill-opacity:1;fill-rule:nonzero;stroke:none"
             transform="matrix(1,0,0,-0.99887128,327.3,56.8)"><tspan
               id="tspan324"
               y="0"
               x="0">t</tspan></text>
<text
             id="text326"
             style="font-variant:normal;font-weight:normal;font-size:8.50960541px;font-family:Arial;-inkscape-font-specification:ArialMT;writing-mode:lr-tb;fill:#000000;fill-opacity:1;fill-rule:nonzero;stroke:none"
             transform="matrix(1,0,0,-0.99887128,329.7,56.8)"><tspan
               id="tspan328"
               y="0"
               x="0">g</tspan></text>
<text
             id="text330"
             style="font-variant:normal;font-weight:normal;font-size:8.50960541px;font-family:Arial;-inkscape-font-specification:ArialMT;writing-mode:lr-tb;fill:#000000;fill-opacity:1;fill-rule:nonzero;stroke:none"
             transform="matrix(1,0,0,-0.99887128,334.4,56.8)"><tspan
               id="tspan332"
               y="0"
               x="0">a</tspan></text>
<text
             id="text334"
             style="font-variant:normal;font-weight:normal;font-size:8.50960541px;font-family:Arial;-inkscape-font-specification:ArialMT;writing-mode:lr-tb;fill:#000000;fill-opacity:1;fill-rule:nonzero;stroke:none"
             transform="matrix(1,0,0,-0.99887128,339.1,56.8)"><tspan
               id="tspan336"
               y="0"
               x="0">n</tspan></text>
<text
             id="text338"
             style="font-variant:normal;font-weight:normal;font-size:8.50960541px;font-family:Arial;-inkscape-font-specification:ArialMT;writing-mode:lr-tb;fill:#000000;fill-opacity:1;fill-rule:nonzero;stroke:none"
             transform="matrix(1,0,0,-0.99887128,343.8,56.8)"><tspan
               id="tspan340"
               y="0"
               x="0">g</tspan></text>
<text
             id="text342"
             style="font-variant:normal;font-weight:normal;font-size:8.50960541px;font-family:Arial;-inkscape-font-specification:ArialMT;writing-mode:lr-tb;fill:#000000;fill-opacity:1;fill-rule:nonzero;stroke:none"
             transform="matrix(1,0,0,-0.99887128,348.5,56.8)"><tspan
               id="tspan344"
               y="0"
               x="0">s</tspan></text>
<text
             id="text346"
             style="font-variant:normal;font-weight:normal;font-size:8.50960541px;font-family:Arial;-inkscape-font-specification:ArialMT;writing-mode:lr-tb;fill:#000000;fill-opacity:1;fill-rule:nonzero;stroke:none"
             transform="matrix(1,0,0,-0.99887128,352.8,56.8)"><tspan
               id="tspan348"
               y="0"
               x="0">-</tspan></text>
</g><g
           id="g350"><text
             id="text352"
             style="font-variant:normal;font-weight:normal;font-size:8.50960541px;font-family:Arial;-inkscape-font-specification:ArialMT;writing-mode:lr-tb;fill:#000000;fill-opacity:1;fill-rule:nonzero;stroke:none"
             transform="matrix(1,0,0,-0.99887128,317.5,48.4)"><tspan
               id="tspan354"
               y="0"
               x="0">t</tspan></text>
<text
             id="text356"
             style="font-variant:normal;font-weight:normal;font-size:8.50960541px;font-family:Arial;-inkscape-font-specification:ArialMT;writing-mode:lr-tb;fill:#000000;fill-opacity:1;fill-rule:nonzero;stroke:none"
             transform="matrix(1,0,0,-0.99887128,319.8,48.4)"><tspan
               id="tspan358"
               y="0"
               x="0">r</tspan></text>
<text
             id="text360"
             style="font-variant:normal;font-weight:normal;font-size:8.50960541px;font-family:Arial;-inkscape-font-specification:ArialMT;writing-mode:lr-tb;fill:#000000;fill-opacity:1;fill-rule:nonzero;stroke:none"
             transform="matrix(1,0,0,-0.99887128,322.7,48.4)"><tspan
               id="tspan362"
               y="0"
               x="0">a</tspan></text>
<text
             id="text364"
             style="font-variant:normal;font-weight:normal;font-size:8.50960541px;font-family:Arial;-inkscape-font-specification:ArialMT;writing-mode:lr-tb;fill:#000000;fill-opacity:1;fill-rule:nonzero;stroke:none"
             transform="matrix(1,0,0,-0.99887128,327.4,48.4)"><tspan
               id="tspan366"
               y="0"
               x="0">n</tspan></text>
<text
             id="text368"
             style="font-variant:normal;font-weight:normal;font-size:8.50960541px;font-family:Arial;-inkscape-font-specification:ArialMT;writing-mode:lr-tb;fill:#000000;fill-opacity:1;fill-rule:nonzero;stroke:none"
             transform="matrix(1,0,0,-0.99887128,332.1,48.4)"><tspan
               id="tspan370"
               y="0"
               x="0">s</tspan></text>
<text
             id="text372"
             style="font-variant:normal;font-weight:normal;font-size:8.50960541px;font-family:Arial;-inkscape-font-specification:ArialMT;writing-mode:lr-tb;fill:#000000;fill-opacity:1;fill-rule:nonzero;stroke:none"
             transform="matrix(1,0,0,-0.99887128,336.3,48.4)"><tspan
               id="tspan374"
               y="0"
               x="0 1.8891323">is</tspan></text>
<text
             id="text376"
             style="font-variant:normal;font-weight:normal;font-size:8.50960541px;font-family:Arial;-inkscape-font-specification:ArialMT;writing-mode:lr-tb;fill:#000000;fill-opacity:1;fill-rule:nonzero;stroke:none"
             transform="matrix(1,0,0,-0.99887128,342.4,48.4)"><tspan
               id="tspan378"
               y="0"
               x="0">t</tspan></text>
<text
             id="text380"
             style="font-variant:normal;font-weight:normal;font-size:8.50960541px;font-family:Arial;-inkscape-font-specification:ArialMT;writing-mode:lr-tb;fill:#000000;fill-opacity:1;fill-rule:nonzero;stroke:none"
             transform="matrix(1,0,0,-0.99887128,344.8,48.4)"><tspan
               id="tspan382"
               y="0"
               x="0">o</tspan></text>
<text
             id="text384"
             style="font-variant:normal;font-weight:normal;font-size:8.50960541px;font-family:Arial;-inkscape-font-specification:ArialMT;writing-mode:lr-tb;fill:#000000;fill-opacity:1;fill-rule:nonzero;stroke:none"
             transform="matrix(1,0,0,-0.99887128,349.5,48.4)"><tspan
               id="tspan386"
               y="0"
               x="0">r</tspan></text>
<text
             id="text388"
             style="font-variant:normal;font-weight:normal;font-size:8.50960541px;font-family:Arial;-inkscape-font-specification:ArialMT;writing-mode:lr-tb;fill:#000000;fill-opacity:1;fill-rule:nonzero;stroke:none"
             transform="matrix(1,0,0,-0.99887128,352.3,48.4)"><tspan
               id="tspan390"
               y="0"
               x="0">e</tspan></text>
<text
             id="text392"
             style="font-variant:normal;font-weight:normal;font-size:8.50960541px;font-family:Arial;-inkscape-font-specification:ArialMT;writing-mode:lr-tb;fill:#000000;fill-opacity:1;fill-rule:nonzero;stroke:none"
             transform="matrix(1,0,0,-0.99887128,357,48.4)"><tspan
               id="tspan394"
               y="0"
               x="0">r</tspan></text>
</g><path
           id="path396"
           style="fill:#ffffff;fill-opacity:1;fill-rule:evenodd;stroke:none"
           d="m 392.1,66.1 c 28.2,0 28.2,0 28.2,0 3.9,0 7.1,-4.7 7.1,-10.5 0,-5.9 -3.2,-10.6 -7.1,-10.6 -28.2,0 -28.2,0 -28.2,0 -3.9,0 -7.1,4.7 -7.1,10.6 0,5.8 3.2,10.5 7.1,10.5 z" /><g
           id="g398"><path
             id="path400"
             style="fill:none;stroke:#000000;stroke-width:1;stroke-linecap:butt;stroke-linejoin:miter;stroke-miterlimit:10;stroke-dasharray:none;stroke-opacity:1"
             d="m 392.1,66.1 c 28.2,0 28.2,0 28.2,0 3.9,0 7.1,-4.7 7.1,-10.5 0,-5.9 -3.2,-10.6 -7.1,-10.6 -28.2,0 -28.2,0 -28.2,0 -3.9,0 -7.1,4.7 -7.1,10.6 0,5.8 3.2,10.5 7.1,10.5 z" /></g><g
           id="g402"><text
             id="text404"
             style="font-variant:normal;font-weight:normal;font-size:8.50960541px;font-family:Arial;-inkscape-font-specification:ArialMT;writing-mode:lr-tb;fill:#000000;fill-opacity:1;fill-rule:nonzero;stroke:none"
             transform="matrix(1,0,0,-0.99887128,398.7,52.6)"><tspan
               id="tspan406"
               y="0"
               x="0">L</tspan></text>
<text
             id="text408"
             style="font-variant:normal;font-weight:normal;font-size:8.50960541px;font-family:Arial;-inkscape-font-specification:ArialMT;writing-mode:lr-tb;fill:#000000;fill-opacity:1;fill-rule:nonzero;stroke:none"
             transform="matrix(1,0,0,-0.99887128,403.4,52.6)"><tspan
               id="tspan410"
               y="0"
               x="0">a</tspan></text>
<text
             id="text412"
             style="font-variant:normal;font-weight:normal;font-size:8.50960541px;font-family:Arial;-inkscape-font-specification:ArialMT;writing-mode:lr-tb;fill:#000000;fill-opacity:1;fill-rule:nonzero;stroke:none"
             transform="matrix(1,0,0,-0.99887128,408.1,52.6)"><tspan
               id="tspan414"
               y="0"
               x="0">s</tspan></text>
<text
             id="text416"
             style="font-variant:normal;font-weight:normal;font-size:8.50960541px;font-family:Arial;-inkscape-font-specification:ArialMT;writing-mode:lr-tb;fill:#000000;fill-opacity:1;fill-rule:nonzero;stroke:none"
             transform="matrix(1,0,0,-0.99887128,412.4,52.6)"><tspan
               id="tspan418"
               y="0"
               x="0">t</tspan></text>
</g><g
           id="g420"><path
             id="path422"
             style="fill:none;stroke:#000000;stroke-width:1;stroke-linecap:butt;stroke-linejoin:miter;stroke-miterlimit:10;stroke-dasharray:none;stroke-opacity:1"
             d="m 152.3,55.3 15.5,0.2" /></g><path
           id="path424"
           style="fill:#000000;fill-opacity:1;fill-rule:evenodd;stroke:none"
           d="m 171.8,55.5 -5.3,-2.7 1.3,2.7 -1.4,2.6 5.4,-2.6 z" /><g
           id="g426"><path
             id="path428"
             style="fill:none;stroke:#000000;stroke-width:1;stroke-linecap:butt;stroke-linejoin:miter;stroke-miterlimit:10;stroke-dasharray:none;stroke-opacity:1"
             d="m 171.8,55.5 -5.3,-2.7 1.3,2.7 -1.4,2.6 5.4,-2.6 z" /></g><g
           id="g430"><path
             id="path432"
             style="fill:none;stroke:#000000;stroke-width:1;stroke-linecap:butt;stroke-linejoin:miter;stroke-miterlimit:10;stroke-dasharray:none;stroke-opacity:1"
             d="m 374.4,55.6 0,-42.4 -81,0" /></g><path
           id="path434"
           style="fill:#000000;fill-opacity:1;fill-rule:evenodd;stroke:none"
           d="m 289.4,13.2 5.3,2.6 -1.3,-2.6 1.3,-2.7 -5.3,2.7 z" /><g
           id="g436"><path
             id="path438"
             style="fill:none;stroke:#000000;stroke-width:1;stroke-linecap:butt;stroke-linejoin:miter;stroke-miterlimit:10;stroke-dasharray:none;stroke-opacity:1"
             d="m 289.4,13.2 5.3,2.6 -1.3,-2.6 1.3,-2.7 -5.3,2.7 z" /></g><g
           id="g440"><path
             id="path442"
             style="fill:none;stroke:#000000;stroke-width:1;stroke-linecap:butt;stroke-linejoin:miter;stroke-miterlimit:10;stroke-dasharray:none;stroke-opacity:1"
             d="m 109.3,55.6 16.1,-0.3" /></g><path
           id="path444"
           style="fill:#000000;fill-opacity:1;fill-rule:evenodd;stroke:none"
           d="m 129.4,55.3 -5.4,-2.6 1.4,2.6 -1.3,2.7 5.3,-2.7 z" /><g
           id="g446"><path
             id="path448"
             style="fill:none;stroke:#000000;stroke-width:1;stroke-linecap:butt;stroke-linejoin:miter;stroke-miterlimit:10;stroke-dasharray:none;stroke-opacity:1"
             d="m 129.4,55.3 -5.4,-2.6 1.4,2.6 -1.3,2.7 5.3,-2.7 z" /></g><g
           id="g450"><path
             id="path452"
             style="fill:none;stroke:#000000;stroke-width:1;stroke-linecap:butt;stroke-linejoin:miter;stroke-miterlimit:10;stroke-dasharray:none;stroke-opacity:1"
             d="m 363.8,55.6 16,0" /></g><path
           id="path454"
           style="fill:#000000;fill-opacity:1;fill-rule:evenodd;stroke:none"
           d="m 383.8,55.6 -5.3,-2.7 1.3,2.7 -1.3,2.6 5.3,-2.6 z" /><g
           id="g456"><path
             id="path458"
             style="fill:none;stroke:#000000;stroke-width:1;stroke-linecap:butt;stroke-linejoin:miter;stroke-miterlimit:10;stroke-dasharray:none;stroke-opacity:1"
             d="m 383.8,55.6 -5.3,-2.7 1.3,2.7 -1.3,2.6 5.3,-2.6 z" /></g><g
           id="g460"><path
             id="path462"
             style="fill:none;stroke:#000000;stroke-width:1;stroke-linecap:butt;stroke-linejoin:miter;stroke-miterlimit:10;stroke-dasharray:none;stroke-opacity:1"
             d="m 226,13.2 -84.6,0 0,26" /></g><path
           id="path464"
           style="fill:#000000;fill-opacity:1;fill-rule:evenodd;stroke:none"
           d="m 141.4,43.2 2.7,-5.3 -2.7,1.3 -2.6,-1.3 2.6,5.3 z" /><g
           id="g466"><path
             id="path468"
             style="fill:none;stroke:#000000;stroke-width:1;stroke-linecap:butt;stroke-linejoin:miter;stroke-miterlimit:10;stroke-dasharray:none;stroke-opacity:1"
             d="m 141.4,43.2 2.7,-5.3 -2.7,1.3 -2.6,-1.3 2.6,5.3 z" /></g><g
           id="g470"><text
             id="text472"
             style="font-variant:normal;font-weight:normal;font-size:8.50960541px;font-family:Arial;-inkscape-font-specification:ArialMT;writing-mode:lr-tb;fill:#000000;fill-opacity:1;fill-rule:nonzero;stroke:none"
             transform="matrix(1,0,0,-0.99887128,125.6,57.8)"><tspan
               id="tspan474"
               y="0"
               x="0">+</tspan></text>
</g><g
           id="g476"><text
             id="text478"
             style="font-variant:normal;font-weight:normal;font-size:8.50960541px;font-family:Arial;-inkscape-font-specification:ArialMT;writing-mode:lr-tb;fill:#000000;fill-opacity:1;fill-rule:nonzero;stroke:none"
             transform="matrix(1,0,0,-0.99887128,144.2,39.3)"><tspan
               id="tspan480"
               y="0"
               x="0">−</tspan></text>
</g><path
           id="path482"
           style="fill:#ffffff;fill-opacity:1;fill-rule:evenodd;stroke:none"
           d="m 10.4,66.1 c 28.2,0 28.2,0 28.2,0 4,0 7.1,-4.7 7.1,-10.5 0,-5.9 -3.1,-10.6 -7.1,-10.6 -28.2,0 -28.2,0 -28.2,0 -3.9,0 -7.1,4.7 -7.1,10.6 0,5.8 3.2,10.5 7.1,10.5 z" /><g
           id="g484"><path
             id="path486"
             style="fill:none;stroke:#000000;stroke-width:1;stroke-linecap:butt;stroke-linejoin:miter;stroke-miterlimit:10;stroke-dasharray:none;stroke-opacity:1"
             d="m 10.4,66.1 c 28.2,0 28.2,0 28.2,0 4,0 7.1,-4.7 7.1,-10.5 0,-5.9 -3.1,-10.6 -7.1,-10.6 -28.2,0 -28.2,0 -28.2,0 -3.9,0 -7.1,4.7 -7.1,10.6 0,5.8 3.2,10.5 7.1,10.5 z" /></g><g
           id="g488"><text
             id="text490"
             style="font-variant:normal;font-weight:normal;font-size:8.50960541px;font-family:Arial;-inkscape-font-specification:ArialMT;writing-mode:lr-tb;fill:#000000;fill-opacity:1;fill-rule:nonzero;stroke:none"
             transform="matrix(1,0,0,-0.99887128,15.7,52.6)"><tspan
               id="tspan492"
               y="0"
               x="0">K</tspan></text>
<text
             id="text494"
             style="font-variant:normal;font-weight:normal;font-size:8.50960541px;font-family:Arial;-inkscape-font-specification:ArialMT;writing-mode:lr-tb;fill:#000000;fill-opacity:1;fill-rule:nonzero;stroke:none"
             transform="matrix(1,0,0,-0.99887128,21.4,52.6)"><tspan
               id="tspan496"
               y="0"
               x="0 1.8891323">il</tspan></text>
<text
             id="text498"
             style="font-variant:normal;font-weight:normal;font-size:8.50960541px;font-family:Arial;-inkscape-font-specification:ArialMT;writing-mode:lr-tb;fill:#000000;fill-opacity:1;fill-rule:nonzero;stroke:none"
             transform="matrix(1,0,0,-0.99887128,25.2,52.6)"><tspan
               id="tspan500"
               y="0"
               x="0">d</tspan></text>
<text
             id="text502"
             style="font-variant:normal;font-weight:normal;font-size:8.50960541px;font-family:Arial;-inkscape-font-specification:ArialMT;writing-mode:lr-tb;fill:#000000;fill-opacity:1;fill-rule:nonzero;stroke:none"
             transform="matrix(1,0,0,-0.99887128,29.9,52.6)"><tspan
               id="tspan504"
               y="0"
               x="0">e</tspan></text>
</g></g></g></g></svg>