<?xml version="1.0" encoding="UTF-8"?>
<svg xmlns="http://www.w3.org/2000/svg" xmlns:xlink="http://www.w3.org/1999/xlink" width="253pt" height="114pt" viewBox="0 0 253 114" version="1.1">
<g id="surface1">
<path style=" stroke:none;fill-rule:nonzero;fill:rgb(0%,0%,0%);fill-opacity:1;" d="M 82.664063 62.199219 L 85.082031 62.199219 L 85.082031 70.835938 L 95.96875 70.835938 L 95.96875 62.199219 L 98.386719 62.199219 L 98.386719 82.585938 L 95.96875 82.585938 L 95.96875 73.082031 L 85.082031 73.082031 L 85.082031 82.585938 L 82.664063 82.585938 L 82.664063 62.199219 "/>
<path style=" stroke:none;fill-rule:nonzero;fill:rgb(0%,0%,0%);fill-opacity:1;" d="M 104.40625 79.734375 C 102.679688 77.832031 101.699219 75.300781 101.699219 72.390625 C 101.699219 66.230469 106.164063 61.679688 112.355469 61.679688 C 114.917969 61.679688 117.164063 62.457031 118.976563 63.839844 L 121.25 61.332031 L 122.460938 62.429688 L 120.1875 64.90625 C 121.941406 66.777344 123.007813 69.398438 123.007813 72.390625 C 123.007813 78.554688 118.542969 83.101563 112.355469 83.101563 C 109.675781 83.101563 107.34375 82.269531 105.558594 80.828125 L 103.226563 83.363281 L 102.074219 82.269531 Z M 107.226563 79.015625 C 108.550781 80.164063 110.339844 80.855469 112.355469 80.855469 C 117.132813 80.855469 120.417969 77.085938 120.417969 72.390625 C 120.417969 70.230469 119.726563 68.246094 118.488281 66.746094 Z M 117.335938 65.625 C 116.011719 64.558594 114.3125 63.925781 112.355469 63.925781 C 107.574219 63.925781 104.292969 67.699219 104.292969 72.390625 C 104.292969 74.492188 104.953125 76.421875 106.105469 77.863281 L 117.335938 65.625 "/>
<path style=" stroke:none;fill-rule:nonzero;fill:rgb(0%,0%,0%);fill-opacity:1;" d="M 144.519531 81.203125 C 142.1875 82.5 139.539063 83.101563 136.890625 83.101563 C 130.554688 83.101563 126.007813 78.785156 126.007813 72.390625 C 126.007813 65.96875 130.875 61.679688 136.976563 61.679688 C 139.65625 61.679688 142.246094 62.398438 144.175781 64.355469 L 142.363281 66.257813 C 140.980469 64.761719 138.878906 63.925781 136.804688 63.925781 C 132.140625 63.925781 128.597656 67.4375 128.597656 72.390625 C 128.597656 77.257813 132.023438 80.855469 137.035156 80.855469 C 138.675781 80.855469 140.605469 80.425781 142.101563 79.675781 L 142.101563 73.429688 L 137.410156 73.429688 L 137.410156 71.179688 L 144.519531 71.179688 L 144.519531 81.203125 "/>
<path style=" stroke:none;fill-rule:nonzero;fill:rgb(0%,0%,0%);fill-opacity:1;" d="M 158.398438 65.796875 C 157.59375 64.5 156.152344 63.925781 154.683594 63.925781 C 152.554688 63.925781 150.335938 64.933594 150.335938 67.351563 C 150.335938 69.222656 151.375 70.058594 154.628906 71.09375 C 157.796875 72.101563 160.730469 73.140625 160.730469 77.140625 C 160.730469 81.203125 157.246094 83.101563 153.5625 83.101563 C 151.199219 83.101563 148.667969 82.324219 147.285156 80.28125 L 149.359375 78.582031 C 150.222656 80.078125 151.949219 80.855469 153.707031 80.855469 C 155.777344 80.855469 158.140625 79.648438 158.140625 77.316406 C 158.140625 74.808594 156.441406 74.378906 152.8125 73.167969 C 149.933594 72.21875 147.746094 70.953125 147.746094 67.554688 C 147.746094 63.636719 151.113281 61.679688 154.683594 61.679688 C 156.960938 61.679688 158.886719 62.3125 160.386719 64.070313 L 158.398438 65.796875 "/>
<path style=" stroke:none;fill-rule:nonzero;fill:rgb(0%,0%,0%);fill-opacity:1;" d="M 164.15625 62.199219 L 166.578125 62.199219 L 166.578125 71.007813 L 166.921875 71.007813 L 176.195313 62.199219 L 179.679688 62.199219 L 169.601563 71.5 L 180.167969 82.585938 L 176.625 82.585938 L 166.921875 72.21875 L 166.578125 72.21875 L 166.578125 82.585938 L 164.15625 82.585938 L 164.15625 62.199219 "/>
<path style=" stroke:none;fill-rule:nonzero;fill:rgb(0%,0%,0%);fill-opacity:1;" d="M 179.390625 72.390625 C 179.390625 66.230469 183.851563 61.679688 190.042969 61.679688 C 196.234375 61.679688 200.699219 66.230469 200.699219 72.390625 C 200.699219 78.554688 196.234375 83.101563 190.042969 83.101563 C 183.851563 83.101563 179.390625 78.554688 179.390625 72.390625 Z M 198.105469 72.390625 C 198.105469 67.699219 194.824219 63.925781 190.042969 63.925781 C 185.265625 63.925781 181.980469 67.699219 181.980469 72.390625 C 181.980469 77.085938 185.265625 80.855469 190.042969 80.855469 C 194.824219 80.855469 198.105469 77.085938 198.105469 72.390625 "/>
<path style=" stroke:none;fill-rule:nonzero;fill:rgb(0%,0%,0%);fill-opacity:1;" d="M 204.011719 62.199219 L 206.433594 62.199219 L 206.433594 80.339844 L 215.761719 80.339844 L 215.761719 82.585938 L 204.011719 82.585938 L 204.011719 62.199219 "/>
<path style=" stroke:none;fill-rule:nonzero;fill:rgb(0%,0%,0%);fill-opacity:1;" d="M 217.835938 62.199219 L 230.652344 62.199219 L 230.652344 64.445313 L 220.257813 64.445313 L 220.257813 70.835938 L 229.960938 70.835938 L 229.960938 73.082031 L 220.257813 73.082031 L 220.257813 80.339844 L 231.167969 80.339844 L 231.167969 82.585938 L 217.835938 82.585938 L 217.835938 62.199219 "/>
<path style=" stroke:none;fill-rule:nonzero;fill:rgb(0%,0%,0%);fill-opacity:1;" d="M 234.621094 62.199219 L 237.671875 62.199219 L 249.480469 79.128906 L 249.539063 79.128906 L 249.539063 62.199219 L 251.957031 62.199219 L 251.957031 82.585938 L 248.902344 82.585938 L 237.097656 65.652344 L 237.039063 65.652344 L 237.039063 82.585938 L 234.621094 82.585938 L 234.621094 62.199219 "/>
<path style=" stroke:none;fill-rule:nonzero;fill:rgb(0%,0%,0%);fill-opacity:1;" d="M 82.730469 103.464844 L 84.335938 103.464844 L 84.335938 89.953125 L 82.730469 89.953125 Z M 82.730469 103.464844 "/>
<path style=" stroke:none;fill-rule:nonzero;fill:rgb(0%,0%,0%);fill-opacity:1;" d="M 100.164063 92.339844 C 99.628906 91.480469 98.675781 91.097656 97.703125 91.097656 C 96.289063 91.097656 94.820313 91.765625 94.820313 93.371094 C 94.820313 94.609375 95.507813 95.164063 97.664063 95.851563 C 99.761719 96.519531 101.710938 97.207031 101.710938 99.859375 C 101.710938 102.546875 99.402344 103.808594 96.957031 103.808594 C 95.394531 103.808594 93.714844 103.292969 92.796875 101.9375 L 94.171875 100.8125 C 94.746094 101.804688 95.890625 102.320313 97.054688 102.320313 C 98.425781 102.320313 99.992188 101.519531 99.992188 99.972656 C 99.992188 98.3125 98.867188 98.027344 96.460938 97.222656 C 94.554688 96.59375 93.101563 95.753906 93.101563 93.503906 C 93.101563 90.90625 95.335938 89.609375 97.703125 89.609375 C 99.210938 89.609375 100.488281 90.03125 101.480469 91.195313 L 100.164063 92.339844 "/>
<path style=" stroke:none;fill-rule:nonzero;fill:rgb(0%,0%,0%);fill-opacity:1;" d="M 105.5625 101.574219 C 104.414063 100.316406 103.765625 98.636719 103.765625 96.710938 C 103.765625 92.625 106.726563 89.609375 110.828125 89.609375 C 112.527344 89.609375 114.015625 90.125 115.21875 91.042969 L 116.726563 89.382813 L 117.527344 90.105469 L 116.019531 91.746094 C 117.183594 92.988281 117.890625 94.722656 117.890625 96.710938 C 117.890625 100.792969 114.929688 103.808594 110.828125 103.808594 C 109.054688 103.808594 107.507813 103.253906 106.324219 102.300781 L 104.777344 103.980469 L 104.015625 103.253906 Z M 107.429688 101.097656 C 108.308594 101.863281 109.492188 102.320313 110.828125 102.320313 C 113.996094 102.320313 116.171875 99.820313 116.171875 96.710938 C 116.171875 95.277344 115.714844 93.960938 114.890625 92.96875 Z M 114.128906 92.226563 C 113.25 91.519531 112.125 91.097656 110.828125 91.097656 C 107.660156 91.097656 105.484375 93.597656 105.484375 96.710938 C 105.484375 98.101563 105.921875 99.378906 106.6875 100.335938 L 114.128906 92.226563 "/>
<path style=" stroke:none;fill-rule:nonzero;fill:rgb(0%,0%,0%);fill-opacity:1;" d="M 120.652344 89.953125 L 124.105469 89.953125 C 126.722656 89.953125 129.488281 90.335938 129.488281 93.675781 C 129.488281 95.640625 128.210938 96.917969 126.109375 97.242188 L 129.945313 103.464844 L 127.980469 103.464844 L 124.316406 97.394531 L 122.257813 97.394531 L 122.257813 103.464844 L 120.652344 103.464844 Z M 122.257813 95.90625 L 123.6875 95.90625 C 125.460938 95.90625 127.769531 95.90625 127.769531 93.675781 C 127.769531 91.726563 126.070313 91.441406 124.507813 91.441406 L 122.257813 91.441406 L 122.257813 95.90625 "/>
<path style=" stroke:none;fill-rule:nonzero;fill:rgb(0%,0%,0%);fill-opacity:1;" d="M 132.230469 99.570313 L 136.90625 99.570313 L 136.90625 98.199219 L 132.230469 98.199219 Z M 132.230469 99.570313 "/>
<path style=" stroke:none;fill-rule:nonzero;fill:rgb(0%,0%,0%);fill-opacity:1;" d="M 148.484375 91.441406 L 144.019531 91.441406 L 144.019531 103.464844 L 142.414063 103.464844 L 142.414063 91.441406 L 137.949219 91.441406 L 137.949219 89.953125 L 148.484375 89.953125 L 148.484375 91.441406 "/>
<path style=" stroke:none;fill-rule:nonzero;fill:rgb(0%,0%,0%);fill-opacity:1;" d="M 150.5625 89.953125 L 154.015625 89.953125 C 156.628906 89.953125 159.398438 90.335938 159.398438 93.675781 C 159.398438 95.640625 158.121094 96.917969 156.019531 97.242188 L 159.855469 103.464844 L 157.890625 103.464844 L 154.226563 97.394531 L 152.164063 97.394531 L 152.164063 103.464844 L 150.5625 103.464844 Z M 152.164063 95.90625 L 153.59375 95.90625 C 155.371094 95.90625 157.679688 95.90625 157.679688 93.675781 C 157.679688 91.726563 155.980469 91.441406 154.414063 91.441406 L 152.164063 91.441406 L 152.164063 95.90625 "/>
<path style=" stroke:none;fill-rule:nonzero;fill:rgb(0%,0%,0%);fill-opacity:1;" d="M 163.417969 101.574219 C 162.273438 100.316406 161.625 98.636719 161.625 96.710938 C 161.625 92.625 164.582031 89.609375 168.683594 89.609375 C 170.382813 89.609375 171.871094 90.125 173.074219 91.042969 L 174.582031 89.382813 L 175.382813 90.105469 L 173.875 91.746094 C 175.039063 92.988281 175.746094 94.722656 175.746094 96.710938 C 175.746094 100.792969 172.789063 103.808594 168.683594 103.808594 C 166.910156 103.808594 165.363281 103.253906 164.179688 102.300781 L 162.636719 103.980469 L 161.871094 103.253906 Z M 165.289063 101.097656 C 166.167969 101.863281 167.347656 102.320313 168.683594 102.320313 C 171.851563 102.320313 174.027344 99.820313 174.027344 96.710938 C 174.027344 95.277344 173.570313 93.960938 172.75 92.96875 Z M 171.988281 92.226563 C 171.109375 91.519531 169.984375 91.097656 168.683594 91.097656 C 165.519531 91.097656 163.339844 93.597656 163.339844 96.710938 C 163.339844 98.101563 163.78125 99.378906 164.542969 100.335938 L 171.988281 92.226563 "/>
<path style=" stroke:none;fill-rule:nonzero;fill:rgb(0%,0%,0%);fill-opacity:1;" d="M 178.511719 89.953125 L 180.53125 89.953125 L 188.355469 101.175781 L 188.394531 101.175781 L 188.394531 89.953125 L 190 89.953125 L 190 103.464844 L 187.976563 103.464844 L 180.152344 92.242188 L 180.113281 92.242188 L 180.113281 103.464844 L 178.511719 103.464844 L 178.511719 89.953125 "/>
<path style=" stroke:none;fill-rule:nonzero;fill:rgb(0%,0%,0%);fill-opacity:1;" d="M 193.292969 89.953125 L 198.484375 89.953125 C 201.136719 89.953125 205.105469 91.726563 205.105469 96.710938 C 205.105469 101.691406 201.136719 103.464844 198.484375 103.464844 L 193.292969 103.464844 Z M 194.898438 101.976563 L 197.949219 101.976563 C 201.042969 101.976563 203.390625 100.410156 203.390625 96.710938 C 203.390625 93.007813 201.042969 91.441406 197.949219 91.441406 L 194.898438 91.441406 L 194.898438 101.976563 "/>
<path style=" stroke:none;fill-rule:nonzero;fill:rgb(0%,0%,0%);fill-opacity:1;" d="M 207.488281 89.953125 L 215.980469 89.953125 L 215.980469 91.441406 L 209.089844 91.441406 L 209.089844 95.679688 L 215.523438 95.679688 L 215.523438 97.167969 L 209.089844 97.167969 L 209.089844 101.976563 L 216.324219 101.976563 L 216.324219 103.464844 L 207.488281 103.464844 L 207.488281 89.953125 "/>
<path style=" stroke:none;fill-rule:nonzero;fill:rgb(0%,0%,0%);fill-opacity:1;" d="M 218.988281 89.953125 L 220.59375 89.953125 L 220.59375 101.976563 L 226.777344 101.976563 L 226.777344 103.464844 L 218.988281 103.464844 L 218.988281 89.953125 "/>
<path style=" stroke:none;fill-rule:nonzero;fill:rgb(0%,0%,0%);fill-opacity:1;" d="M 231.964844 89.953125 L 233.472656 89.953125 L 239.214844 103.464844 L 237.347656 103.464844 L 235.972656 100.144531 L 229.21875 100.144531 L 227.824219 103.464844 L 226.011719 103.464844 Z M 232.691406 92.015625 L 232.652344 92.015625 L 229.847656 98.65625 L 235.363281 98.65625 L 232.691406 92.015625 "/>
<path style=" stroke:none;fill-rule:nonzero;fill:rgb(0%,0%,0%);fill-opacity:1;" d="M 251.921875 102.546875 C 250.375 103.40625 248.621094 103.808594 246.863281 103.808594 C 242.664063 103.808594 239.652344 100.945313 239.652344 96.710938 C 239.652344 92.453125 242.875 89.609375 246.921875 89.609375 C 248.695313 89.609375 250.414063 90.085938 251.691406 91.382813 L 250.488281 92.644531 C 249.574219 91.652344 248.179688 91.097656 246.804688 91.097656 C 243.714844 91.097656 241.367188 93.425781 241.367188 96.710938 C 241.367188 99.933594 243.636719 102.320313 246.957031 102.320313 C 248.046875 102.320313 249.324219 102.035156 250.316406 101.535156 L 250.316406 97.394531 L 247.207031 97.394531 L 247.207031 95.90625 L 251.921875 95.90625 L 251.921875 102.546875 "/>
<path style=" stroke:none;fill-rule:nonzero;fill:rgb(30.986023%,13.342285%,50.559998%);fill-opacity:1;" d="M 1.570313 113.277344 L 67.449219 113.277344 L 67.449219 0.835938 L 1.570313 0.835938 Z M 1.570313 113.277344 "/>
<path style=" stroke:none;fill-rule:nonzero;fill:rgb(100%,100%,100%);fill-opacity:1;" d="M 24.671875 107.148438 C 24.714844 107.003906 24.582031 106.933594 24.59375 106.808594 C 24.375 105.988281 24.269531 105.1875 24.054688 104.363281 L 23.796875 103.253906 C 24.179688 102.960938 24.429688 102.5625 24.933594 102.351563 L 24.914063 102.351563 L 24.914063 102.3125 L 24.933594 102.3125 C 25.007813 102.085938 25.195313 101.945313 25.359375 101.84375 L 25.378906 101.867188 C 25.390625 101.660156 25.675781 101.785156 25.605469 101.582031 C 25.636719 101.5 25.691406 101.386719 25.804688 101.335938 C 25.792969 101.410156 25.710938 101.511719 25.78125 101.625 C 25.78125 101.675781 25.675781 101.816406 25.707031 101.867188 C 25.652344 102.144531 25.578125 102.421875 25.574219 102.707031 C 25.390625 102.789063 25.613281 103.003906 25.46875 103.054688 C 25.40625 103.3125 25.382813 103.496094 25.339844 103.640625 C 25.210938 104.335938 25.101563 104.898438 25.003906 105.550781 C 24.914063 105.550781 24.972656 105.757813 24.949219 105.847656 C 24.929688 105.839844 24.921875 105.859375 24.898438 105.878906 C 24.949219 105.972656 24.8125 106.257813 24.824219 106.390625 C 24.8125 106.402344 24.792969 106.421875 24.800781 106.441406 C 24.871094 106.617188 24.65625 106.851563 24.714844 107.148438 L 24.671875 107.148438 "/>
<path style=" stroke:none;fill-rule:nonzero;fill:rgb(100%,100%,100%);fill-opacity:1;" d="M 45.117188 106.6875 C 45.011719 105.804688 44.785156 105.097656 44.648438 104.296875 C 44.949219 104.074219 45.257813 103.757813 45.660156 103.566406 C 45.710938 103.445313 45.816406 103.382813 45.765625 103.25 C 45.878906 103.210938 45.964844 102.902344 46.117188 102.90625 C 45.785156 104.265625 45.539063 105.625 45.21875 106.9375 C 45.175781 106.894531 45.074219 106.769531 45.117188 106.6875 "/>
<path style=" stroke:none;fill-rule:nonzero;fill:rgb(100%,100%,100%);fill-opacity:1;" d="M 11.976563 96.773438 C 12.480469 96.625 12.691406 95.921875 13.289063 95.773438 C 13.351563 95.660156 13.546875 95.632813 13.589844 95.507813 C 13.816406 95.410156 13.847656 95.296875 13.960938 95.09375 C 14.117188 94.949219 14.292969 94.878906 14.457031 94.75 L 14.425781 94.726563 C 14.46875 94.617188 14.796875 94.507813 14.800781 94.363281 C 14.941406 94.4375 14.789063 94.28125 14.902344 94.261719 C 15.171875 94.070313 15.316406 93.804688 15.644531 93.703125 L 15.617188 93.683594 C 15.679688 93.644531 15.738281 93.613281 15.792969 93.5625 L 15.769531 93.53125 L 15.894531 93.441406 L 15.863281 93.410156 C 16.140625 93.328125 16.074219 93.09375 16.359375 93.042969 C 16.351563 93.035156 16.339844 93.015625 16.320313 93.023438 C 16.402344 92.890625 16.589844 92.789063 16.691406 92.679688 C 16.710938 92.679688 16.742188 92.691406 16.765625 92.660156 C 16.855469 92.535156 16.941406 92.496094 17.0625 92.414063 C 17.125 92.4375 17.167969 92.355469 17.15625 92.3125 C 17.054688 92.085938 17.34375 92.050781 17.457031 91.90625 C 17.664063 91.816406 17.839844 91.492188 18.078125 91.339844 L 18.96875 90.609375 L 19.046875 90.640625 C 19.054688 90.230469 19.621094 89.917969 19.992188 89.59375 C 20.230469 89.339844 20.582031 89.085938 20.859375 88.8125 C 20.882813 88.699219 21.046875 88.691406 21.109375 88.621094 C 21.183594 88.285156 21.542969 88.171875 21.699219 87.929688 C 22.253906 87.628906 22.445313 87.105469 23.019531 86.9375 L 23.113281 86.816406 L 23.144531 86.835938 C 23.179688 86.570313 23.261719 86.582031 23.394531 86.324219 L 24.140625 85.71875 L 24.160156 85.738281 C 24.292969 85.617188 24.324219 85.554688 24.511719 85.425781 C 24.644531 85.425781 24.789063 85.394531 24.851563 85.285156 C 24.78125 85.230469 24.894531 85.078125 24.925781 84.988281 C 25.070313 84.96875 25.050781 84.773438 25.175781 84.722656 C 25.710938 84.246094 26.25 83.769531 26.746094 83.386719 C 26.726563 83.222656 26.960938 83.304688 26.992188 83.140625 C 27.167969 83.132813 27.128906 82.96875 27.191406 82.867188 C 27.585938 82.472656 27.976563 82.105469 28.453125 81.699219 C 28.453125 81.566406 28.699219 81.621094 28.648438 81.507813 C 28.691406 81.519531 28.730469 81.488281 28.753906 81.527344 C 28.867188 81.375 29.144531 81.234375 29.074219 81.070313 C 29.136719 80.886719 29.375 80.859375 29.496094 80.828125 L 29.847656 80.410156 C 29.878906 80.554688 29.765625 80.625 29.847656 80.730469 C 29.703125 80.808594 29.800781 81.027344 29.742188 81.078125 L 29.71875 81.078125 C 29.679688 81.136719 29.6875 81.351563 29.683594 81.488281 L 29.632813 81.484375 C 29.652344 81.90625 29.496094 82.191406 29.40625 82.621094 L 29.429688 82.640625 L 29.375 82.691406 C 29.417969 82.777344 29.3125 83.050781 29.300781 83.164063 C 29.246094 83.378906 29.304688 83.707031 29.148438 83.921875 C 29.082031 84.605469 28.910156 85.179688 28.832031 85.835938 C 28.730469 85.925781 28.734375 86.386719 28.628906 86.671875 C 28.710938 86.726563 28.515625 86.765625 28.648438 86.816406 C 28.617188 86.929688 28.515625 87.042969 28.453125 87.113281 C 28.320313 87.164063 28.304688 87.355469 28.304688 87.5 C 27.777344 88.140625 27.257813 88.710938 26.761719 89.3125 C 26.605469 89.492188 26.378906 89.511719 26.355469 89.746094 C 26.128906 89.972656 25.878906 90.203125 25.734375 90.511719 C 25.640625 90.601563 25.351563 90.691406 25.390625 90.898438 C 25.070313 91.191406 24.933594 91.488281 24.542969 91.730469 C 24.230469 92.117188 23.980469 92.535156 23.597656 92.867188 L 23.597656 92.972656 C 23.507813 92.9375 23.546875 93.042969 23.527344 93.074219 C 23.183594 93.5625 22.726563 94.007813 22.375 94.433594 C 22.28125 94.597656 22.066406 94.617188 21.960938 94.75 L 21.972656 94.738281 L 22.023438 94.78125 L 22.003906 94.800781 L 21.980469 94.78125 C 22 94.902344 21.859375 94.859375 21.835938 94.941406 L 21.855469 94.972656 C 21.828125 94.941406 21.765625 94.972656 21.734375 95.023438 L 21.730469 95.1875 C 21.460938 95.542969 21.089844 95.910156 20.839844 96.316406 C 20.632813 96.324219 20.722656 96.582031 20.507813 96.558594 C 20.4375 96.691406 20.425781 96.671875 20.363281 96.824219 C 20.054688 97.046875 19.917969 97.457031 19.597656 97.605469 C 19.574219 97.699219 19.511719 97.730469 19.441406 97.800781 L 19.492188 97.851563 C 19.265625 97.960938 19.210938 98.226563 19.046875 98.410156 C 18.964844 98.347656 18.921875 98.535156 18.820313 98.511719 C 18.796875 98.644531 18.691406 98.839844 18.519531 98.929688 C 18.238281 99.234375 17.855469 99.578125 17.730469 99.945313 C 17.667969 99.988281 17.535156 99.957031 17.554688 100.066406 C 17.523438 100.066406 17.492188 100.066406 17.480469 100.097656 C 17.492188 100.128906 17.410156 100.160156 17.359375 100.1875 L 17.148438 100.484375 L 17.128906 100.464844 C 16.890625 100.914063 16.515625 101.238281 16.207031 101.683594 L 16.277344 101.738281 C 16.761719 101.394531 17.03125 101.066406 17.425781 100.734375 L 17.445313 100.765625 C 17.652344 100.644531 17.691406 100.53125 17.816406 100.316406 C 17.980469 100.265625 18.074219 100.164063 18.1875 100.054688 L 18.167969 100.03125 C 18.5 99.75 18.882813 99.515625 19.109375 99.203125 C 19.234375 98.90625 19.5625 98.992188 19.679688 98.664063 C 19.84375 98.625 19.855469 98.472656 19.976563 98.472656 L 19.957031 98.449219 C 20.0625 98.371094 20.164063 98.339844 20.15625 98.175781 C 20.707031 97.464844 21.40625 97.140625 22.035156 96.574219 C 22.089844 96.359375 22.226563 96.175781 22.410156 96.085938 C 22.636719 95.8125 22.980469 95.457031 23.382813 95.253906 C 23.453125 95.113281 23.527344 95.152344 23.679688 95.113281 C 23.671875 94.96875 23.988281 94.910156 23.828125 94.746094 C 23.953125 94.441406 24.28125 94.359375 24.449219 94.085938 C 24.878906 93.957031 24.996094 93.597656 25.367188 93.378906 C 25.574219 93.214844 25.71875 93.03125 25.9375 92.871094 C 25.988281 92.828125 25.988281 92.675781 26.082031 92.769531 L 26.308594 92.605469 L 26.289063 92.578125 C 26.320313 92.566406 26.441406 92.496094 26.433594 92.382813 L 26.414063 92.363281 C 26.792969 92.203125 26.726563 91.71875 27.160156 91.527344 C 27.3125 91.519531 27.488281 91.46875 27.601563 91.390625 C 27.59375 91.257813 27.664063 91.289063 27.746094 91.21875 C 27.625 91.953125 27.414063 92.71875 27.335938 93.601563 L 27.304688 93.570313 C 27.292969 93.589844 27.273438 93.601563 27.28125 93.621094 L 27.332031 93.671875 L 27.261719 93.765625 C 27.257813 93.878906 27.175781 94.113281 27.203125 94.257813 L 27.175781 94.234375 C 27.03125 95.0625 26.847656 96.046875 26.691406 96.671875 C 26.699219 96.703125 26.667969 96.742188 26.707031 96.761719 L 26.6875 96.742188 L 26.65625 97.082031 L 26.632813 97.058594 C 26.644531 97.203125 26.507813 97.367188 26.558594 97.53125 L 26.507813 97.570313 L 26.558594 97.621094 C 26.496094 97.671875 26.464844 97.777344 26.484375 97.867188 L 26.492188 97.859375 L 26.523438 97.878906 L 26.503906 97.898438 L 26.484375 97.867188 C 26.421875 98.03125 26.367188 98.164063 26.425781 98.308594 L 26.398438 98.289063 C 26.335938 98.441406 26.332031 98.5625 26.300781 98.707031 L 26.3125 98.6875 L 26.363281 98.738281 L 26.351563 98.757813 L 26.320313 98.726563 C 26.226563 98.808594 26.296875 98.984375 26.246094 99.042969 C 26.148438 99.585938 26.074219 99.863281 25.722656 100.25 C 25.453125 100.410156 25.390625 100.636719 25.171875 100.839844 C 24.832031 100.957031 24.675781 101.335938 24.429688 101.609375 L 24.449219 101.640625 C 24.304688 101.773438 24.148438 101.84375 24.054688 102.007813 C 24.003906 102.160156 23.824219 102.433594 23.648438 102.585938 C 23.652344 102.433594 23.46875 102.195313 23.511719 101.949219 C 23.453125 101.855469 23.453125 101.671875 23.414063 101.527344 C 22.988281 99.78125 22.667969 98.230469 22.3125 96.578125 C 22.3125 96.546875 22.171875 96.382813 22.109375 96.472656 C 22.015625 96.480469 22.097656 96.542969 22.085938 96.574219 C 22.058594 96.574219 22.027344 96.5625 22.015625 96.59375 C 22.21875 96.628906 22.023438 96.832031 22.011719 96.945313 C 21.503906 99.726563 20.945313 102.417969 20.425781 105.171875 C 16.929688 103.003906 14.210938 100.210938 11.976563 96.773438 "/>
<path style=" stroke:none;fill-rule:nonzero;fill:rgb(100%,100%,100%);fill-opacity:1;" d="M 49.347656 103.898438 C 49.679688 103.453125 50.195313 103.117188 50.566406 102.722656 L 50.589844 102.753906 C 50.734375 102.367188 51.148438 102.234375 51.4375 101.921875 C 51.589844 101.839844 51.789063 101.648438 51.878906 101.585938 C 52.179688 101.292969 52.382813 100.660156 52.925781 100.488281 C 52.980469 100.335938 53.132813 100.441406 53.246094 100.339844 C 53.371094 100.085938 53.660156 99.863281 53.898438 99.761719 C 54 99.609375 54.160156 99.273438 54.34375 99.191406 L 54.3125 99.171875 C 54.496094 99.140625 54.5 98.957031 54.644531 98.875 C 54.820313 98.859375 54.839844 98.664063 55.035156 98.738281 C 55.375 98.554688 55.410156 97.953125 55.902344 97.90625 C 56.039063 97.699219 56.328125 97.5 56.523438 97.328125 C 56.574219 97.441406 56.636719 97.308594 56.699219 97.296875 C 56.710938 97.277344 56.761719 97.257813 56.75 97.226563 L 56.71875 97.207031 C 56.894531 97.082031 56.773438 96.960938 57 96.859375 C 57.21875 96.5625 57.445313 96.363281 57.714844 96.128906 C 55.691406 99.644531 52.816406 102.589844 49.417969 104.832031 C 49.390625 104.566406 49.148438 104.101563 49.347656 103.898438 "/>
<path style=" stroke:none;fill-rule:nonzero;fill:rgb(100%,100%,100%);fill-opacity:1;" d="M 44.277344 102.34375 C 44.101563 101.472656 43.894531 100.78125 43.777344 99.878906 C 44.003906 99.667969 44.050781 99.398438 44.378906 99.300781 C 44.480469 99.167969 44.636719 99.078125 44.769531 98.976563 C 44.875 98.835938 45.007813 98.734375 45.125 98.609375 C 45.265625 98.652344 45.246094 98.46875 45.300781 98.417969 C 45.859375 97.683594 46.675781 97.066406 47.429688 96.542969 L 47.5 96.46875 C 47.507813 96.890625 47.402344 97.148438 47.296875 97.574219 C 47.113281 98.539063 46.847656 99.539063 46.632813 100.574219 C 46.539063 100.542969 46.570313 100.644531 46.527344 100.675781 C 46.300781 100.796875 46.3125 100.886719 46.105469 101.082031 C 46.175781 101.195313 46.019531 101.335938 45.957031 101.425781 C 45.492188 101.761719 45.242188 102.300781 44.789063 102.648438 L 44.714844 102.769531 C 44.550781 102.726563 44.457031 102.992188 44.394531 103.0625 C 44.363281 102.878906 44.296875 102.609375 44.277344 102.34375 "/>
<path style=" stroke:none;fill-rule:nonzero;fill:rgb(100%,100%,100%);fill-opacity:1;" d="M 48.597656 100.839844 C 48.566406 100.757813 48.730469 100.707031 48.640625 100.613281 C 48.984375 100.113281 49.765625 99.855469 50.109375 99.398438 C 50.171875 99.292969 50.285156 99.195313 50.40625 99.113281 C 50.585938 98.734375 51.027344 98.597656 51.296875 98.332031 C 51.558594 97.820313 51.957031 97.753906 52.21875 97.285156 C 52.664063 96.949219 53.109375 96.472656 53.5625 96.28125 C 53.699219 96.019531 54.058594 95.96875 54.027344 95.652344 C 54.371094 95.390625 54.691406 95.03125 55.09375 94.820313 C 55.394531 94.546875 55.488281 94.160156 55.839844 94 C 56.136719 93.828125 56.304688 93.4375 56.683594 93.390625 C 56.8125 93.175781 56.957031 92.871094 57.203125 92.730469 C 57.597656 92.445313 57.753906 92.070313 58.246094 91.878906 C 58.578125 91.738281 58.355469 91.355469 58.695313 91.339844 C 58.949219 91.269531 59.046875 90.871094 59.316406 90.710938 L 59.894531 90.265625 L 59.8125 90.191406 C 60.132813 89.980469 60.289063 89.59375 60.589844 89.410156 C 60.660156 89.535156 60.484375 89.636719 60.515625 89.738281 C 59.972656 90.398438 59.351563 90.996094 58.792969 91.636719 C 58.804688 91.710938 58.722656 91.761719 58.648438 91.8125 C 58.574219 91.953125 58.410156 92.066406 58.367188 92.21875 C 58.265625 92.257813 58.203125 92.421875 58.121094 92.492188 C 58.191406 92.554688 58.191406 92.460938 58.21875 92.566406 C 57.996094 92.449219 57.890625 92.808594 57.777344 92.878906 C 57.53125 92.886719 57.515625 93.234375 57.25 93.242188 C 56.957031 93.867188 56.605469 94.222656 56.199219 94.738281 C 56.128906 94.78125 56.035156 94.863281 55.953125 94.828125 C 55.789063 94.992188 55.609375 95.402344 55.433594 95.511719 C 55.371094 95.632813 55.257813 95.765625 55.132813 95.878906 C 54.949219 95.867188 54.988281 96.082031 54.914063 96.171875 C 54.511719 96.570313 54.230469 97.027344 53.890625 97.464844 C 53.589844 97.605469 53.382813 97.960938 53.195313 98.105469 C 53.113281 98.113281 53.0625 98.234375 53.050781 98.316406 C 52.335938 98.875 51.855469 100.101563 51.058594 100.59375 C 51.027344 100.699219 50.882813 100.808594 50.832031 100.859375 C 50.738281 100.941406 50.75 100.960938 50.6875 101.054688 L 50.65625 101.03125 C 50.613281 101.105469 50.542969 101.195313 50.4375 101.226563 L 50.460938 101.246094 C 50.324219 101.222656 50.417969 101.410156 50.3125 101.417969 C 50.15625 101.785156 49.855469 102.203125 49.464844 102.25 C 49.25 102.371094 49.398438 102.90625 49.039063 102.953125 C 48.851563 102.253906 48.773438 101.535156 48.597656 100.839844 "/>
<path style=" stroke:none;fill-rule:nonzero;fill:rgb(100%,100%,100%);fill-opacity:1;" d="M 47.75 96.175781 C 47.820313 96.195313 47.855469 96.117188 47.90625 96.085938 C 48.308594 95.875 48.363281 95.351563 48.816406 95.203125 L 48.796875 95.179688 C 49.226563 95.175781 49.40625 94.652344 49.765625 94.503906 C 50.664063 93.640625 51.328125 92.890625 52.25 92.160156 C 52.269531 92.015625 52.546875 92.007813 52.445313 91.84375 C 52.5625 91.648438 52.898438 91.582031 52.890625 91.355469 C 53.449219 90.921875 54.007813 90.394531 54.433594 89.894531 C 54.503906 89.886719 54.515625 89.824219 54.578125 89.804688 L 54.578125 89.753906 L 54.609375 89.773438 C 54.960938 89.4375 55.292969 89.082031 55.695313 88.800781 C 55.859375 88.832031 55.984375 88.660156 56.097656 88.589844 C 56.035156 88.546875 56.085938 88.464844 56.136719 88.464844 L 56.117188 88.433594 C 56.242188 88.40625 56.242188 88.210938 56.417969 88.242188 C 56.511719 88.109375 56.726563 88.039063 56.71875 87.855469 C 56.976563 87.683594 57.171875 87.429688 57.378906 87.246094 C 57.382813 87.164063 57.484375 87.085938 57.535156 87.074219 C 58.03125 86.597656 58.304688 86.078125 58.871094 85.683594 C 58.992188 85.808594 59.066406 85.582031 59.078125 85.511719 C 59.226563 85.132813 59.789063 84.972656 59.867188 84.585938 C 59.96875 84.472656 60.175781 84.414063 60.238281 84.269531 C 60.308594 84.230469 60.371094 84.394531 60.390625 84.273438 L 60.339844 84.222656 L 60.464844 84.121094 C 60.476563 84.070313 60.445313 84.171875 60.484375 84.171875 C 60.535156 84.152344 60.507813 84.089844 60.515625 84.046875 C 60.628906 84.082031 60.589844 83.792969 60.765625 83.835938 C 60.871094 83.589844 61.117188 83.519531 61.3125 83.316406 C 61.453125 83.636719 61.082031 83.734375 61.101563 84.003906 L 61.007813 84.054688 L 61.03125 84.082031 C 60.957031 84.03125 60.96875 84.164063 60.9375 84.207031 L 60.9375 84.15625 C 60.785156 84.070313 60.699219 84.410156 60.511719 84.449219 C 60.488281 84.746094 60.230469 85.050781 59.964844 85.179688 L 59.890625 85.148438 C 59.941406 85.230469 59.777344 85.269531 59.839844 85.34375 C 59.753906 85.40625 59.714844 85.566406 59.589844 85.585938 C 59.609375 85.75 59.21875 85.757813 59.164063 86.003906 C 59.0625 86.175781 58.863281 86.378906 58.699219 86.472656 C 58.429688 86.835938 58.089844 87.152344 57.796875 87.570313 C 57.589844 87.722656 57.414063 88.035156 57.207031 88.230469 C 56.855469 88.605469 56.511719 89.054688 56.128906 89.273438 C 55.773438 90.050781 55 90.773438 54.511719 91.371094 L 54.441406 91.351563 C 54.292969 91.492188 54.230469 91.769531 54.015625 91.859375 C 53.804688 92.308594 53.351563 92.519531 53.121094 92.957031 C 52.875 93.117188 52.769531 93.355469 52.605469 93.546875 C 52.5625 93.667969 52.4375 93.820313 52.375 93.933594 C 52.28125 94.015625 52.136719 94.199219 52.054688 94.28125 L 51.703125 94.523438 L 51.734375 94.542969 C 51.488281 94.601563 51.523438 94.898438 51.277344 94.960938 C 51.132813 95.050781 51.171875 95.285156 50.957031 95.273438 C 50.871094 95.703125 50.5625 95.945313 50.363281 96.28125 C 49.886719 96.71875 49.511719 97.359375 48.964844 97.695313 L 48.964844 97.746094 C 48.75 97.804688 48.902344 98.050781 48.644531 98.132813 L 48.644531 98.203125 C 48.539063 98.253906 48.527344 98.417969 48.375 98.425781 L 48.195313 98.792969 C 48.050781 97.921875 47.824219 97.046875 47.75 96.175781 "/>
<path style=" stroke:none;fill-rule:nonzero;fill:rgb(100%,100%,100%);fill-opacity:1;" d="M 43.339844 97.609375 C 43.03125 96.449219 42.890625 95.074219 42.636719 94.035156 L 42.707031 93.964844 L 42.675781 93.945313 C 42.839844 93.925781 42.792969 93.78125 42.882813 93.71875 L 42.832031 93.628906 C 42.863281 93.636719 42.886719 93.585938 42.90625 93.578125 L 42.886719 93.546875 C 43.488281 92.925781 43.953125 92.398438 44.714844 92.085938 C 44.828125 91.945313 45.003906 91.75 45.160156 91.722656 C 45.179688 91.710938 45.199219 91.703125 45.191406 91.683594 L 45.160156 91.652344 C 45.261719 91.46875 45.597656 90.96875 45.988281 90.898438 C 46.152344 90.789063 46.316406 90.699219 46.308594 90.433594 C 46.441406 90.300781 46.617188 90.238281 46.679688 90.066406 C 46.855469 89.964844 47.011719 89.800781 47.195313 89.734375 L 47.269531 89.683594 L 47.25 89.652344 C 47.433594 89.589844 47.273438 89.4375 47.425781 89.335938 C 47.34375 89.203125 47.507813 89.234375 47.5 89.121094 C 47.613281 89.121094 47.816406 89.125 47.871094 89.023438 C 48.027344 88.859375 48.160156 88.839844 48.261719 88.65625 C 48.429688 88.574219 48.71875 88.167969 49.039063 87.976563 C 49.132813 87.8125 49.378906 87.664063 49.503906 87.488281 C 49.65625 87.5625 49.710938 87.367188 49.753906 87.367188 C 49.824219 87.207031 49.792969 87.316406 49.90625 87.144531 C 50.03125 87.117188 50.144531 87.148438 50.207031 87.003906 C 50.269531 86.941406 50.382813 86.851563 50.351563 86.730469 C 50.351563 86.699219 50.464844 86.605469 50.355469 86.566406 C 50.632813 86.332031 51.066406 86.273438 51.222656 85.957031 C 51.242188 85.949219 51.25 85.96875 51.273438 85.980469 C 51.375 85.9375 51.273438 85.824219 51.292969 85.785156 C 51.542969 85.511719 51.789063 85.347656 52.039063 85.074219 C 52.214844 85.15625 52.113281 84.921875 52.265625 84.953125 C 52.328125 84.921875 52.628906 84.761719 52.660156 84.535156 C 52.710938 84.445313 52.914063 84.578125 52.9375 84.375 C 52.886719 84.34375 53.074219 84.285156 52.980469 84.222656 C 53.238281 83.976563 53.476563 83.722656 53.808594 83.59375 L 53.972656 83.421875 L 53.933594 83.371094 C 53.960938 83.378906 53.972656 83.339844 54.003906 83.320313 C 53.921875 83.207031 54.160156 83.226563 54.179688 83.125 C 54.5625 82.78125 55.132813 82.210938 55.617188 81.890625 L 55.691406 81.820313 L 55.667969 81.789063 C 55.742188 81.5 56.089844 81.667969 56.238281 81.453125 C 56.28125 81.148438 56.496094 80.976563 56.734375 80.742188 C 56.972656 80.632813 57.160156 80.480469 57.355469 80.308594 L 57.324219 80.277344 C 57.605469 79.898438 57.945313 79.675781 58.296875 79.332031 C 58.296875 79.207031 58.238281 79.207031 58.246094 79.136719 C 58.578125 79.058594 58.671875 78.730469 58.992188 78.652344 C 59.054688 78.507813 59.21875 78.40625 59.1875 78.234375 C 59.351563 78.246094 59.539063 78.050781 59.683594 78.085938 C 59.765625 77.765625 60.148438 77.617188 60.285156 77.3125 C 60.273438 77.332031 60.292969 77.34375 60.304688 77.351563 C 60.480469 77.382813 60.398438 77.078125 60.582031 77.140625 C 60.644531 77.058594 60.789063 76.976563 60.710938 76.863281 C 60.800781 76.875 60.863281 76.753906 60.957031 76.824219 C 60.890625 77.226563 60.527344 77.527344 60.230469 77.75 C 60.207031 77.976563 59.960938 78.054688 59.785156 78.136719 C 59.355469 78.953125 58.492188 79.4375 58.023438 80.191406 C 57.617188 80.761719 57.046875 81.277344 56.625 81.777344 C 56.671875 81.921875 56.5 81.949219 56.40625 82.019531 L 56.425781 82.039063 C 56.382813 82.070313 56.332031 82.058594 56.300781 82.113281 L 56.320313 82.140625 C 55.832031 82.894531 55.191406 83.546875 54.558594 84.164063 C 54.386719 84.101563 54.300781 84.347656 54.238281 84.460938 L 54.238281 84.675781 C 53.894531 85.195313 53.296875 85.640625 53.015625 86.097656 C 52.789063 86.125 52.652344 86.351563 52.589844 86.484375 C 52.628906 86.730469 52.351563 86.800781 52.246094 86.992188 C 52.316406 87.054688 52.144531 87.15625 52.089844 87.21875 C 51.894531 87.175781 51.90625 87.367188 51.769531 87.441406 C 51.859375 87.6875 51.539063 87.878906 51.425781 88.070313 C 51.25 88.121094 51.230469 88.40625 51.003906 88.386719 C 50.785156 88.507813 50.8125 88.835938 50.578125 88.976563 C 50.246094 89.476563 49.84375 89.664063 49.480469 90.195313 L 49.507813 90.214844 C 49.355469 90.347656 49.136719 90.613281 49.011719 90.828125 L 48.960938 90.824219 C 48.617188 91.273438 48.46875 91.609375 47.988281 91.902344 L 47.945313 92.046875 L 47.914063 92.027344 C 47.820313 92.269531 47.726563 92.230469 47.589844 92.535156 C 47.570313 92.546875 47.558594 92.523438 47.539063 92.515625 C 47.546875 92.6875 47.3125 92.746094 47.289063 92.933594 C 47.082031 93.042969 46.9375 93.339844 46.742188 93.4375 L 46.574219 93.683594 L 46.542969 93.664063 C 46.265625 93.722656 46.378906 93.980469 46.242188 94.121094 C 45.765625 94.628906 45.421875 95.078125 44.90625 95.535156 C 44.9375 95.625 44.84375 95.625 44.804688 95.65625 C 44.535156 95.898438 44.734375 96.21875 44.425781 96.371094 C 44.242188 96.59375 44.011719 96.910156 43.855469 97.050781 L 43.835938 97.03125 C 43.742188 97.222656 43.542969 97.519531 43.339844 97.609375 "/>
<path style=" stroke:none;fill-rule:nonzero;fill:rgb(100%,100%,100%);fill-opacity:1;" d="M 9.15625 90.792969 C 9.1875 90.597656 9.421875 90.703125 9.527344 90.570313 C 9.785156 90.328125 10.085938 90.09375 10.324219 89.839844 L 10.34375 89.871094 C 10.394531 89.71875 10.558594 89.605469 10.714844 89.628906 C 11.105469 89.304688 11.386719 88.925781 11.757813 88.726563 L 11.808594 88.625 L 11.832031 88.65625 C 12.183594 88.105469 13.082031 87.640625 13.496094 87.09375 C 13.710938 86.941406 13.921875 86.65625 14.167969 86.503906 C 14.179688 86.339844 14.40625 86.25 14.507813 86.136719 C 14.726563 86.179688 14.789063 85.914063 14.933594 85.804688 C 15.246094 85.398438 15.636719 85.09375 16.050781 84.726563 C 16.171875 84.71875 16.371094 84.628906 16.421875 84.464844 C 16.351563 84.402344 16.484375 84.394531 16.476563 84.3125 C 16.578125 84.324219 16.558594 84.105469 16.671875 84.148438 C 17.179688 83.621094 17.882813 83.117188 18.386719 82.585938 C 18.480469 82.609375 18.59375 82.476563 18.585938 82.414063 L 18.605469 82.445313 C 18.636719 82.425781 18.636719 82.394531 18.636719 82.363281 L 18.65625 82.394531 C 18.785156 81.925781 19.453125 81.683594 19.773438 81.269531 C 20.105469 81.078125 20.304688 80.6875 20.695313 80.539063 C 20.695313 80.445313 20.789063 80.375 20.789063 80.222656 C 21.574219 79.6875 22.257813 78.933594 23.019531 78.378906 L 23.023438 78.273438 L 23.050781 78.304688 C 23.125 78.246094 23.105469 78.113281 23.074219 78.101563 C 23.335938 77.777344 23.746094 77.472656 24.136719 77.332031 C 24.253906 76.996094 24.59375 76.988281 24.808594 76.765625 C 24.78125 76.589844 24.863281 76.507813 24.9375 76.398438 C 25.359375 76.074219 25.824219 75.597656 26.226563 75.300781 C 26.582031 74.90625 26.992188 74.582031 27.449219 74.308594 C 27.542969 74.199219 27.460938 74.15625 27.574219 74.085938 C 27.441406 74.074219 27.613281 74.015625 27.59375 73.960938 C 27.988281 73.699219 28.195313 73.324219 28.636719 73.164063 L 28.710938 73.089844 C 28.914063 73.023438 28.816406 72.753906 28.980469 72.621094 C 29.222656 72.214844 29.714844 72.066406 29.953125 71.730469 C 30.128906 71.78125 29.984375 71.628906 30.097656 71.609375 C 30.328125 71.3125 30.828125 71.339844 30.871094 71 C 31.253906 70.738281 31.464844 70.351563 31.835938 70.046875 C 31.703125 71.082031 31.382813 72.359375 31.21875 73.464844 L 31.167969 73.503906 L 31.21875 73.554688 L 31.1875 73.554688 C 31.113281 73.863281 31.121094 74.148438 31.015625 74.414063 C 30.871094 74.402344 30.820313 74.515625 30.734375 74.609375 C 30.726563 74.636719 30.746094 74.648438 30.765625 74.660156 C 30.710938 75.039063 30.246094 75.339844 30.058594 75.667969 C 29.769531 76.023438 29.449219 76.316406 29.21875 76.644531 C 29.085938 76.671875 29.085938 76.855469 28.941406 76.925781 L 28.917969 76.90625 C 28.648438 77.210938 28.285156 77.722656 27.902344 78.003906 C 27.714844 78.503906 27.300781 79.042969 26.753906 79.273438 C 26.363281 79.570313 26.519531 80.0625 26.078125 80.34375 C 26.085938 80.4375 25.984375 80.4375 25.953125 80.496094 C 25.972656 80.527344 25.789063 80.699219 25.664063 80.6875 L 25.632813 80.710938 L 25.664063 80.742188 C 25.632813 80.6875 25.59375 80.75 25.5625 80.761719 L 25.558594 80.832031 C 25.488281 80.894531 25.40625 81.066406 25.289063 81.105469 C 25.261719 81.117188 25.261719 81.148438 25.257813 81.175781 C 25.125 81.164063 25.226563 81.257813 25.136719 81.300781 L 25.1875 81.351563 C 24.867188 81.492188 24.707031 82.054688 24.367188 82.171875 C 24.199219 82.777344 23.550781 83.191406 23.195313 83.71875 C 23.09375 83.730469 23.0625 83.820313 22.96875 83.789063 C 22.84375 83.992188 22.820313 84.210938 22.695313 84.371094 C 22.726563 84.402344 22.746094 84.445313 22.800781 84.421875 C 22.769531 84.453125 22.695313 84.453125 22.714844 84.527344 C 22.675781 84.320313 22.542969 84.503906 22.449219 84.523438 C 22.429688 84.53125 22.40625 84.585938 22.378906 84.574219 L 22.347656 84.542969 C 22.367188 84.632813 22.292969 84.632813 22.253906 84.695313 C 22.074219 85.15625 21.742188 85.417969 21.453125 85.816406 L 21.15625 85.863281 L 21.15625 85.933594 L 21.132813 85.914063 C 20.875 86.023438 21.140625 86.140625 20.976563 86.304688 C 20.976563 86.355469 20.914063 86.457031 20.8125 86.476563 C 20.71875 86.390625 20.65625 86.523438 20.585938 86.542969 C 20.605469 86.605469 20.59375 86.628906 20.511719 86.667969 C 20.46875 86.882813 20.253906 86.972656 20.230469 87.230469 C 19.992188 87.246094 20.082031 87.554688 19.886719 87.667969 C 19.421875 88.152344 19.015625 88.785156 18.519531 89.058594 C 18.414063 89.496094 17.980469 89.839844 17.769531 90.230469 L 17.742188 90.207031 C 17.511719 90.441406 17.398438 90.75 17.078125 90.796875 L 16.976563 90.886719 L 16.996094 90.917969 C 16.882813 90.988281 16.71875 91.070313 16.726563 91.234375 L 16.777344 91.234375 C 16.703125 91.398438 16.496094 91.609375 16.402344 91.816406 C 16.132813 92.109375 15.875 92.496094 15.554688 92.71875 C 15.449219 92.945313 15.128906 93.1875 15.003906 93.429688 C 14.828125 93.441406 14.867188 93.757813 14.683594 93.625 C 14.515625 94.019531 14.011719 94.3125 13.882813 94.671875 C 13.667969 94.875 13.535156 94.957031 13.316406 95.085938 C 13.148438 95.609375 12.601563 95.714844 12.351563 96.132813 C 12.300781 96.203125 12.136719 96.273438 12.195313 96.410156 C 12.082031 96.5 11.988281 96.632813 11.925781 96.722656 C 10.839844 94.878906 9.800781 92.859375 9.15625 90.792969 "/>
<path style=" stroke:none;fill-rule:nonzero;fill:rgb(100%,100%,100%);fill-opacity:1;" d="M 7.863281 84.332031 L 7.957031 84.332031 L 7.882813 84.433594 C 7.992188 84.671875 8.160156 84.394531 8.253906 84.355469 C 8.46875 84.222656 8.605469 83.796875 8.90625 83.746094 C 9.070313 83.59375 9.207031 83.390625 9.320313 83.238281 C 9.421875 83.179688 9.472656 83.261719 9.546875 83.136719 L 9.597656 83.191406 C 9.628906 83.179688 9.617188 83.148438 9.617188 83.117188 C 9.648438 83.117188 9.679688 83.128906 9.691406 83.097656 L 9.691406 82.996094 L 9.722656 83.015625 C 9.742188 82.984375 9.792969 82.964844 9.792969 82.925781 L 9.773438 82.894531 C 9.898438 82.855469 9.910156 82.648438 10.023438 82.578125 C 10.28125 82.539063 10.382813 82.296875 10.640625 82.195313 L 10.613281 82.164063 C 10.808594 82.105469 10.921875 81.828125 11.109375 81.726563 C 11.160156 81.625 11.292969 81.523438 11.386719 81.535156 C 11.507813 81.539063 11.5625 81.324219 11.675781 81.292969 C 12 80.742188 12.699219 80.226563 13.269531 79.6875 C 13.394531 79.628906 13.609375 79.546875 13.640625 79.394531 C 13.796875 79.3125 13.808594 79.171875 13.960938 79.101563 C 14.058594 78.855469 14.476563 78.902344 14.4375 78.683594 L 14.613281 78.511719 C 14.5 78.46875 14.71875 78.410156 14.6875 78.296875 C 15.246094 77.894531 15.773438 77.335938 16.320313 76.910156 C 16.691406 76.832031 16.871094 76.320313 17.066406 76.125 C 17.5625 75.617188 18.121094 75.234375 18.628906 74.738281 L 19.652344 73.8125 C 19.792969 73.867188 19.765625 73.652344 19.898438 73.601563 C 20.027344 73.222656 20.53125 73.023438 20.789063 72.75 C 21.242188 72.363281 21.585938 72.058594 21.980469 71.652344 C 22.113281 71.632813 22.101563 71.5 22.257813 71.480469 C 22.539063 70.960938 23.148438 70.507813 23.621094 70.214844 C 23.644531 70.050781 23.851563 69.929688 23.964844 69.828125 L 23.945313 69.796875 C 24.007813 69.734375 24.199219 69.769531 24.140625 69.601563 C 24.347656 69.511719 24.53125 69.402344 24.667969 69.257813 C 24.699219 69.269531 24.707031 69.230469 24.738281 69.21875 L 24.707031 69.1875 C 24.679688 69.148438 24.882813 69.085938 24.8125 68.972656 C 25.09375 68.761719 25.34375 68.332031 25.679688 68.246094 C 25.710938 68.214844 25.710938 68.164063 25.753906 68.144531 C 25.972656 67.847656 26.1875 67.757813 26.445313 67.511719 C 26.707031 67.3125 26.871094 67.035156 27.121094 66.824219 L 27.101563 66.800781 L 27.222656 66.679688 L 27.191406 66.660156 C 27.339844 66.488281 27.554688 66.519531 27.769531 66.417969 L 27.738281 66.335938 C 27.789063 66.359375 27.8125 66.316406 27.84375 66.296875 L 27.8125 66.265625 C 27.894531 66.042969 28.277344 65.789063 28.464844 65.535156 C 28.617188 65.484375 28.671875 65.339844 28.804688 65.238281 C 29.199219 64.976563 29.507813 64.550781 29.832031 64.265625 C 29.953125 64.234375 30.085938 64.15625 30.128906 64.023438 C 30.171875 63.949219 30.355469 63.890625 30.378906 63.757813 C 31.050781 63.3125 31.496094 62.621094 32.1875 62.195313 C 32.289063 62.167969 32.375 61.789063 32.582031 61.863281 L 32.613281 61.792969 C 32.621094 61.820313 32.652344 61.8125 32.683594 61.8125 C 32.632813 61.738281 32.847656 61.761719 32.808594 61.691406 C 32.746094 61.648438 32.984375 61.589844 32.902344 61.445313 C 33.160156 61.203125 33.398438 61.039063 33.644531 60.835938 C 33.496094 61.460938 33.429688 61.953125 33.3125 62.484375 C 33.1875 62.707031 32.949219 63.003906 32.71875 63.238281 L 32.742188 63.269531 C 32.464844 63.347656 32.367188 63.644531 32.242188 63.847656 L 30.324219 66.09375 C 30.191406 66.09375 30.058594 66.144531 30.007813 66.265625 C 29.902344 66.347656 30.054688 66.441406 29.933594 66.511719 C 29.898438 66.675781 29.644531 66.632813 29.613281 66.773438 C 29.445313 66.835938 29.382813 66.976563 29.3125 67.089844 L 29.308594 67.171875 L 29.28125 67.140625 C 29.207031 67.171875 29.257813 67.253906 29.207031 67.292969 L 29.238281 67.316406 L 29.113281 67.386719 L 29.132813 67.417969 C 29.03125 67.558594 28.742188 67.800781 28.636719 68.097656 C 28.335938 68.363281 28.117188 68.820313 27.746094 69.003906 C 27.722656 69.175781 27.597656 69.328125 27.464844 69.441406 C 27.421875 69.460938 27.453125 69.523438 27.441406 69.5625 L 27.410156 69.53125 C 27.070313 69.816406 26.914063 70.253906 26.5 70.464844 C 26.480469 70.578125 26.375 70.558594 26.394531 70.679688 C 26.238281 70.894531 26.074219 71.085938 25.898438 71.238281 L 25.917969 71.269531 C 25.742188 71.566406 25.453125 71.902344 25.128906 72.195313 C 24.925781 72.378906 24.746094 72.796875 24.40625 72.90625 C 24.085938 73.128906 24.132813 73.519531 23.78125 73.761719 C 23.792969 73.90625 23.671875 73.769531 23.660156 73.902344 L 23.679688 73.882813 L 23.699219 73.914063 L 23.679688 73.925781 L 23.660156 73.902344 C 23.585938 74.066406 23.402344 74.105469 23.335938 74.21875 L 23.359375 74.25 L 23.183594 74.414063 L 23.214844 74.441406 C 23.171875 74.472656 23.089844 74.472656 23.089844 74.535156 L 23.109375 74.566406 C 23.058594 74.523438 23.015625 74.625 22.964844 74.65625 L 22.984375 74.6875 C 22.882813 74.738281 22.789063 74.847656 22.734375 75.003906 C 22.746094 74.980469 22.726563 74.972656 22.714844 74.949219 C 22.671875 75.164063 22.417969 75.214844 22.433594 75.390625 C 22.199219 75.550781 22.082031 75.773438 21.917969 76 C 21.75 76.070313 21.773438 76.109375 21.667969 76.222656 L 21.6875 76.242188 C 21.574219 76.273438 21.523438 76.488281 21.367188 76.515625 C 21.261719 76.804688 21.097656 76.976563 20.921875 77.179688 L 20.941406 77.199219 C 20.714844 77.195313 20.816406 77.464844 20.570313 77.460938 C 20.269531 77.601563 20.289063 77.941406 20.050781 78.101563 L 20.050781 78.15625 C 19.90625 78.121094 20.082031 78.246094 19.945313 78.246094 C 19.875 78.492188 19.582031 78.773438 19.375 79.03125 C 19.105469 79.253906 18.960938 79.652344 18.609375 79.65625 C 18.636719 79.984375 18.25 80.011719 18.113281 80.296875 C 18.089844 80.679688 17.65625 81.054688 17.386719 81.347656 C 17.363281 81.480469 17.1875 81.488281 17.136719 81.589844 C 17.0625 81.664063 17.011719 81.824219 16.917969 81.816406 C 16.886719 81.9375 16.703125 81.925781 16.640625 82.027344 L 16.671875 82.058594 C 16.457031 82.054688 16.667969 82.253906 16.464844 82.273438 C 16.535156 82.457031 16.265625 82.597656 16.214844 82.710938 C 15.890625 83.117188 15.558594 83.636719 15.097656 83.785156 C 15.003906 83.855469 14.917969 84.070313 14.898438 84.253906 C 14.660156 84.519531 14.492188 84.796875 14.222656 85.007813 C 14.160156 85.007813 14.121094 85.046875 14.058594 85.027344 C 14.027344 85.117188 13.921875 85.25 13.832031 85.300781 C 13.839844 85.433594 13.734375 85.617188 13.632813 85.71875 C 13.601563 85.71875 13.570313 85.707031 13.558594 85.738281 L 13.558594 85.789063 C 13.507813 85.800781 13.414063 86.003906 13.3125 86.003906 C 13.21875 86.136719 13.082031 86.351563 12.960938 86.421875 C 12.636719 86.898438 12.273438 87.273438 11.960938 87.691406 C 11.707031 87.761719 11.652344 87.933594 11.609375 88.128906 C 11.257813 88.445313 10.925781 88.769531 10.617188 89.105469 L 10.597656 89.082031 C 10.273438 89.550781 9.832031 89.730469 9.527344 90.253906 C 9.382813 90.433594 9.210938 90.445313 9.105469 90.636719 C 8.46875 88.550781 7.976563 86.394531 7.863281 84.332031 "/>
<path style=" stroke:none;fill-rule:nonzero;fill:rgb(100%,100%,100%);fill-opacity:1;" d="M 41.265625 87.042969 C 41.910156 86.441406 42.496094 85.957031 43.105469 85.53125 L 43.105469 85.460938 C 43.242188 85.367188 43.292969 85.207031 43.40625 85.09375 C 43.664063 85.015625 43.871094 84.769531 43.996094 84.578125 C 44.160156 84.546875 44.285156 84.476563 44.367188 84.363281 L 44.347656 84.332031 L 44.398438 84.292969 L 44.367188 84.261719 C 44.566406 84.039063 44.835938 83.773438 45.042969 83.601563 C 45.183594 83.632813 45.0625 83.46875 45.238281 83.460938 C 45.359375 83.511719 45.472656 83.378906 45.566406 83.289063 L 45.660156 83.117188 C 45.742188 83.1875 45.785156 83.023438 45.855469 83.027344 C 45.878906 82.964844 46.03125 82.84375 46.011719 82.75 C 46.199219 82.78125 46.261719 82.621094 46.382813 82.539063 C 46.335938 82.242188 46.65625 82.089844 46.808594 81.980469 C 46.792969 81.855469 46.925781 81.898438 46.976563 81.855469 C 47.066406 81.839844 47.304688 81.820313 47.347656 81.6875 C 47.410156 81.308594 47.738281 81.292969 47.96875 81.007813 L 47.949219 80.976563 C 48.121094 80.976563 48.03125 80.792969 48.195313 80.78125 C 48.289063 80.703125 48.414063 80.632813 48.566406 80.5625 L 48.546875 80.539063 C 48.722656 80.46875 48.796875 80.285156 48.960938 80.246094 C 48.949219 80.207031 49 80.125 49.0625 80.074219 C 49.042969 80.074219 49.054688 79.835938 49.085938 79.785156 C 49.3125 79.769531 49.273438 79.5 49.511719 79.441406 L 49.511719 79.390625 C 49.75 79.199219 50.058594 78.894531 50.253906 78.730469 L 50.285156 78.761719 C 50.648438 78.480469 51 78.03125 51.371094 77.738281 C 51.609375 77.554688 51.9375 77.414063 52.042969 77.128906 L 52.066406 77.148438 C 52.085938 77.140625 52.105469 77.128906 52.097656 77.109375 L 52.066406 77.078125 C 52.230469 77.109375 52.199219 76.914063 52.34375 76.816406 C 52.839844 76.449219 53.324219 76.042969 53.636719 75.566406 C 54.046875 75.578125 54.011719 75.109375 54.382813 74.988281 C 54.507813 74.816406 54.949219 74.613281 55.003906 74.347656 C 55.363281 74.054688 55.699219 73.453125 56.121094 73.210938 C 56.121094 73.230469 56.109375 73.261719 56.140625 73.285156 L 56.316406 73.058594 L 56.246094 73.058594 C 56.441406 72.816406 56.71875 72.683594 56.886719 72.398438 C 57.070313 72.453125 57.09375 72.15625 57.238281 72.113281 C 57.414063 71.910156 57.785156 71.824219 57.859375 71.546875 C 57.992188 71.628906 58.085938 71.4375 58.199219 71.386719 C 58.21875 71.417969 58.25 71.40625 58.269531 71.40625 L 58.230469 71.480469 C 58.230469 71.457031 58.207031 71.449219 58.199219 71.425781 L 58.148438 71.476563 C 58.144531 71.632813 58.019531 71.792969 58 71.96875 C 58.007813 71.949219 57.988281 71.9375 57.980469 71.917969 C 57.554688 72.3125 57.242188 72.863281 56.828125 73.21875 L 56.777344 73.167969 C 56.601563 73.226563 56.640625 73.511719 56.457031 73.582031 L 56.488281 73.554688 L 56.457031 73.53125 C 56.332031 73.839844 55.96875 74.050781 55.863281 74.355469 C 55.699219 74.488281 55.625 74.765625 55.386719 74.753906 C 55.296875 74.882813 55.089844 74.964844 55.066406 75.167969 L 55.066406 75.046875 L 54.914063 75.167969 L 54.964844 75.210938 L 54.996094 75.1875 C 54.878906 75.371094 54.640625 75.636719 54.394531 75.796875 L 54.394531 75.902344 L 53.199219 77.367188 C 52.921875 77.578125 52.695313 77.578125 52.652344 77.945313 C 52.382813 78.320313 52.101563 78.648438 51.78125 78.972656 L 51.78125 79.042969 C 51.492188 79.265625 51.40625 79.574219 51.085938 79.773438 C 51 80.050781 50.519531 79.945313 50.558594 80.3125 C 50.015625 81.085938 49.414063 81.871094 48.773438 82.5625 C 48.546875 82.683594 48.417969 83.113281 48.101563 83.121094 L 47.851563 83.382813 C 47.976563 83.40625 47.757813 83.496094 47.902344 83.539063 C 47.457031 84.128906 46.992188 84.617188 46.605469 85.144531 C 46.511719 85.195313 46.339844 85.265625 46.359375 85.335938 L 45.953125 85.875 C 45.695313 85.84375 45.703125 86.140625 45.578125 86.273438 C 44.699219 87.25 44.167969 88.164063 43.195313 89.171875 C 42.597656 89.308594 42.550781 90.027344 42.128906 90.390625 C 42.085938 90.433594 41.941406 90.460938 41.949219 90.585938 C 41.777344 89.445313 41.441406 88.097656 41.265625 87.042969 "/>
<path style=" stroke:none;fill-rule:nonzero;fill:rgb(100%,100%,100%);fill-opacity:1;" d="M 8.117188 78.328125 C 8.238281 78.347656 8.3125 78.265625 8.382813 78.1875 L 8.363281 78.164063 C 8.550781 77.796875 9.066406 77.71875 9.234375 77.28125 C 9.316406 77.230469 9.398438 77.066406 9.480469 77.015625 L 9.710938 76.84375 L 9.679688 76.824219 C 10.039063 76.734375 10.09375 76.429688 10.371094 76.257813 L 10.351563 76.238281 C 10.597656 76.042969 10.746094 75.789063 11.023438 75.628906 L 11.023438 75.554688 C 11.292969 75.3125 11.652344 75 11.984375 74.828125 L 11.984375 74.777344 C 12.097656 74.816406 12.015625 74.664063 12.109375 74.675781 C 12.007813 74.507813 12.296875 74.398438 12.359375 74.289063 C 12.925781 73.914063 13.414063 73.28125 13.96875 72.878906 C 14.082031 72.960938 14.09375 72.785156 14.199219 72.777344 L 14.199219 72.726563 C 14.320313 72.667969 14.363281 72.460938 14.394531 72.390625 C 14.78125 71.902344 15.472656 71.417969 15.914063 71.019531 C 16.109375 71.0625 16.207031 70.796875 16.308594 70.777344 L 16.308594 70.707031 C 16.339844 70.707031 16.371094 70.71875 16.378906 70.6875 L 16.382813 70.636719 C 16.453125 70.574219 16.527344 70.464844 16.660156 70.445313 C 16.722656 70.257813 16.929688 70.117188 17.105469 69.90625 C 17.179688 69.609375 17.417969 69.507813 17.65625 69.347656 C 17.933594 68.980469 18.324219 68.921875 18.644531 68.566406 C 18.820313 68.363281 18.945313 68.167969 19.214844 68.078125 C 19.195313 68.007813 19.234375 68.007813 19.289063 67.976563 L 19.339844 67.976563 C 19.394531 67.488281 19.867188 67.285156 20.261719 66.929688 C 20.414063 66.882813 20.355469 66.839844 20.507813 66.757813 L 21.199219 66.152344 L 21.171875 66.128906 L 21.59375 65.785156 L 21.625 65.816406 C 21.65625 65.703125 21.859375 65.757813 21.84375 65.542969 C 22.039063 65.277344 22.542969 65.015625 22.585938 64.8125 C 22.804688 64.730469 22.816406 64.496094 23.03125 64.425781 L 23.011719 64.40625 C 23.351563 64.191406 23.519531 63.816406 23.902344 63.644531 L 23.902344 63.59375 C 24.042969 63.667969 24.023438 63.480469 24.128906 63.472656 L 24.109375 63.453125 C 24.292969 63.1875 24.664063 63.066406 24.769531 62.773438 L 24.800781 62.792969 C 24.945313 62.527344 25.195313 62.449219 25.371094 62.183594 L 25.472656 62.132813 L 25.441406 62.113281 C 25.710938 61.992188 25.824219 61.777344 26.0625 61.605469 C 26.15625 61.59375 26.238281 61.566406 26.308594 61.503906 L 26.433594 61.332031 L 26.414063 61.3125 C 26.558594 61.261719 26.671875 61.191406 26.734375 61.039063 C 26.777344 60.742188 27.191406 60.589844 27.285156 60.355469 C 27.53125 60.195313 27.636719 60 27.902344 59.871094 C 28.101563 59.71875 28.289063 59.371094 28.617188 59.3125 L 28.71875 59.210938 C 28.710938 59.199219 28.691406 59.179688 28.667969 59.191406 C 28.855469 58.914063 29.269531 58.558594 29.570313 58.359375 L 29.570313 58.285156 C 29.640625 58.316406 29.671875 58.183594 29.664063 58.195313 C 30.097656 57.871094 30.492188 57.375 30.957031 57.050781 L 31.308594 56.632813 L 31.308594 56.652344 C 31.453125 56.664063 31.515625 56.449219 31.648438 56.367188 C 31.949219 56.011719 32.320313 55.730469 32.644531 55.3125 C 32.871094 55.242188 33.007813 54.8125 33.140625 54.949219 C 32.847656 55.550781 32.257813 55.953125 31.84375 56.441406 C 31.75 56.484375 31.769531 56.574219 31.769531 56.65625 C 31.398438 56.847656 31.222656 57.050781 30.953125 57.347656 C 30.765625 57.734375 30.457031 57.925781 30.183594 58.324219 C 29.335938 59.351563 28.777344 59.886719 27.964844 60.957031 C 27.8125 61.027344 27.738281 61.261719 27.523438 61.25 C 27.367188 61.308594 27.5 61.476563 27.445313 61.566406 C 27.332031 61.84375 26.921875 61.992188 26.867188 62.300781 C 26.609375 62.410156 26.574219 62.738281 26.398438 62.878906 L 26.171875 63.03125 L 26.203125 63.050781 C 25.859375 63.4375 25.386719 63.832031 25.125 64.25 C 24.695313 64.359375 24.882813 64.824219 24.535156 65.035156 C 24.148438 65.492188 23.578125 66.09375 23.164063 66.519531 C 22.859375 66.597656 22.742188 66.964844 22.667969 67.199219 C 21.992188 68.035156 21.277344 68.910156 20.574219 69.671875 C 20.367188 69.773438 20.242188 69.976563 20.054688 70.199219 C 19.949219 70.464844 19.664063 70.523438 19.609375 70.789063 C 19.433594 71.015625 19.082031 71.164063 19.078125 71.472656 L 19.027344 71.472656 C 18.871094 71.808594 18.53125 72.121094 18.3125 72.425781 C 17.992188 72.515625 18 72.835938 17.761719 73.007813 C 17.691406 73.066406 17.566406 73.085938 17.496094 73.179688 L 17.515625 73.210938 C 17.410156 73.230469 17.402344 73.382813 17.367188 73.476563 C 17.050781 73.644531 17.035156 73.984375 16.714844 74.105469 C 16.464844 74.574219 16.074219 74.929688 15.773438 75.285156 C 15.636719 75.507813 15.246094 75.585938 15.253906 75.863281 C 15.097656 76.136719 14.859375 76.421875 14.601563 76.644531 C 14.621094 76.675781 14.652344 76.667969 14.671875 76.667969 L 14.632813 76.71875 L 14.601563 76.699219 C 14.550781 76.738281 14.40625 76.789063 14.527344 76.839844 L 14.476563 76.789063 C 14.464844 76.820313 14.402344 76.871094 14.457031 76.890625 L 14.507813 76.890625 C 14.371094 77.023438 14.226563 77.238281 14.101563 77.257813 C 14.09375 77.246094 14.082031 77.226563 14.050781 77.234375 C 14.042969 77.246094 14.019531 77.257813 14.03125 77.277344 L 14.050781 77.308594 C 13.710938 77.324219 13.667969 77.753906 13.429688 77.96875 C 13.398438 78.164063 13.203125 78.292969 13.054688 78.476563 C 12.867188 78.886719 12.3125 79.074219 12.214844 79.503906 L 11.894531 79.820313 C 11.71875 79.898438 11.625 80.050781 11.542969 80.183594 C 11.125 80.796875 10.609375 81.363281 10.070313 81.996094 C 9.851563 82.1875 9.757813 82.453125 9.449219 82.554688 C 9.449219 82.675781 9.285156 82.695313 9.25 82.816406 L 9.179688 82.867188 C 9.191406 82.878906 9.210938 82.898438 9.230469 82.890625 C 9.261719 82.972656 9.128906 82.929688 9.128906 82.992188 C 8.703125 83.4375 8.226563 83.8125 7.863281 84.257813 C 7.730469 82.3125 7.789063 80.324219 8.117188 78.328125 "/>
<path style=" stroke:none;fill-rule:nonzero;fill:rgb(100%,100%,100%);fill-opacity:1;" d="M 39.859375 79.894531 L 40.8125 79.011719 C 40.976563 78.960938 41.070313 78.785156 41.253906 78.695313 C 41.484375 78.464844 41.765625 78.046875 42.09375 77.964844 C 42.175781 77.753906 42.25 77.425781 42.445313 77.335938 C 42.859375 77.050781 43.242188 76.574219 43.789063 76.382813 C 43.738281 76.402344 43.800781 76.230469 43.863281 76.210938 C 44.078125 76.039063 44.285156 75.804688 44.535156 75.683594 L 44.535156 75.601563 C 44.75 75.550781 44.671875 75.265625 44.875 75.195313 L 44.855469 75.164063 C 44.957031 75.195313 45.023438 75.042969 45.15625 74.992188 L 45.199219 74.871094 C 45.496094 74.636719 45.796875 74.34375 46.097656 74.046875 C 46.117188 74.046875 46.160156 74.046875 46.167969 74.019531 C 46.179688 73.96875 46.3125 73.9375 46.34375 73.875 C 46.625 73.632813 46.925781 73.296875 47.234375 73.074219 L 47.265625 73.09375 C 47.308594 73.023438 47.410156 72.914063 47.460938 72.851563 C 47.761719 72.609375 48.152344 72.273438 48.425781 71.949219 C 48.882813 71.285156 49.683594 71.027344 50.140625 70.394531 C 50.296875 70.304688 50.398438 70.214844 50.492188 70.152344 L 50.460938 70.121094 C 50.554688 70.019531 50.667969 69.960938 50.832031 69.960938 C 50.902344 69.921875 50.8125 69.878906 50.8125 69.859375 C 50.9375 69.800781 51.164063 69.605469 51.183594 69.472656 C 51.21875 69.359375 51.421875 69.34375 51.382813 69.179688 L 51.402344 69.179688 C 51.34375 69.003906 51.609375 69.015625 51.683594 68.863281 C 51.921875 68.730469 52.023438 68.4375 52.253906 68.273438 C 52.304688 68.296875 52.332031 68.347656 52.394531 68.328125 L 52.425781 68.296875 C 52.386719 68.265625 52.3125 68.265625 52.304688 68.222656 C 52.355469 68.171875 52.46875 68.171875 52.449219 68.082031 L 52.550781 68.152344 C 52.613281 68.09375 52.542969 67.960938 52.5 67.980469 C 52.664063 68 52.574219 67.753906 52.769531 67.808594 L 52.769531 67.734375 C 52.832031 67.808594 52.882813 67.6875 52.945313 67.6875 C 52.957031 67.480469 53.214844 67.523438 53.226563 67.351563 C 53.246094 67.269531 53.449219 67.292969 53.390625 67.125 C 53.53125 67.273438 53.503906 66.953125 53.636719 67.035156 C 53.703125 66.800781 54.019531 66.753906 54.011719 66.496094 C 54.289063 66.480469 54.351563 66.191406 54.539063 66.082031 L 54.558594 66.101563 C 54.570313 66.011719 54.632813 65.960938 54.734375 65.980469 L 54.753906 66.011719 C 54.796875 65.960938 54.796875 65.898438 54.808594 65.839844 C 54.859375 65.859375 54.878906 65.820313 54.910156 65.789063 L 54.878906 65.765625 C 54.902344 65.765625 55.054688 65.777344 55.035156 65.667969 C 55.28125 65.78125 55.171875 65.503906 55.234375 65.371094 C 55.367188 65.433594 55.507813 65.382813 55.621094 65.332031 C 55.578125 65.628906 55.15625 65.8125 55.082031 66.066406 C 54.917969 66.066406 54.753906 66.144531 54.710938 66.308594 L 54.710938 66.503906 C 54.414063 66.417969 54.492188 66.882813 54.183594 66.796875 C 54.070313 67.0625 53.851563 67.121094 53.738281 67.324219 C 53.703125 67.550781 53.375 67.585938 53.363281 67.773438 C 53.230469 67.832031 53.117188 68.027344 53.042969 68.109375 C 52.847656 68.257813 52.710938 68.390625 52.617188 68.625 C 52.566406 68.667969 52.441406 68.808594 52.367188 68.941406 C 51.882813 69.417969 51.40625 70.058594 51.023438 70.476563 L 50.753906 70.769531 L 50.773438 70.792969 C 50.617188 70.8125 50.6875 70.925781 50.605469 70.984375 C 50.460938 71.046875 50.472656 71.210938 50.378906 71.28125 L 50.359375 71.257813 C 49.890625 71.960938 49.292969 72.273438 48.867188 72.988281 C 48.609375 73.035156 48.636719 73.191406 48.460938 73.300781 C 48.542969 73.363281 48.421875 73.34375 48.441406 73.40625 C 48.46875 73.515625 48.398438 73.640625 48.285156 73.648438 C 48.355469 73.710938 48.261719 73.710938 48.261719 73.769531 C 48.230469 73.800781 48.128906 73.789063 48.160156 73.875 C 47.816406 74.199219 47.652344 74.566406 47.289063 74.847656 C 47.09375 74.898438 47.101563 75.113281 46.875 75.234375 C 46.933594 75.378906 46.769531 75.46875 46.71875 75.550781 C 46.335938 75.914063 45.992188 76.363281 45.671875 76.769531 C 45.507813 76.871094 45.421875 76.933594 45.351563 77.117188 C 44.925781 77.695313 44.519531 78.0625 44.035156 78.578125 C 44.136719 78.621094 44.0625 78.714844 44.011719 78.753906 C 43.972656 78.742188 43.960938 78.785156 43.929688 78.792969 L 43.960938 78.824219 C 43.753906 79.121094 43.472656 79.25 43.285156 79.558594 C 42.925781 79.882813 42.519531 80.429688 42.148438 80.867188 C 42.09375 80.941406 41.972656 80.917969 42.023438 81.042969 C 41.929688 81.007813 41.960938 81.113281 41.917969 81.140625 L 41.898438 81.113281 C 41.515625 81.539063 41.292969 82.121094 40.726563 82.382813 C 40.703125 82.597656 40.480469 82.65625 40.445313 82.871094 C 40.25 81.894531 40.097656 80.929688 39.859375 79.894531 "/>
<path style=" stroke:none;fill-rule:nonzero;fill:rgb(100%,100%,100%);fill-opacity:1;" d="M 8.171875 77.886719 C 8.53125 75.878906 9.125 73.785156 9.921875 71.945313 C 9.992188 71.949219 10.035156 71.875 10.09375 71.855469 C 10.074219 71.785156 10.179688 71.785156 10.21875 71.753906 C 10.550781 71.367188 10.921875 70.992188 11.285156 70.710938 L 11.265625 70.6875 L 11.367188 70.640625 L 11.335938 70.609375 C 11.566406 70.382813 11.863281 70.203125 12.113281 69.960938 C 12.113281 69.886719 12.101563 69.980469 12.132813 69.980469 C 12.226563 69.835938 12.464844 69.769531 12.484375 69.5625 L 13.300781 68.882813 C 13.304688 68.6875 13.570313 68.679688 13.644531 68.496094 C 13.902344 68.191406 14.230469 68.164063 14.417969 67.789063 C 14.710938 67.460938 15.082031 67.261719 15.308594 67.007813 C 15.492188 67.058594 15.363281 66.84375 15.433594 66.792969 C 15.570313 66.640625 15.824219 66.519531 15.90625 66.5 C 15.878906 66.398438 16 66.492188 16.03125 66.429688 C 16.105469 66.246094 16.25 66.132813 16.355469 65.980469 L 16.375 66.011719 C 16.644531 65.613281 17.109375 65.351563 17.398438 64.988281 C 17.574219 64.949219 17.65625 64.898438 17.667969 64.742188 C 18.03125 64.417969 18.339844 64.257813 18.566406 63.839844 C 19.0625 63.453125 19.449219 62.996094 20.003906 62.652344 C 20.109375 62.5 20.242188 62.289063 20.398438 62.238281 L 20.378906 62.207031 C 20.53125 62.117188 20.65625 61.902344 20.84375 61.800781 C 21.113281 61.609375 21.257813 61.3125 21.546875 61.109375 L 21.546875 61.019531 C 22.242188 60.410156 22.800781 59.800781 23.554688 59.285156 C 23.792969 58.917969 24.058594 58.765625 24.402344 58.429688 C 24.832031 58.3125 24.839844 57.832031 25.242188 57.628906 C 25.417969 57.417969 25.808594 57.039063 26.085938 56.878906 C 26.222656 56.6875 26.273438 56.667969 26.480469 56.566406 L 26.359375 56.535156 L 26.480469 56.484375 C 26.472656 56.503906 26.449219 56.515625 26.460938 56.535156 C 26.5625 56.605469 26.53125 56.433594 26.605469 56.414063 L 26.535156 56.359375 L 26.78125 56.238281 C 26.632813 56.535156 26.285156 56.726563 26.179688 57.023438 C 25.929688 57.195313 25.632813 57.46875 25.609375 57.757813 C 25.566406 57.777344 25.546875 57.828125 25.484375 57.804688 C 25.433594 57.773438 25.515625 57.652344 25.414063 57.734375 C 25.34375 57.691406 25.257813 57.867188 25.238281 57.925781 C 24.839844 58.578125 24.078125 59.207031 23.597656 59.878906 C 23.332031 59.878906 23.339844 60.183594 23.246094 60.316406 C 23.003906 60.777344 22.511719 61.078125 22.28125 61.539063 C 22.148438 61.558594 22.066406 61.667969 21.949219 61.730469 C 21.980469 61.832031 21.796875 61.953125 21.753906 62.074219 L 21.039063 62.910156 C 20.945313 62.847656 20.945313 62.960938 20.863281 62.980469 C 20.894531 63.074219 20.808594 63.113281 20.757813 63.175781 C 20.808594 63.296875 20.5625 63.449219 20.558594 63.539063 C 20.269531 63.9375 19.925781 64.355469 19.585938 64.617188 C 19.574219 64.691406 19.503906 64.761719 19.421875 64.8125 C 19.390625 64.839844 19.335938 64.863281 19.335938 64.902344 L 19.367188 64.933594 C 19.171875 65.074219 19.015625 65.308594 18.839844 65.492188 C 18.628906 65.953125 18.097656 66 18.019531 66.539063 C 17.128906 67.535156 16.308594 68.542969 15.457031 69.519531 L 15.4375 69.5 C 15.386719 69.507813 15.417969 69.558594 15.40625 69.589844 L 15.355469 69.589844 C 14.910156 70.058594 14.753906 70.515625 14.335938 70.984375 L 14.316406 70.964844 C 14.328125 71.109375 14.101563 71.054688 14.140625 71.207031 C 14.039063 71.207031 14.027344 71.332031 13.984375 71.402344 C 13.789063 71.605469 13.601563 71.871094 13.394531 72.011719 C 13.324219 72.101563 13.238281 72.164063 13.167969 72.277344 C 12.941406 72.304688 13.019531 72.59375 12.792969 72.621094 C 12.503906 72.9375 12.296875 73.230469 11.996094 73.523438 C 11.714844 73.839844 11.484375 74.359375 11.054688 74.570313 C 10.875 75.207031 10.058594 75.742188 9.714844 76.230469 C 9.601563 76.261719 9.5 76.382813 9.4375 76.472656 C 9.421875 76.699219 9.074219 76.929688 8.988281 77.0625 C 9.050781 77.1875 8.855469 77.132813 8.914063 77.257813 C 8.6875 77.53125 8.449219 77.695313 8.171875 77.886719 "/>
<path style=" stroke:none;fill-rule:nonzero;fill:rgb(100%,100%,100%);fill-opacity:1;" d="M 38.550781 73.1875 L 38.53125 73.207031 C 38.585938 72.890625 38.3125 72.496094 38.578125 72.273438 C 38.714844 72.273438 38.835938 72.195313 38.910156 72.101563 C 38.902344 71.96875 39.117188 71.980469 39.105469 71.839844 C 39.34375 71.644531 39.589844 71.554688 39.605469 71.277344 C 39.964844 70.945313 40.246094 70.671875 40.667969 70.429688 C 40.679688 70.242188 40.945313 70.308594 40.867188 70.132813 C 41.070313 70.011719 41.167969 69.746094 41.394531 69.625 C 41.414063 69.617188 41.425781 69.636719 41.433594 69.644531 C 41.5 69.371094 41.828125 69.363281 41.960938 69.109375 C 42.125 69.109375 42.25 69.027344 42.382813 68.9375 L 42.332031 68.894531 C 42.4375 68.886719 42.386719 68.773438 42.425781 68.722656 L 42.40625 68.691406 C 42.683594 68.714844 42.605469 68.449219 42.832031 68.429688 L 42.882813 68.378906 C 42.933594 68.359375 42.984375 68.339844 43.027344 68.289063 C 42.996094 68.265625 43.007813 68.238281 43.007813 68.207031 C 43.304688 68.21875 43.175781 67.765625 43.523438 67.71875 C 43.699219 67.390625 44.171875 67.386719 44.390625 67.113281 C 44.546875 67.011719 44.484375 66.949219 44.640625 66.796875 C 44.652344 66.613281 44.785156 66.492188 44.941406 66.308594 C 45.191406 66.023438 45.519531 65.851563 45.757813 65.609375 L 45.777344 65.628906 C 45.957031 65.3125 46.398438 65.0625 46.75 64.898438 L 46.875 64.632813 L 46.894531 64.65625 C 46.9375 64.582031 46.988281 64.535156 47.050781 64.511719 C 47.183594 64.328125 47.363281 64.097656 47.445313 63.972656 C 47.855469 63.761719 47.941406 63.3125 48.386719 63.246094 C 48.5 63.039063 48.65625 62.867188 48.789063 62.683594 C 49.039063 62.5625 49.359375 62.300781 49.484375 62.046875 C 49.835938 61.730469 50.1875 61.375 50.496094 61.070313 C 50.566406 61.144531 50.628906 61.042969 50.703125 61.023438 L 50.597656 61.195313 L 50.671875 61.195313 C 50.554688 61.636719 50.050781 61.816406 49.800781 62.222656 C 49.671875 62.519531 49.304688 62.566406 49.28125 62.90625 C 49.023438 62.808594 49.019531 63.148438 48.785156 63.175781 C 48.804688 63.308594 48.628906 63.441406 48.535156 63.542969 C 48.371094 63.625 48.460938 63.859375 48.253906 63.929688 C 48.015625 64.253906 47.726563 64.570313 47.4375 64.835938 C 47.363281 64.9375 47.300781 65.121094 47.136719 65.199219 C 46.925781 65.546875 46.597656 65.871094 46.296875 66.226563 C 46.253906 66.390625 46.027344 66.441406 45.972656 66.59375 L 45.945313 66.5625 C 45.992188 66.75 45.738281 66.757813 45.644531 66.878906 C 45.476563 67.121094 45.300781 67.378906 45.050781 67.589844 C 44.988281 67.804688 44.597656 67.832031 44.605469 68.128906 C 44.367188 68.589844 43.820313 69.023438 43.484375 69.59375 C 43.289063 69.550781 43.308594 69.734375 43.1875 69.808594 C 43.171875 69.992188 42.980469 69.988281 42.9375 70.132813 C 42.730469 70.183594 42.746094 70.582031 42.441406 70.570313 C 42.328125 70.660156 42.335938 70.792969 42.335938 70.9375 C 42.054688 71.25 41.722656 71.636719 41.441406 72.035156 C 41.203125 72.164063 41.101563 72.453125 40.875 72.574219 C 40.78125 72.683594 40.746094 72.847656 40.574219 72.910156 L 40.59375 72.9375 C 40.457031 73.265625 39.851563 73.34375 39.96875 73.710938 C 39.804688 73.832031 39.761719 74.109375 39.578125 74.179688 C 39.421875 74.3125 39.273438 74.597656 39.128906 74.6875 C 39.078125 74.78125 39.035156 74.832031 38.976563 74.914063 L 38.902344 74.933594 C 38.773438 74.386719 38.699219 73.792969 38.550781 73.1875 "/>
<path style=" stroke:none;fill-rule:nonzero;fill:rgb(100%,100%,100%);fill-opacity:1;" d="M 20.03125 59.898438 C 19.925781 60.027344 19.863281 60.203125 19.75 60.261719 C 19.761719 60.242188 19.742188 60.222656 19.730469 60.210938 C 19.667969 60.34375 19.371094 60.414063 19.480469 60.578125 C 19.40625 60.730469 19.292969 60.882813 19.058594 60.921875 C 18.949219 61.382813 18.433594 61.675781 18.183594 62.113281 C 17.773438 62.457031 17.480469 63.007813 17.117188 63.40625 C 17.042969 63.660156 16.671875 63.914063 16.496094 64.117188 L 16.515625 64.136719 C 16.320313 64.25 16.277344 64.421875 16.070313 64.503906 L 16.070313 64.554688 C 15.96875 64.574219 15.976563 64.746094 15.894531 64.796875 C 15.644531 65.0625 15.46875 65.304688 15.179688 65.53125 C 15.105469 65.570313 15.21875 65.652344 15.105469 65.632813 C 14.691406 66.148438 14.535156 66.496094 14.078125 66.996094 L 14.058594 66.972656 C 13.417969 67.632813 12.949219 68.378906 12.335938 68.976563 C 12.410156 69.027344 12.222656 69.203125 12.160156 69.292969 C 12.058594 69.230469 12.058594 69.394531 12.066406 69.382813 C 11.902344 69.578125 11.589844 69.914063 11.34375 70.074219 L 11.371094 70.148438 C 11.289063 70.15625 11.371094 70.269531 11.289063 70.320313 L 11.269531 70.289063 C 11.214844 70.382813 11.101563 70.460938 11.09375 70.535156 C 10.699219 70.847656 10.5 71.152344 10.097656 71.539063 C 12.121094 66.875 15.605469 62.703125 20.03125 59.898438 "/>
<path style=" stroke:none;fill-rule:nonzero;fill:rgb(100%,100%,100%);fill-opacity:1;" d="M 58.273438 71.265625 C 58.476563 71.152344 58.574219 70.90625 58.769531 70.746094 L 58.871094 70.746094 L 58.871094 70.871094 C 58.765625 71.09375 58.46875 71.164063 58.300781 71.355469 L 58.273438 71.234375 L 58.273438 71.265625 "/>
<path style=" stroke:none;fill-rule:nonzero;fill:rgb(100%,100%,100%);fill-opacity:1;" d="M 37.078125 65.277344 C 37.109375 65.257813 37.101563 65.226563 37.101563 65.195313 C 37.183594 65.167969 37.273438 65.136719 37.347656 65.074219 L 37.328125 65.054688 L 37.378906 65.003906 L 37.328125 64.953125 C 37.472656 64.871094 37.699219 64.8125 37.75 64.585938 L 37.773438 64.617188 C 38.0625 64.242188 38.570313 63.804688 38.910156 63.449219 C 38.941406 63.328125 39.097656 63.300781 39.191406 63.207031 C 39.355469 63.210938 39.355469 62.992188 39.488281 62.933594 C 39.714844 62.773438 40.003906 62.578125 40.152344 62.398438 C 40.273438 62.273438 40.460938 62.226563 40.523438 62.011719 L 40.554688 62.03125 C 40.523438 61.949219 40.617188 61.929688 40.605469 61.816406 C 40.75 61.898438 40.804688 61.707031 40.894531 61.644531 C 41.09375 61.542969 41.15625 61.308594 41.300781 61.136719 L 41.320313 61.15625 C 41.445313 61.054688 41.578125 60.964844 41.695313 60.84375 L 41.742188 60.894531 C 41.847656 60.742188 42 60.722656 42.117188 60.601563 C 42.117188 60.507813 42.207031 60.5625 42.21875 60.480469 C 42.375 60.253906 42.789063 60.074219 42.808594 59.796875 L 44.101563 58.796875 L 44.101563 58.722656 C 44.339844 58.542969 44.578125 58.234375 44.792969 58.113281 L 45.320313 57.75 C 45.3125 57.78125 45.351563 57.800781 45.363281 57.824219 C 45.320313 58.027344 44.988281 58.105469 44.894531 58.3125 C 44.574219 58.757813 44.046875 59.183594 43.671875 59.683594 L 43.703125 59.703125 C 43.589844 59.773438 43.496094 59.875 43.351563 59.894531 C 43.054688 60.191406 42.949219 60.445313 42.710938 60.699219 C 42.65625 60.789063 42.523438 60.921875 42.429688 60.992188 C 42.480469 61.105469 42.359375 61.066406 42.304688 61.09375 C 42.214844 61.113281 42.097656 61.296875 42.058594 61.390625 C 42.167969 61.574219 41.859375 61.582031 41.839844 61.777344 C 41.601563 62.042969 41.464844 62.285156 41.164063 62.4375 C 41.183594 62.507813 41.082031 62.496094 41.042969 62.507813 C 41.019531 62.609375 40.835938 62.75 40.863281 62.855469 C 40.71875 62.964844 40.664063 63.191406 40.441406 63.3125 C 40.34375 63.503906 40.199219 63.628906 40.046875 63.75 L 40.066406 63.78125 C 39.980469 64.035156 39.519531 64.050781 39.640625 64.289063 C 39.433594 64.511719 39.285156 64.929688 38.925781 65.050781 C 38.957031 65.101563 38.792969 65.132813 38.875 65.191406 L 38.851563 65.171875 C 38.769531 65.511719 38.328125 65.476563 38.324219 65.855469 C 38.078125 65.996094 38.011719 66.363281 37.734375 66.464844 C 37.804688 66.566406 37.679688 66.585938 37.609375 66.605469 L 37.359375 66.972656 C 37.242188 66.398438 37.09375 65.710938 37.078125 65.277344 "/>
<path style=" stroke:none;fill-rule:nonzero;fill:rgb(100%,100%,100%);fill-opacity:1;" d="M 35.789063 58.816406 C 35.839844 58.726563 36.023438 58.890625 36.085938 58.75 L 36.054688 58.71875 L 36.210938 58.597656 C 36.160156 58.574219 36.191406 58.535156 36.179688 58.503906 C 36.417969 58.15625 36.9375 57.753906 37.246094 57.40625 C 37.710938 57.011719 38.289063 56.566406 38.714844 56.140625 C 38.816406 56.078125 38.816406 56.261719 38.855469 56.214844 C 38.398438 56.925781 37.644531 57.484375 37.21875 58.164063 C 36.960938 58.285156 36.746094 58.46875 36.578125 58.722656 C 36.421875 59.039063 36.101563 59.28125 35.925781 59.558594 L 35.789063 58.816406 "/>
<path style=" stroke:none;fill-rule:nonzero;fill:rgb(100%,100%,100%);fill-opacity:1;" d="M 31.382813 56.488281 L 31.433594 56.488281 L 31.351563 56.5625 C 31.351563 56.53125 31.351563 56.5 31.382813 56.488281 "/>
</g>
</svg>
