<?xml version="1.0" encoding="UTF-8" standalone="no"?>
<svg
   xmlns:dc="http://purl.org/dc/elements/1.1/"
   xmlns:cc="http://creativecommons.org/ns#"
   xmlns:rdf="http://www.w3.org/1999/02/22-rdf-syntax-ns#"
   xmlns:svg="http://www.w3.org/2000/svg"
   xmlns="http://www.w3.org/2000/svg"
   viewBox="0 0 140 102.5"
   height="102.5"
   width="140"
   xml:space="preserve"
   version="1.1"
   id="svg2"><metadata
     id="metadata8"><rdf:RDF><cc:Work
         rdf:about=""><dc:format>image/svg+xml</dc:format><dc:type
           rdf:resource="http://purl.org/dc/dcmitype/StillImage" /></cc:Work></rdf:RDF></metadata><defs
     id="defs6"><clipPath
       id="clipPath92"
       clipPathUnits="userSpaceOnUse"><path
         id="path94"
         d="m 978.398,629.238 135.602,0 0,-278.402 -135.602,0 0,278.402 z" /></clipPath></defs><g
     transform="matrix(1.25,0,0,-1.25,0,102.5)"
     id="g10"><g
       transform="scale(0.1,0.1)"
       id="g12"><g
         transform="scale(10,10)"
         id="g14"><text
           id="text16"
           style="font-variant:normal;font-weight:normal;font-size:7.12824011px;font-family:'Helvetica LT Std';-inkscape-font-specification:Helvetica;writing-mode:lr-tb;fill:#000000;fill-opacity:1;fill-rule:nonzero;stroke:none"
           transform="matrix(0.999411,0,0,-1,52.4801,40.3637)"><tspan
             id="tspan18"
             y="0"
             x="0 5.1630378 10.326086 12.247215 14.288423 16.209558 21.372599 25.214865">Gm · Vbe</tspan></text>
<text
           id="text20"
           style="font-variant:normal;font-weight:normal;font-size:-7.125px;font-family:Arial;-inkscape-font-specification:Arial;writing-mode:lr-tb;fill:#000000;fill-opacity:1;fill-rule:nonzero;stroke:none"
           transform="matrix(1,0,0,-1,61.4801,48.8836)"><tspan
             id="tspan22"
             y="0"
             x="0">β</tspan></text>
<text
           id="text24"
           style="font-variant:normal;font-weight:normal;font-size:7.12824011px;font-family:'Helvetica LT Std';-inkscape-font-specification:Helvetica;writing-mode:lr-tb;fill:#000000;fill-opacity:1;fill-rule:nonzero;stroke:none"
           transform="matrix(0.999411,0,0,-1,67.359804,48.8836)"><tspan
             id="tspan26"
             y="0"
             x="0 1.9211353 3.8422644 5.1630459">· Ib</tspan><tspan
             id="tspan28"
             y="4.5597701"
             x="-33.739937">R</tspan></text>
<text
           id="text30"
           style="font-variant:normal;font-weight:normal;font-size:-7.125px;font-family:Arial;-inkscape-font-specification:Arial;writing-mode:lr-tb;fill:#000000;fill-opacity:1;fill-rule:nonzero;stroke:none"
           transform="matrix(1,0,0,-1,38.2,44.3238)"><tspan
             id="tspan32"
             y="0"
             x="0">π</tspan></text>
<text
           id="text34"
           style="font-variant:normal;font-weight:normal;font-size:7.12824011px;font-family:'Helvetica LT Std';-inkscape-font-specification:Helvetica;writing-mode:lr-tb;fill:#000000;fill-opacity:1;fill-rule:nonzero;stroke:none"
           transform="matrix(0.999411,0,0,-1,9.03984,50.0836)"><tspan
             id="tspan36"
             y="0"
             x="0 5.1630411 9.1253767">Vbe</tspan></text>
</g><g
         transform="scale(0.999722,-1.00028)"
         id="g38"><path
           id="path40"
           style="fill:none;stroke:#000000;stroke-width:6.47580004;stroke-linecap:round;stroke-linejoin:round;stroke-miterlimit:10;stroke-dasharray:none;stroke-opacity:1"
           d="m 232.064,-759.828 117.635,0" /></g><g
         transform="scale(0.999722,-1.00028)"
         id="g42"><path
           id="path44"
           style="fill:none;stroke:#000000;stroke-width:6.47580004;stroke-linecap:round;stroke-linejoin:round;stroke-miterlimit:10;stroke-dasharray:none;stroke-opacity:1"
           d="m 349.699,-759.828 -45.614,19.198 0,-38.392 45.614,19.194 z" /></g><g
         transform="scale(10,10)"
         id="g46"><text
           id="text48"
           style="font-variant:normal;font-weight:normal;font-size:5.8322401px;font-family:'Helvetica LT Std';-inkscape-font-specification:Helvetica;writing-mode:lr-tb;fill:#000000;fill-opacity:1;fill-rule:nonzero;stroke:none"
           transform="matrix(0.999341,0,0,-1,14.9199,73.7238)"><tspan
             id="tspan50"
             y="0"
             x="0 1.9212641 64.122101 66.043373">IbIc</tspan></text>
</g><path
         id="path52"
         style="fill:#ff0000;fill-opacity:1;fill-rule:evenodd;stroke:none"
         d="m 647.199,121.637 c 0,4.801 -4.801,9.601 -9.597,9.601 -6,0 -9.602,-4.8 -9.602,-9.601 0,-6 3.602,-9.598 9.602,-9.598 4.796,0 9.597,3.598 9.597,9.598" /><g
         transform="scale(0.999722,-1.00028)"
         id="g54"><path
           id="path56"
           style="fill:none;stroke:#ff0000;stroke-width:6.47580004;stroke-linecap:round;stroke-linejoin:round;stroke-miterlimit:10;stroke-dasharray:none;stroke-opacity:1"
           d="m 647.379,-121.603 c 0,-4.799 -4.802,-9.599 -9.6,-9.599 -6.002,0 -9.604,4.8 -9.604,9.599 0,5.998 3.602,9.595 9.604,9.595 4.798,0 9.6,-3.597 9.6,-9.595 z" /></g><g
         transform="scale(0.999722,-1.00028)"
         id="g58"><path
           id="path60"
           style="fill:none;stroke:#000000;stroke-width:6.47580004;stroke-linecap:round;stroke-linejoin:round;stroke-miterlimit:10;stroke-dasharray:none;stroke-opacity:1"
           d="m 698.995,-234.372 0,116.366" /></g><g
         transform="scale(0.999722,-1.00028)"
         id="g62"><path
           id="path64"
           style="fill:none;stroke:#000000;stroke-width:6.47580004;stroke-linecap:round;stroke-linejoin:round;stroke-miterlimit:10;stroke-dasharray:none;stroke-opacity:1"
           d="m 698.995,-118.006 -19.204,-45.585 38.409,0 -19.205,45.585 z" /></g><g
         transform="scale(10,10)"
         id="g66"><text
           id="text68"
           style="font-variant:normal;font-weight:normal;font-size:5.8322401px;font-family:'Helvetica LT Std';-inkscape-font-specification:Helvetica;writing-mode:lr-tb;fill:#000000;fill-opacity:1;fill-rule:nonzero;stroke:none"
           transform="matrix(0.999341,0,0,-1,73.1199,21.2836)"><tspan
             id="tspan70"
             y="0"
             x="0 2.0413475">Ie</tspan></text>
<text
           id="text72"
           style="font-variant:normal;font-weight:normal;font-size:8.42436028px;font-family:'Helvetica LT Std';-inkscape-font-specification:Helvetica;writing-mode:lr-tb;fill:#000000;fill-opacity:1;fill-rule:nonzero;stroke:none"
           transform="matrix(0.999387,0,0,-1,1.96016,67.1238)"><tspan
             id="tspan74"
             y="0"
             x="0">B</tspan><tspan
             id="tspan76"
             y="64.199997"
             x="59.5564">E</tspan><tspan
             id="tspan78"
             y="-5.7598"
             x="88.734001">C</tspan></text>
</g><g
         transform="scale(0.999722,-1.00028)"
         id="g80"><path
           id="path82"
           style="fill:none;stroke:#000000;stroke-width:6.47580004;stroke-linecap:round;stroke-linejoin:round;stroke-miterlimit:10;stroke-dasharray:none;stroke-opacity:1"
           d="m 815.426,-701.043 0,116.37" /></g><g
         transform="scale(0.999722,-1.00028)"
         id="g84"><path
           id="path86"
           style="fill:none;stroke:#000000;stroke-width:6.47580004;stroke-linecap:round;stroke-linejoin:round;stroke-miterlimit:10;stroke-dasharray:none;stroke-opacity:1"
           d="m 815.426,-584.673 -19.205,-45.589 38.409,0 -19.204,45.589 z" /></g><g
         id="g88"><g
           clip-path="url(#clipPath92)"
           id="g90"><g
             transform="scale(0.999722,-1.00028)"
             id="g96"><path
               id="path98"
               style="fill:none;stroke:#000000;stroke-width:6.47580004;stroke-linecap:round;stroke-linejoin:miter;stroke-miterlimit:10;stroke-dasharray:none;stroke-opacity:1"
               d="m 1074.7,-584.673 -51.61,0 0,188.346 51.61,0 0,-188.346 z" /></g></g></g><g
         transform="scale(0.999722,-1.00028)"
         id="g100"><path
           id="path102"
           style="fill:none;stroke:#000000;stroke-width:6.47580004;stroke-linecap:round;stroke-linejoin:round;stroke-miterlimit:10;stroke-dasharray:none;stroke-opacity:1"
           d="m 874.243,-584.673 97.226,97.172 -97.226,97.172 -97.226,-97.172 97.226,-97.172 z" /></g><g
         transform="scale(0.999722,-1.00028)"
         id="g104"><path
           id="path106"
           style="fill:none;stroke:#000000;stroke-width:6.47580004;stroke-linecap:round;stroke-linejoin:round;stroke-miterlimit:10;stroke-dasharray:none;stroke-opacity:1"
           d="m 1048.29,-390.329 0,38.388" /></g><g
         transform="scale(0.999722,-1.00028)"
         id="g108"><path
           id="path110"
           style="fill:none;stroke:#000000;stroke-width:6.47580004;stroke-linecap:round;stroke-linejoin:round;stroke-miterlimit:10;stroke-dasharray:none;stroke-opacity:1"
           d="m 874.243,-390.329 0,38.388" /></g><g
         transform="scale(0.999722,-1.00028)"
         id="g112"><path
           id="path114"
           style="fill:none;stroke:#000000;stroke-width:6.47580004;stroke-linecap:round;stroke-linejoin:round;stroke-miterlimit:10;stroke-dasharray:none;stroke-opacity:1"
           d="m 971.469,-487.501 51.621,0" /></g><g
         transform="scale(0.999722,-1.00028)"
         id="g116"><path
           id="path118"
           style="fill:none;stroke:#000000;stroke-width:6.47580004;stroke-linecap:round;stroke-linejoin:round;stroke-miterlimit:10;stroke-dasharray:none;stroke-opacity:1"
           d="m 874.243,-546.286 0,77.979" /></g><path
         id="path120"
         style="fill:#000000;fill-opacity:1;fill-rule:evenodd;stroke:none"
         d="m 893.199,468.438 -38.398,0 19.199,-39.602 19.199,39.602" /><g
         transform="scale(0.999722,-1.00028)"
         id="g122"><path
           id="path124"
           style="fill:none;stroke:#000000;stroke-width:6.47580004;stroke-linecap:round;stroke-linejoin:round;stroke-miterlimit:10;stroke-dasharray:none;stroke-opacity:1"
           d="m 893.448,-468.307 -38.41,0 19.205,39.59 19.205,-39.59 z" /></g><g
         transform="scale(0.999722,-1.00028)"
         id="g126"><path
           id="path128"
           style="fill:none;stroke:#000000;stroke-width:6.47580004;stroke-linecap:round;stroke-linejoin:round;stroke-miterlimit:10;stroke-dasharray:none;stroke-opacity:1"
           d="m 1048.29,-546.286 0,77.979" /></g><path
         id="path130"
         style="fill:#000000;fill-opacity:1;fill-rule:evenodd;stroke:none"
         d="m 1068.4,468.438 -39.6,0 19.2,-39.602 20.4,39.602" /><g
         transform="scale(0.999722,-1.00028)"
         id="g132"><path
           id="path134"
           style="fill:none;stroke:#000000;stroke-width:6.47580004;stroke-linecap:round;stroke-linejoin:round;stroke-miterlimit:10;stroke-dasharray:none;stroke-opacity:1"
           d="m 1068.7,-468.307 -39.61,0 19.2,39.59 20.41,-39.59 z" /></g><g
         transform="scale(0.999722,-1.00028)"
         id="g136"><path
           id="path138"
           style="fill:none;stroke:#000000;stroke-width:6.47580004;stroke-linecap:round;stroke-linejoin:round;stroke-miterlimit:10;stroke-dasharray:none;stroke-opacity:1"
           d="m 1048.29,-584.673 0,-116.37" /></g><g
         transform="scale(0.999722,-1.00028)"
         id="g140"><path
           id="path142"
           style="fill:none;stroke:#000000;stroke-width:6.47580004;stroke-linecap:round;stroke-linejoin:round;stroke-miterlimit:10;stroke-dasharray:none;stroke-opacity:1"
           d="m 1048.29,-351.941 0,58.784" /></g><g
         transform="scale(0.999722,-1.00028)"
         id="g144"><path
           id="path146"
           style="fill:none;stroke:#000000;stroke-width:6.47580004;stroke-linecap:round;stroke-linejoin:round;stroke-miterlimit:10;stroke-dasharray:none;stroke-opacity:1"
           d="m 874.243,-351.941 0,58.784" /></g><g
         transform="scale(0.999722,-1.00028)"
         id="g148"><path
           id="path150"
           style="fill:none;stroke:#000000;stroke-width:6.47580004;stroke-linecap:round;stroke-linejoin:round;stroke-miterlimit:10;stroke-dasharray:none;stroke-opacity:1"
           d="m 874.243,-584.673 0,-116.37" /></g><path
         id="path152"
         style="fill:#ff0000;fill-opacity:1;fill-rule:evenodd;stroke:none"
         d="m 938.801,704.836 c 0,4.801 -4.801,9.602 -9.602,9.602 -6,0 -10.801,-4.801 -10.801,-9.602 0,-4.797 4.801,-9.598 10.801,-9.598 4.801,0 9.602,4.801 9.602,9.598" /><g
         transform="scale(0.999722,-1.00028)"
         id="g154"><path
           id="path156"
           style="fill:none;stroke:#ff0000;stroke-width:6.47580004;stroke-linecap:round;stroke-linejoin:round;stroke-miterlimit:10;stroke-dasharray:none;stroke-opacity:1"
           d="m 939.062,-704.64 c 0,-4.8 -4.802,-9.599 -9.604,-9.599 -6.002,0 -10.804,4.799 -10.804,9.599 0,4.795 4.802,9.595 10.804,9.595 4.802,0 9.604,-4.8 9.604,-9.595 z" /></g><g
         transform="scale(0.999722,-1.00028)"
         id="g158"><path
           id="path160"
           style="fill:none;stroke:#000000;stroke-width:6.47580004;stroke-linecap:round;stroke-linejoin:miter;stroke-miterlimit:10;stroke-dasharray:none;stroke-opacity:1"
           d="m 317.287,-584.673 -58.817,0 0,167.953 58.817,0 0,-167.953 z" /></g><g
         transform="scale(0.999722,-1.00028)"
         id="g162"><path
           id="path164"
           style="fill:none;stroke:#000000;stroke-width:6.47580004;stroke-linecap:round;stroke-linejoin:round;stroke-miterlimit:10;stroke-dasharray:none;stroke-opacity:1"
           d="m 290.882,-584.673 0,-58.785" /></g><g
         transform="scale(0.999722,-1.00028)"
         id="g166"><path
           id="path168"
           style="fill:none;stroke:#000000;stroke-width:6.47580004;stroke-linecap:round;stroke-linejoin:round;stroke-miterlimit:10;stroke-dasharray:none;stroke-opacity:1"
           d="m 290.882,-409.523 0,57.582" /></g><path
         id="path170"
         style="fill:#ff0000;fill-opacity:1;fill-rule:evenodd;stroke:none"
         d="m 647.199,296.836 c 0,4.801 -4.801,9.602 -9.597,9.602 -6,0 -9.602,-4.801 -9.602,-9.602 0,-6 3.602,-9.598 9.602,-9.598 4.796,0 9.597,3.598 9.597,9.598" /><g
         transform="scale(0.999722,-1.00028)"
         id="g172"><path
           id="path174"
           style="fill:none;stroke:#ff0000;stroke-width:6.47580004;stroke-linecap:round;stroke-linejoin:round;stroke-miterlimit:10;stroke-dasharray:none;stroke-opacity:1"
           d="m 647.379,-296.753 c 0,-4.8 -4.802,-9.599 -9.6,-9.599 -6.002,0 -9.604,4.799 -9.604,9.599 0,5.998 3.602,9.595 9.604,9.595 4.798,0 9.6,-3.597 9.6,-9.595 z" /></g><path
         id="path176"
         style="fill:#ff0000;fill-opacity:1;fill-rule:evenodd;stroke:none"
         d="m 122.801,704.836 c 0,4.801 -4.801,9.602 -9.602,9.602 -6,0 -10.801,-4.801 -10.801,-9.602 0,-4.797 4.801,-9.598 10.801,-9.598 4.801,0 9.602,4.801 9.602,9.598" /><g
         transform="scale(0.999722,-1.00028)"
         id="g178"><path
           id="path180"
           style="fill:none;stroke:#ff0000;stroke-width:6.47580004;stroke-linecap:round;stroke-linejoin:round;stroke-miterlimit:10;stroke-dasharray:none;stroke-opacity:1"
           d="m 122.835,-704.64 c 0,-4.8 -4.802,-9.599 -9.604,-9.599 -6.002,0 -10.804,4.799 -10.804,9.599 0,4.795 4.802,9.595 10.804,9.595 4.802,0 9.604,-4.8 9.604,-9.595 z" /></g><g
         transform="scale(0.999722,-1.00028)"
         id="g182"><path
           id="path184"
           style="fill:none;stroke:#000000;stroke-width:19.42740059;stroke-linecap:round;stroke-linejoin:round;stroke-miterlimit:10;stroke-dasharray:none;stroke-opacity:1"
           d="m 232.064,-351.941 0,-291.517" /></g><g
         transform="scale(0.999722,-1.00028)"
         id="g186"><path
           id="path188"
           style="fill:none;stroke:#000000;stroke-width:19.42740059;stroke-linecap:round;stroke-linejoin:round;stroke-miterlimit:10;stroke-dasharray:none;stroke-opacity:1"
           d="m 232.064,-351.941 -19.204,-44.386 39.609,0 -20.405,44.386 z" /></g><g
         transform="scale(0.999722,-1.00028)"
         id="g190"><path
           id="path192"
           style="fill:none;stroke:#000000;stroke-width:19.42740059;stroke-linecap:round;stroke-linejoin:round;stroke-miterlimit:10;stroke-dasharray:none;stroke-opacity:1"
           d="m 232.064,-643.458 20.405,45.585 -39.609,0 19.204,-45.585 z" /></g><g
         transform="scale(0.999722,-1.00028)"
         id="g194"><path
           id="path196"
           style="fill:none;stroke:#ff0000;stroke-width:6.47580004;stroke-linecap:round;stroke-linejoin:round;stroke-miterlimit:10;stroke-dasharray:none;stroke-opacity:1"
           d="m 931.861,-701.043 -57.618,0" /></g><g
         transform="scale(0.999722,-1.00028)"
         id="g198"><path
           id="path200"
           style="fill:none;stroke:#ff0000;stroke-width:6.47580004;stroke-linecap:round;stroke-linejoin:round;stroke-miterlimit:10;stroke-dasharray:none;stroke-opacity:1"
           d="m 640.178,-118.006 0,-175.151" /></g><g
         transform="scale(0.999722,-1.00028)"
         id="g202"><path
           id="path204"
           style="fill:none;stroke:#ff0000;stroke-width:6.47580004;stroke-linecap:round;stroke-linejoin:round;stroke-miterlimit:10;stroke-dasharray:none;stroke-opacity:1"
           d="m 640.178,-293.157 234.065,0" /></g><g
         transform="scale(0.999722,-1.00028)"
         id="g206"><path
           id="path208"
           style="fill:none;stroke:#ff0000;stroke-width:6.47580004;stroke-linecap:round;stroke-linejoin:round;stroke-miterlimit:10;stroke-dasharray:none;stroke-opacity:1"
           d="m 290.882,-351.941 0,58.784 349.296,0" /></g><g
         transform="scale(0.999722,-1.00028)"
         id="g210"><path
           id="path212"
           style="fill:none;stroke:#ff0000;stroke-width:6.47580004;stroke-linecap:round;stroke-linejoin:round;stroke-miterlimit:10;stroke-dasharray:none;stroke-opacity:1"
           d="m 115.634,-701.043 175.248,0 0,57.585" /></g></g></g></svg>