<?xml version="1.0" encoding="UTF-8" standalone="no"?>
<svg
   xmlns:dc="http://purl.org/dc/elements/1.1/"
   xmlns:cc="http://creativecommons.org/ns#"
   xmlns:rdf="http://www.w3.org/1999/02/22-rdf-syntax-ns#"
   xmlns:svg="http://www.w3.org/2000/svg"
   xmlns="http://www.w3.org/2000/svg"
   viewBox="0 0 90 87.5"
   height="87.5"
   width="90"
   xml:space="preserve"
   version="1.1"
   id="svg2"><metadata
     id="metadata8"><rdf:RDF><cc:Work
         rdf:about=""><dc:format>image/svg+xml</dc:format><dc:type
           rdf:resource="http://purl.org/dc/dcmitype/StillImage" /></cc:Work></rdf:RDF></metadata><defs
     id="defs6" /><g
     transform="matrix(1.25,0,0,-1.25,0,87.5)"
     id="g10"><g
       transform="scale(0.1,0.1)"
       id="g12"><path
         id="path14"
         style="fill:none;stroke:#0000ff;stroke-width:6.4776001;stroke-linecap:round;stroke-linejoin:round;stroke-miterlimit:10;stroke-dasharray:none;stroke-opacity:1"
         d="m 473.199,429.016 0,-156" /><path
         id="path16"
         style="fill:none;stroke:#0000ff;stroke-width:6.4776001;stroke-linecap:round;stroke-linejoin:round;stroke-miterlimit:10;stroke-dasharray:none;stroke-opacity:1"
         d="m 551.199,429.016 0,39.601" /><path
         id="path18"
         style="fill:none;stroke:#0000ff;stroke-width:6.4776001;stroke-linecap:round;stroke-linejoin:round;stroke-miterlimit:10;stroke-dasharray:none;stroke-opacity:1"
         d="m 551.199,234.617 0,38.399" /><path
         id="path20"
         style="fill:none;stroke:#0000ff;stroke-width:6.4776001;stroke-linecap:round;stroke-linejoin:round;stroke-miterlimit:10;stroke-dasharray:none;stroke-opacity:1"
         d="m 473.199,390.617 78,38.399" /><path
         id="path22"
         style="fill:none;stroke:#0000ff;stroke-width:6.4776001;stroke-linecap:round;stroke-linejoin:round;stroke-miterlimit:10;stroke-dasharray:none;stroke-opacity:1"
         d="m 433.602,351.016 39.597,0" /><path
         id="path24"
         style="fill:none;stroke:#0000ff;stroke-width:6.4776001;stroke-linecap:round;stroke-linejoin:round;stroke-miterlimit:10;stroke-dasharray:none;stroke-opacity:1"
         d="m 473.199,312.617 78,-39.601 0,-38.399" /><path
         id="path26"
         style="fill:none;stroke:#0000ff;stroke-width:6.4776001;stroke-linecap:round;stroke-linejoin:round;stroke-miterlimit:10;stroke-dasharray:none;stroke-opacity:1"
         d="M 530.801,305.418 538,280.219 511.602,273.016" /><path
         id="path28"
         style="fill:none;stroke:#0000ff;stroke-width:6.4776001;stroke-linecap:round;stroke-linejoin:round;stroke-miterlimit:10;stroke-dasharray:none;stroke-opacity:1"
         d="m 551.199,234.617 0,-116.398" /><path
         id="path30"
         style="fill:none;stroke:#0000ff;stroke-width:6.4776001;stroke-linecap:round;stroke-linejoin:round;stroke-miterlimit:10;stroke-dasharray:none;stroke-opacity:1"
         d="m 551.199,468.617 0,116.399" /><path
         id="path32"
         style="fill:none;stroke:#0000ff;stroke-width:6.4776001;stroke-linecap:round;stroke-linejoin:round;stroke-miterlimit:10;stroke-dasharray:none;stroke-opacity:1"
         d="m 433.602,351.016 -57.602,0" /><path
         id="path34"
         style="fill:#ff0000;fill-opacity:1;fill-rule:evenodd;stroke:none"
         d="m 388,352.219 c 0,7.199 -6,12 -13.199,12 -7.199,0 -12,-4.801 -12,-12 0,-7.203 4.801,-13.203 12,-13.203 7.199,0 13.199,6 13.199,13.203" /><path
         id="path36"
         style="fill:none;stroke:#ff0000;stroke-width:6.4776001;stroke-linecap:round;stroke-linejoin:round;stroke-miterlimit:10;stroke-dasharray:none;stroke-opacity:1"
         d="m 388,352.219 c 0,7.199 -6,12 -13.199,12 -7.199,0 -12,-4.801 -12,-12 0,-7.203 4.801,-13.203 12,-13.203 7.199,0 13.199,6 13.199,13.203 z" /><path
         id="path38"
         style="fill:#ff0000;fill-opacity:1;fill-rule:evenodd;stroke:none"
         d="m 562,119.418 c 0,7.199 -6,12 -12,12 -7.199,0 -12,-4.801 -12,-12 0,-7.199 4.801,-13.199 12,-13.199 6,0 12,6 12,13.199" /><path
         id="path40"
         style="fill:none;stroke:#ff0000;stroke-width:6.4776001;stroke-linecap:round;stroke-linejoin:round;stroke-miterlimit:10;stroke-dasharray:none;stroke-opacity:1"
         d="m 562,119.418 c 0,7.199 -6,12 -12,12 -7.199,0 -12,-4.801 -12,-12 0,-7.199 4.801,-13.199 12,-13.199 6,0 12,6 12,13.199 z" /><path
         id="path42"
         style="fill:#ff0000;fill-opacity:1;fill-rule:evenodd;stroke:none"
         d="m 562,586.219 c 0,7.199 -6,12 -12,12 -7.199,0 -12,-4.801 -12,-12 0,-7.203 4.801,-13.203 12,-13.203 6,0 12,6 12,13.203" /><path
         id="path44"
         style="fill:none;stroke:#ff0000;stroke-width:6.4776001;stroke-linecap:round;stroke-linejoin:round;stroke-miterlimit:10;stroke-dasharray:none;stroke-opacity:1"
         d="m 562,586.219 c 0,7.199 -6,12 -12,12 -7.199,0 -12,-4.801 -12,-12 0,-7.203 4.801,-13.203 12,-13.203 6,0 12,6 12,13.203 z" /><g
         transform="scale(10,10)"
         id="g46"><text
           id="text48"
           style="font-variant:normal;font-weight:normal;font-size:8.42675972px;font-family:'Helvetica LT Std';-inkscape-font-specification:Helvetica;writing-mode:lr-tb;fill:#000000;fill-opacity:1;fill-rule:nonzero;stroke:none"
           transform="matrix(1,0,0,-1,1.96016,32.1016)"><tspan
             id="tspan50"
             y="0"
             x="0 5.7599998 8.3999987 11.039999 15.48 18.119999 22.679998 25.200001">B: 0,7 V</tspan><tspan
             id="tspan52"
             y="29.1598"
             x="43.4398 49.199802 51.839798 54.359798 58.919796 61.559799">E: 0 V</tspan><tspan
             id="tspan54"
             y="-29.160101"
             x="40.799961 46.679958 49.199959 51.839954 56.39996 60.839958 63.479958">C: 12 V</tspan></text>
</g><path
         id="path56"
         style="fill:none;stroke:#000000;stroke-width:6.4776001;stroke-linecap:round;stroke-linejoin:round;stroke-miterlimit:10;stroke-dasharray:none;stroke-opacity:1"
         d="m 608.801,585.016 0,-116.399" /><path
         id="path58"
         style="fill:none;stroke:#000000;stroke-width:6.4776001;stroke-linecap:round;stroke-linejoin:round;stroke-miterlimit:10;stroke-dasharray:none;stroke-opacity:1"
         d="m 608.801,468.617 -19.199,44.399 38.398,0 -19.199,-44.399 z" /><path
         id="path60"
         style="fill:none;stroke:#000000;stroke-width:6.4776001;stroke-linecap:round;stroke-linejoin:round;stroke-miterlimit:10;stroke-dasharray:none;stroke-opacity:1"
         d="m 608.801,234.617 0,-116.398" /><path
         id="path62"
         style="fill:none;stroke:#000000;stroke-width:6.4776001;stroke-linecap:round;stroke-linejoin:round;stroke-miterlimit:10;stroke-dasharray:none;stroke-opacity:1"
         d="m 608.801,118.219 -19.199,45.597 38.398,0 -19.199,-45.597 z" /><path
         id="path64"
         style="fill:none;stroke:#000000;stroke-width:6.4776001;stroke-linecap:round;stroke-linejoin:round;stroke-miterlimit:10;stroke-dasharray:none;stroke-opacity:1"
         d="m 317.199,293.418 116.403,0" /><path
         id="path66"
         style="fill:none;stroke:#000000;stroke-width:6.4776001;stroke-linecap:round;stroke-linejoin:round;stroke-miterlimit:10;stroke-dasharray:none;stroke-opacity:1"
         d="m 433.602,293.418 -44.403,-20.402 0,39.601 44.403,-19.199 z" /><g
         transform="scale(10,10)"
         id="g68"><text
           id="text70"
           style="font-variant:normal;font-weight:normal;font-size:5.83355999px;font-family:'Helvetica LT Std';-inkscape-font-specification:Helvetica;writing-mode:lr-tb;fill:#000000;fill-opacity:1;fill-rule:nonzero;stroke:none"
           transform="matrix(1,0,0,-1,31.7199,23.9418)"><tspan
             id="tspan72"
             y="0"
             x="0 1.9200025">Ib</tspan><tspan
             id="tspan74"
             y="-26.519899"
             x="32.400002 34.320004">Ic</tspan><tspan
             id="tspan76"
             y="8.5199003"
             x="32.400002 34.320004">Ie</tspan></text>
</g><path
         id="path78"
         style="fill:none;stroke:#ff0000;stroke-width:6.4776001;stroke-linecap:round;stroke-linejoin:round;stroke-miterlimit:10;stroke-dasharray:none;stroke-opacity:1"
         d="m 376,351.016 0,0" /><path
         id="path80"
         style="fill:none;stroke:#ff0000;stroke-width:6.4776001;stroke-linecap:round;stroke-linejoin:round;stroke-miterlimit:10;stroke-dasharray:none;stroke-opacity:1"
         d="m 551.199,118.219 0,0" /><path
         id="path82"
         style="fill:none;stroke:#ff0000;stroke-width:6.4776001;stroke-linecap:round;stroke-linejoin:round;stroke-miterlimit:10;stroke-dasharray:none;stroke-opacity:1"
         d="m 551.199,585.016 0,0" /></g></g></svg>