<?xml version="1.0" encoding="UTF-8" standalone="no"?>
<svg
   xmlns:dc="http://purl.org/dc/elements/1.1/"
   xmlns:cc="http://creativecommons.org/ns#"
   xmlns:rdf="http://www.w3.org/1999/02/22-rdf-syntax-ns#"
   xmlns:svg="http://www.w3.org/2000/svg"
   xmlns="http://www.w3.org/2000/svg"
   viewBox="0 0 93.75 87.5"
   height="87.5"
   width="93.75"
   xml:space="preserve"
   version="1.1"
   id="svg2"><metadata
     id="metadata8"><rdf:RDF><cc:Work
         rdf:about=""><dc:format>image/svg+xml</dc:format><dc:type
           rdf:resource="http://purl.org/dc/dcmitype/StillImage" /></cc:Work></rdf:RDF></metadata><defs
     id="defs6" /><g
     transform="matrix(1.25,0,0,-1.25,0,87.5)"
     id="g10"><g
       transform="scale(0.1,0.1)"
       id="g12"><g
         transform="scale(1.00037,-0.99963)"
         id="g14"><path
           id="path16"
           style="fill:none;stroke:#0000ff;stroke-width:6.48000002;stroke-linecap:round;stroke-linejoin:round;stroke-miterlimit:10;stroke-dasharray:none;stroke-opacity:1"
           d="m 505.414,-273.117 0,-156.058" /></g><g
         transform="scale(1.00037,-0.99963)"
         id="g18"><path
           id="path20"
           style="fill:none;stroke:#0000ff;stroke-width:6.48000002;stroke-linecap:round;stroke-linejoin:round;stroke-miterlimit:10;stroke-dasharray:none;stroke-opacity:1"
           d="m 583.385,-273.117 0,38.413" /></g><g
         transform="scale(1.00037,-0.99963)"
         id="g22"><path
           id="path24"
           style="fill:none;stroke:#0000ff;stroke-width:6.48000002;stroke-linecap:round;stroke-linejoin:round;stroke-miterlimit:10;stroke-dasharray:none;stroke-opacity:1"
           d="m 583.385,-468.791 0,39.616" /></g><g
         transform="scale(1.00037,-0.99963)"
         id="g26"><path
           id="path28"
           style="fill:none;stroke:#0000ff;stroke-width:6.48000002;stroke-linecap:round;stroke-linejoin:round;stroke-miterlimit:10;stroke-dasharray:none;stroke-opacity:1"
           d="m 505.414,-312.733 77.971,39.616" /></g><g
         transform="scale(1.00037,-0.99963)"
         id="g30"><path
           id="path32"
           style="fill:none;stroke:#0000ff;stroke-width:6.48000002;stroke-linecap:round;stroke-linejoin:round;stroke-miterlimit:10;stroke-dasharray:none;stroke-opacity:1"
           d="m 467.026,-351.146 38.388,0" /></g><g
         transform="scale(1.00037,-0.99963)"
         id="g34"><path
           id="path36"
           style="fill:none;stroke:#0000ff;stroke-width:6.48000002;stroke-linecap:round;stroke-linejoin:round;stroke-miterlimit:10;stroke-dasharray:none;stroke-opacity:1"
           d="m 505.414,-390.762 77.971,-38.413 0,-39.616" /></g><g
         transform="scale(1.00037,-0.99963)"
         id="g38"><path
           id="path40"
           style="fill:none;stroke:#0000ff;stroke-width:6.48000002;stroke-linecap:round;stroke-linejoin:round;stroke-miterlimit:10;stroke-dasharray:none;stroke-opacity:1"
           d="m 550.995,-390.762 -32.386,-6.002 13.194,-26.408" /></g><g
         transform="scale(1.00037,-0.99963)"
         id="g42"><path
           id="path44"
           style="fill:none;stroke:#0000ff;stroke-width:6.48000002;stroke-linecap:round;stroke-linejoin:round;stroke-miterlimit:10;stroke-dasharray:none;stroke-opacity:1"
           d="m 583.385,-468.791 0,-116.441" /></g><g
         transform="scale(1.00037,-0.99963)"
         id="g46"><path
           id="path48"
           style="fill:none;stroke:#0000ff;stroke-width:6.48000002;stroke-linecap:round;stroke-linejoin:round;stroke-miterlimit:10;stroke-dasharray:none;stroke-opacity:1"
           d="m 583.385,-234.704 0,116.441" /></g><g
         transform="scale(1.00037,-0.99963)"
         id="g50"><path
           id="path52"
           style="fill:none;stroke:#0000ff;stroke-width:6.48000002;stroke-linecap:round;stroke-linejoin:round;stroke-miterlimit:10;stroke-dasharray:none;stroke-opacity:1"
           d="m 467.026,-351.146 -58.779,0" /></g><path
         id="path54"
         style="fill:#ff0000;fill-opacity:1;fill-rule:evenodd;stroke:none"
         d="m 420.398,352.219 c 0,7.199 -6,12 -13.199,12 -7.199,0 -12,-4.801 -12,-12 0,-7.203 4.801,-13.203 12,-13.203 7.199,0 13.199,6 13.199,13.203" /><g
         transform="scale(1.00037,-0.99963)"
         id="g56"><path
           id="path58"
           style="fill:none;stroke:#ff0000;stroke-width:6.48000002;stroke-linecap:round;stroke-linejoin:round;stroke-miterlimit:10;stroke-dasharray:none;stroke-opacity:1"
           d="m 420.243,-352.349 c 0,-7.202 -5.998,-12.005 -13.195,-12.005 -7.196,0 -11.995,4.803 -11.995,12.005 0,7.206 4.799,13.208 11.995,13.208 7.197,0 13.195,-6.002 13.195,-13.208 z" /></g><path
         id="path60"
         style="fill:#ff0000;fill-opacity:1;fill-rule:evenodd;stroke:none"
         d="m 595.602,586.219 c 0,7.199 -6,12 -13.204,12 -7.199,0 -12,-4.801 -12,-12 0,-7.203 4.801,-13.203 12,-13.203 7.204,0 13.204,6 13.204,13.203" /><g
         transform="scale(1.00037,-0.99963)"
         id="g62"><path
           id="path64"
           style="fill:none;stroke:#ff0000;stroke-width:6.48000002;stroke-linecap:round;stroke-linejoin:round;stroke-miterlimit:10;stroke-dasharray:none;stroke-opacity:1"
           d="m 595.381,-586.436 c 0,-7.202 -5.998,-12.004 -13.198,-12.004 -7.197,0 -11.996,4.802 -11.996,12.004 0,7.206 4.799,13.208 11.996,13.208 7.2,0 13.198,-6.002 13.198,-13.208 z" /></g><path
         id="path66"
         style="fill:#ff0000;fill-opacity:1;fill-rule:evenodd;stroke:none"
         d="m 595.602,119.418 c 0,7.199 -6,12 -13.204,12 -7.199,0 -12,-4.801 -12,-12 0,-7.199 4.801,-13.199 12,-13.199 7.204,0 13.204,6 13.204,13.199" /><g
         transform="scale(1.00037,-0.99963)"
         id="g68"><path
           id="path70"
           style="fill:none;stroke:#ff0000;stroke-width:6.48000002;stroke-linecap:round;stroke-linejoin:round;stroke-miterlimit:10;stroke-dasharray:none;stroke-opacity:1"
           d="m 595.381,-119.462 c 0,-7.202 -5.998,-12.005 -13.198,-12.005 -7.197,0 -11.996,4.803 -11.996,12.005 0,7.202 4.799,13.204 11.996,13.204 7.2,0 13.198,-6.002 13.198,-13.204 z" /></g><g
         transform="scale(10,10)"
         id="g72"><text
           id="text74"
           style="font-variant:normal;font-weight:normal;font-size:8.42675972px;font-family:'Helvetica LT Std';-inkscape-font-specification:Helvetica;writing-mode:lr-tb;fill:#000000;fill-opacity:1;fill-rule:nonzero;stroke:none"
           transform="matrix(1,0,0,-1,42.7602,2.9418)"><tspan
             id="tspan76"
             y="0"
             x="0 5.8799977 8.5200005 11.039996 13.679999 18.239998 22.68 25.320004">C: -12 V</tspan><tspan
             id="tspan78"
             y="-29.1598"
             x="-40.799999 -35.040001 -32.400002 -29.76 -27.240002 -22.68 -20.040001 -15.480002 -12.960001">B: -0,7 V</tspan><tspan
             id="tspan80"
             y="-58.32"
             x="7.1999998 12.959998 15.6 18.239998 22.68 25.320004">E: 0 V</tspan></text>
</g><g
         transform="scale(1.00037,-0.99963)"
         id="g82"><path
           id="path84"
           style="fill:none;stroke:#000000;stroke-width:6.48000002;stroke-linecap:round;stroke-linejoin:round;stroke-miterlimit:10;stroke-dasharray:none;stroke-opacity:1"
           d="m 642.161,-585.232 0,116.441" /></g><g
         transform="scale(1.00037,-0.99963)"
         id="g86"><path
           id="path88"
           style="fill:none;stroke:#000000;stroke-width:6.48000002;stroke-linecap:round;stroke-linejoin:round;stroke-miterlimit:10;stroke-dasharray:none;stroke-opacity:1"
           d="m 642.161,-468.791 -20.391,-44.415 39.587,0 -19.196,44.415 z" /></g><g
         transform="scale(1.00037,-0.99963)"
         id="g90"><path
           id="path92"
           style="fill:none;stroke:#000000;stroke-width:6.48000002;stroke-linecap:round;stroke-linejoin:round;stroke-miterlimit:10;stroke-dasharray:none;stroke-opacity:1"
           d="m 642.161,-234.704 0,116.441" /></g><g
         transform="scale(1.00037,-0.99963)"
         id="g94"><path
           id="path96"
           style="fill:none;stroke:#000000;stroke-width:6.48000002;stroke-linecap:round;stroke-linejoin:round;stroke-miterlimit:10;stroke-dasharray:none;stroke-opacity:1"
           d="m 642.161,-118.263 -20.391,-45.614 39.587,0 -19.196,45.614 z" /></g><g
         transform="scale(1.00037,-0.99963)"
         id="g98"><path
           id="path100"
           style="fill:none;stroke:#000000;stroke-width:6.48000002;stroke-linecap:round;stroke-linejoin:round;stroke-miterlimit:10;stroke-dasharray:none;stroke-opacity:1"
           d="m 467.026,-293.527 -117.554,0" /></g><g
         transform="scale(1.00037,-0.99963)"
         id="g102"><path
           id="path104"
           style="fill:none;stroke:#000000;stroke-width:6.48000002;stroke-linecap:round;stroke-linejoin:round;stroke-miterlimit:10;stroke-dasharray:none;stroke-opacity:1"
           d="m 349.472,-293.527 45.581,-19.206 0,39.616 -45.581,-20.41 z" /></g><g
         transform="scale(10,10)"
         id="g106"><text
           id="text108"
           style="font-variant:normal;font-weight:normal;font-size:5.83355999px;font-family:'Helvetica LT Std';-inkscape-font-specification:Helvetica;writing-mode:lr-tb;fill:#000000;fill-opacity:1;fill-rule:nonzero;stroke:none"
           transform="matrix(1,0,0,-1,67.4801,15.4219)"><tspan
             id="tspan110"
             y="0"
             x="0 1.9200025">Ic</tspan><tspan
             id="tspan112"
             y="-35.039799"
             x="0 1.9200025">Ie</tspan><tspan
             id="tspan114"
             y="-5.8796"
             x="-29.2801 -27.240099">Ib</tspan></text>
</g><g
         transform="scale(1.00037,-0.99963)"
         id="g116"><path
           id="path118"
           style="fill:none;stroke:#ff0000;stroke-width:6.48000002;stroke-linecap:round;stroke-linejoin:round;stroke-miterlimit:10;stroke-dasharray:none;stroke-opacity:1"
           d="m 408.247,-351.146 0,0" /></g><g
         transform="scale(1.00037,-0.99963)"
         id="g120"><path
           id="path122"
           style="fill:none;stroke:#ff0000;stroke-width:6.48000002;stroke-linecap:round;stroke-linejoin:round;stroke-miterlimit:10;stroke-dasharray:none;stroke-opacity:1"
           d="m 583.385,-585.232 0,0" /></g><g
         transform="scale(1.00037,-0.99963)"
         id="g124"><path
           id="path126"
           style="fill:none;stroke:#ff0000;stroke-width:6.48000002;stroke-linecap:round;stroke-linejoin:round;stroke-miterlimit:10;stroke-dasharray:none;stroke-opacity:1"
           d="m 583.385,-118.263 0,0" /></g></g></g></svg>