<?xml version="1.0" encoding="UTF-8" standalone="no"?>
<svg
   xmlns:dc="http://purl.org/dc/elements/1.1/"
   xmlns:cc="http://creativecommons.org/ns#"
   xmlns:rdf="http://www.w3.org/1999/02/22-rdf-syntax-ns#"
   xmlns:svg="http://www.w3.org/2000/svg"
   xmlns="http://www.w3.org/2000/svg"
   viewBox="0 0 195 72.5"
   height="72.5"
   width="195"
   xml:space="preserve"
   version="1.1"
   id="svg2"><metadata
     id="metadata8"><rdf:RDF><cc:Work
         rdf:about=""><dc:format>image/svg+xml</dc:format><dc:type
           rdf:resource="http://purl.org/dc/dcmitype/StillImage" /></cc:Work></rdf:RDF></metadata><defs
     id="defs6"><clipPath
       id="clipPath148"
       clipPathUnits="userSpaceOnUse"><path
         id="path150"
         d="m 1361.2,10.3984 198.801,0 0,94.7969 -198.801,0 0,-94.7969 z" /></clipPath></defs><g
     transform="matrix(1.25,0,0,-1.25,0,72.5)"
     id="g10"><g
       transform="scale(0.1,0.1)"
       id="g12"><g
         transform="scale(10,10)"
         id="g14"><text
           id="text16"
           style="font-variant:normal;font-weight:normal;font-size:8.42343903px;font-family:'Helvetica LT Std';-inkscape-font-specification:Helvetica;writing-mode:lr-tb;fill:#000000;fill-opacity:1;fill-rule:nonzero;stroke:none"
           transform="matrix(1,0,0,-0.99894112,42.7602,2.95977)"><tspan
             id="tspan18"
             y="0"
             x="0 1.9200101 4.5600224 9.720047 12.360056 16.800077 19.440086 24.000111 28.560131 31.080143 38.280174">I = 3,18 mA</tspan></text>
</g><g
         transform="scale(1.00065,-0.999351)"
         id="g20"><path
           id="path22"
           style="fill:none;stroke:#000000;stroke-width:6.47340012;stroke-linecap:round;stroke-linejoin:round;stroke-miterlimit:10;stroke-dasharray:none;stroke-opacity:1"
           d="m 1255.99,-345.419 0,103.266 83.94,-51.635 -83.94,-51.631 z" /></g><g
         transform="scale(1.00065,-0.999351)"
         id="g24"><path
           id="path26"
           style="fill:none;stroke:#000000;stroke-width:6.47340012;stroke-linecap:round;stroke-linejoin:round;stroke-miterlimit:10;stroke-dasharray:none;stroke-opacity:1"
           d="m 1339.93,-338.216 0,96.063" /></g><g
         transform="scale(1.00065,-0.999351)"
         id="g28"><path
           id="path30"
           style="fill:none;stroke:#000000;stroke-width:6.47340012;stroke-linecap:round;stroke-linejoin:round;stroke-miterlimit:10;stroke-dasharray:none;stroke-opacity:1"
           d="m 1275.17,-410.262 -39.57,39.623" /></g><g
         transform="scale(1.00065,-0.999351)"
         id="g32"><path
           id="path34"
           style="fill:none;stroke:#000000;stroke-width:6.47340012;stroke-linecap:round;stroke-linejoin:round;stroke-miterlimit:10;stroke-dasharray:none;stroke-opacity:1"
           d="m 1353.12,-391.051 -39.57,39.628" /></g><g
         transform="scale(1.00065,-0.999351)"
         id="g36"><path
           id="path38"
           style="fill:none;stroke:#000000;stroke-width:6.47340012;stroke-linecap:round;stroke-linejoin:round;stroke-miterlimit:10;stroke-dasharray:none;stroke-opacity:1"
           d="m 1332.74,-293.788 77.95,0" /></g><g
         transform="scale(1.00065,-0.999351)"
         id="g40"><path
           id="path42"
           style="fill:none;stroke:#000000;stroke-width:6.47340012;stroke-linecap:round;stroke-linejoin:round;stroke-miterlimit:10;stroke-dasharray:none;stroke-opacity:1"
           d="m 1332.74,-293.788 -97.14,0" /></g><g
         transform="scale(1.00065,-0.999351)"
         id="g44"><path
           id="path46"
           style="fill:none;stroke:#000000;stroke-width:6.47340012;stroke-linecap:round;stroke-linejoin:round;stroke-miterlimit:10;stroke-dasharray:none;stroke-opacity:1"
           d="m 1255.99,-429.474 38.37,38.423 19.19,-57.639 -57.56,19.216 z" /></g><g
         transform="scale(1.00065,-0.999351)"
         id="g48"><path
           id="path50"
           style="fill:none;stroke:#000000;stroke-width:6.47340012;stroke-linecap:round;stroke-linejoin:round;stroke-miterlimit:10;stroke-dasharray:none;stroke-opacity:1"
           d="m 1332.74,-410.262 39.57,39.623 19.19,-58.835 -58.76,19.212 z" /></g><g
         transform="scale(1.00065,-0.999351)"
         id="g52"><path
           id="path54"
           style="fill:none;stroke:#000000;stroke-width:6.47340012;stroke-linecap:round;stroke-linejoin:round;stroke-miterlimit:10;stroke-dasharray:none;stroke-opacity:1"
           d="m 1235.6,-293.788 -116.33,0" /></g><g
         transform="scale(1.00065,-0.999351)"
         id="g56"><path
           id="path58"
           style="fill:none;stroke:#000000;stroke-width:6.47340012;stroke-linecap:round;stroke-linejoin:round;stroke-miterlimit:10;stroke-dasharray:none;stroke-opacity:1"
           d="m 1410.69,-293.788 58.75,0" /></g><g
         transform="scale(10,10)"
         id="g60"><text
           id="text62"
           style="font-variant:normal;font-weight:bold;font-size:8.42343903px;font-family:'Helvetica LT Std';-inkscape-font-specification:Helvetica-Bold;writing-mode:lr-tb;fill:#0000ff;fill-opacity:1;fill-rule:nonzero;stroke:none"
           transform="matrix(1,0,0,-0.99894112,87.5199,16.8797)"><tspan
             id="tspan64"
             y="0"
             x="0 4.4400225 7.0800314 11.64005">2.2k</tspan></text>
<text
           id="text66"
           style="font-variant:normal;font-weight:normal;font-size:-8.43756008px;font-family:Arial;-inkscape-font-specification:Arial;writing-mode:lr-tb;fill:#0000ff;fill-opacity:1;fill-rule:nonzero;stroke:none"
           transform="matrix(1,0,0,-1,103.72,16.8797)"><tspan
             id="tspan68"
             y="0"
             x="0">Ω</tspan></text>
</g><g
         transform="scale(1.00065,-0.999351)"
         id="g70"><path
           id="path72"
           style="fill:none;stroke:#0000ff;stroke-width:6.47340012;stroke-linecap:round;stroke-linejoin:miter;stroke-miterlimit:10;stroke-dasharray:none;stroke-opacity:1"
           d="m 1054.51,-326.208 -167.886,0 0,58.839 167.886,0 0,-58.839 z" /></g><g
         transform="scale(1.00065,-0.999351)"
         id="g74"><path
           id="path76"
           style="fill:none;stroke:#0000ff;stroke-width:6.47340012;stroke-linecap:round;stroke-linejoin:round;stroke-miterlimit:10;stroke-dasharray:none;stroke-opacity:1"
           d="m 886.624,-293.788 -58.763,0" /></g><g
         transform="scale(1.00065,-0.999351)"
         id="g78"><path
           id="path80"
           style="fill:none;stroke:#0000ff;stroke-width:6.47340012;stroke-linecap:round;stroke-linejoin:round;stroke-miterlimit:10;stroke-dasharray:none;stroke-opacity:1"
           d="m 1061.71,-293.788 57.56,0" /></g><g
         transform="scale(10,10)"
         id="g82"><text
           id="text84"
           style="font-variant:normal;font-weight:bold;font-size:8.42343903px;font-family:'Helvetica LT Std';-inkscape-font-specification:Helvetica-Bold;writing-mode:lr-tb;fill:#0000ff;fill-opacity:1;fill-rule:nonzero;stroke:none"
           transform="matrix(1,0,0,-0.99894112,58.3602,16.8797)"><tspan
             id="tspan86"
             y="0"
             x="0 4.4400225 9.000042">10k</tspan></text>
<text
           id="text88"
           style="font-variant:normal;font-weight:normal;font-size:-8.43756008px;font-family:Arial;-inkscape-font-specification:Arial;writing-mode:lr-tb;fill:#0000ff;fill-opacity:1;fill-rule:nonzero;stroke:none"
           transform="matrix(1,0,0,-1,71.9199,16.8797)"><tspan
             id="tspan90"
             y="0"
             x="0">Ω</tspan></text>
</g><g
         transform="scale(1.00065,-0.999351)"
         id="g92"><path
           id="path94"
           style="fill:none;stroke:#0000ff;stroke-width:6.47340012;stroke-linecap:round;stroke-linejoin:miter;stroke-miterlimit:10;stroke-dasharray:none;stroke-opacity:1"
           d="m 763.106,-326.208 -167.891,0 0,58.839 167.891,0 0,-58.839 z" /></g><g
         transform="scale(1.00065,-0.999351)"
         id="g96"><path
           id="path98"
           style="fill:none;stroke:#0000ff;stroke-width:6.47340012;stroke-linecap:round;stroke-linejoin:round;stroke-miterlimit:10;stroke-dasharray:none;stroke-opacity:1"
           d="m 595.215,-293.788 -58.762,0" /></g><g
         transform="scale(1.00065,-0.999351)"
         id="g100"><path
           id="path102"
           style="fill:none;stroke:#0000ff;stroke-width:6.47340012;stroke-linecap:round;stroke-linejoin:round;stroke-miterlimit:10;stroke-dasharray:none;stroke-opacity:1"
           d="m 770.301,-293.788 57.56,0" /></g><g
         transform="scale(10,10)"
         id="g104"><text
           id="text106"
           style="font-variant:normal;font-weight:bold;font-size:8.42343903px;font-family:'Helvetica LT Std';-inkscape-font-specification:Helvetica-Bold;writing-mode:lr-tb;fill:#0000ff;fill-opacity:1;fill-rule:nonzero;stroke:none"
           transform="matrix(1,0,0,-0.99894112,29.2,16.8797)"><tspan
             id="tspan108"
             y="0"
             x="0 4.4400201 9.000042">10k</tspan></text>
<text
           id="text110"
           style="font-variant:normal;font-weight:normal;font-size:-8.43756008px;font-family:Arial;-inkscape-font-specification:Arial;writing-mode:lr-tb;fill:#0000ff;fill-opacity:1;fill-rule:nonzero;stroke:none"
           transform="matrix(1,0,0,-1,42.7602,16.8797)"><tspan
             id="tspan112"
             y="0"
             x="0">Ω</tspan></text>
</g><g
         transform="scale(1.00065,-0.999351)"
         id="g114"><path
           id="path116"
           style="fill:none;stroke:#0000ff;stroke-width:6.47340012;stroke-linecap:round;stroke-linejoin:miter;stroke-miterlimit:10;stroke-dasharray:none;stroke-opacity:1"
           d="m 471.694,-326.208 -167.891,0 0,58.839 167.891,0 0,-58.839 z" /></g><g
         transform="scale(1.00065,-0.999351)"
         id="g118"><path
           id="path120"
           style="fill:none;stroke:#0000ff;stroke-width:6.47340012;stroke-linecap:round;stroke-linejoin:round;stroke-miterlimit:10;stroke-dasharray:none;stroke-opacity:1"
           d="m 303.803,-293.788 -58.763,0" /></g><g
         transform="scale(1.00065,-0.999351)"
         id="g122"><path
           id="path124"
           style="fill:none;stroke:#0000ff;stroke-width:6.47340012;stroke-linecap:round;stroke-linejoin:round;stroke-miterlimit:10;stroke-dasharray:none;stroke-opacity:1"
           d="m 478.888,-293.788 57.565,0" /></g><path
         id="path126"
         style="fill:#ff0000;fill-opacity:1;fill-rule:evenodd;stroke:none"
         d="m 1476.4,121.996 c 0,4.801 -3.6,9.602 -9.6,9.602 -4.8,0 -9.6,-4.801 -9.6,-9.602 0,-6 4.8,-9.598 9.6,-9.598 6,0 9.6,3.598 9.6,9.598" /><g
         transform="scale(1.00065,-0.999351)"
         id="g128"><path
           id="path130"
           style="fill:none;stroke:#ff0000;stroke-width:6.47340012;stroke-linecap:round;stroke-linejoin:round;stroke-miterlimit:10;stroke-dasharray:none;stroke-opacity:1"
           d="m 1475.44,-122.075 c 0,-4.804 -3.59,-9.608 -9.59,-9.608 -4.8,0 -9.6,4.804 -9.6,9.608 0,6.004 4.8,9.604 9.6,9.604 6,0 9.59,-3.6 9.59,-9.604 z" /></g><path
         id="path132"
         style="fill:#ff0000;fill-opacity:1;fill-rule:evenodd;stroke:none"
         d="m 193.602,471.195 c 0,6 -4.801,9.602 -9.602,9.602 -4.801,0 -9.602,-3.602 -9.602,-9.602 0,-4.797 4.801,-9.597 9.602,-9.597 4.801,0 9.602,4.8 9.602,9.597" /><g
         transform="scale(1.00065,-0.999351)"
         id="g134"><path
           id="path136"
           style="fill:none;stroke:#ff0000;stroke-width:6.47340012;stroke-linecap:round;stroke-linejoin:round;stroke-miterlimit:10;stroke-dasharray:none;stroke-opacity:1"
           d="m 193.476,-471.501 c 0,-6.004 -4.798,-9.608 -9.595,-9.608 -4.798,0 -9.596,3.604 -9.596,9.608 0,4.8 4.798,9.604 9.596,9.604 4.797,0 9.595,-4.804 9.595,-9.604 z" /></g><g
         transform="scale(10,10)"
         id="g138"><text
           id="text140"
           style="font-variant:normal;font-weight:normal;font-size:8.42343903px;font-family:'Helvetica LT Std';-inkscape-font-specification:Helvetica;writing-mode:lr-tb;fill:#000000;fill-opacity:1;fill-rule:nonzero;stroke:none"
           transform="matrix(1,0,0,-0.99894112,1.96016,49.5195)"><tspan
             id="tspan142"
             y="0"
             x="0 5.1600237 9.7200451 14.280066 16.800077">+35 V</tspan></text>
</g><g
         id="g144"><g
           clip-path="url(#clipPath148)"
           id="g146"><g
             transform="scale(10,10)"
             id="g152"><text
               id="text154"
               style="font-variant:normal;font-weight:normal;font-size:8.42343903px;font-family:'Helvetica LT Std';-inkscape-font-specification:Helvetica;writing-mode:lr-tb;fill:#000000;fill-opacity:1;fill-rule:nonzero;stroke:none"
               transform="matrix(1,0,0,-0.99894112,136.12,2.95977)"><tspan
                 id="tspan156"
                 y="0"
                 x="0 2.5199335 7.0801105 11.640287 14.160227">-35 V</tspan></text>
</g></g></g><g
         transform="scale(1.00065,-0.999351)"
         id="g158"><path
           id="path160"
           style="fill:none;stroke:#000000;stroke-width:6.47340012;stroke-linecap:round;stroke-linejoin:round;stroke-miterlimit:10;stroke-dasharray:none;stroke-opacity:1"
           d="m 886.624,-60.8363 291.416,0" /></g><g
         transform="scale(1.00065,-0.999351)"
         id="g162"><path
           id="path164"
           style="fill:none;stroke:#000000;stroke-width:6.47340012;stroke-linecap:round;stroke-linejoin:round;stroke-miterlimit:10;stroke-dasharray:none;stroke-opacity:1"
           d="m 1178.04,-60.8363 -45.58,20.4116 0,-39.6233 45.58,19.2117 z" /></g><g
         transform="scale(1.00065,-0.999351)"
         id="g166"><path
           id="path168"
           style="fill:none;stroke:#ff0000;stroke-width:6.47340012;stroke-linecap:round;stroke-linejoin:round;stroke-miterlimit:10;stroke-dasharray:none;stroke-opacity:1"
           d="m 1119.27,-293.788 0,0" /></g><g
         transform="scale(1.00065,-0.999351)"
         id="g170"><path
           id="path172"
           style="fill:none;stroke:#ff0000;stroke-width:6.47340012;stroke-linecap:round;stroke-linejoin:round;stroke-miterlimit:10;stroke-dasharray:none;stroke-opacity:1"
           d="m 827.861,-293.788 0,0" /></g><g
         transform="scale(1.00065,-0.999351)"
         id="g174"><path
           id="path176"
           style="fill:none;stroke:#ff0000;stroke-width:6.47340012;stroke-linecap:round;stroke-linejoin:round;stroke-miterlimit:10;stroke-dasharray:none;stroke-opacity:1"
           d="m 536.453,-293.788 0,0" /></g><g
         transform="scale(1.00065,-0.999351)"
         id="g178"><path
           id="path180"
           style="fill:none;stroke:#ff0000;stroke-width:6.47340012;stroke-linecap:round;stroke-linejoin:round;stroke-miterlimit:10;stroke-dasharray:none;stroke-opacity:1"
           d="m 1469.44,-118.475 0,-175.313" /></g><g
         transform="scale(1.00065,-0.999351)"
         id="g182"><path
           id="path184"
           style="fill:none;stroke:#ff0000;stroke-width:6.47340012;stroke-linecap:round;stroke-linejoin:round;stroke-miterlimit:10;stroke-dasharray:none;stroke-opacity:1"
           d="m 187.48,-467.901 0,174.113 57.56,0" /></g></g></g></svg>