<?xml version="1.0" encoding="UTF-8" standalone="no"?>
<svg
   xmlns:dc="http://purl.org/dc/elements/1.1/"
   xmlns:cc="http://creativecommons.org/ns#"
   xmlns:rdf="http://www.w3.org/1999/02/22-rdf-syntax-ns#"
   xmlns:svg="http://www.w3.org/2000/svg"
   xmlns="http://www.w3.org/2000/svg"
   viewBox="0 0 81.25 146.25"
   height="146.25"
   width="81.25"
   xml:space="preserve"
   version="1.1"
   id="svg2"><metadata
     id="metadata8"><rdf:RDF><cc:Work
         rdf:about=""><dc:format>image/svg+xml</dc:format><dc:type
           rdf:resource="http://purl.org/dc/dcmitype/StillImage" /></cc:Work></rdf:RDF></metadata><defs
     id="defs6"><clipPath
       id="clipPath98"
       clipPathUnits="userSpaceOnUse"><path
         id="path100"
         d="m 512.801,977.898 135.597,0 0,-278.398 -135.597,0 0,278.398 z" /></clipPath></defs><g
     transform="matrix(1.25,0,0,-1.25,0,146.25)"
     id="g10"><g
       transform="scale(0.1,0.1)"
       id="g12"><g
         transform="scale(10,10)"
         id="g14"><text
           id="text16"
           style="font-variant:normal;font-weight:normal;font-size:7.13258886px;font-family:'Helvetica LT Std';-inkscape-font-specification:Helvetica;writing-mode:lr-tb;fill:#000000;fill-opacity:1;fill-rule:nonzero;stroke:none"
           transform="matrix(1,0,0,-0.99880144,5.8,75.35)"><tspan
             id="tspan18"
             y="0"
             x="0 5.1600208 10.440042 12.360048 14.280056 16.200062 21.480085 25.320099">Gm · Vbe</tspan></text>
<text
           id="text20"
           style="font-variant:normal;font-weight:normal;font-size:-7.125px;font-family:Arial;-inkscape-font-specification:Arial;writing-mode:lr-tb;fill:#000000;fill-opacity:1;fill-rule:nonzero;stroke:none"
           transform="matrix(1,0,0,-1,14.9199,83.75)"><tspan
             id="tspan22"
             y="0"
             x="0">β</tspan></text>
<text
           id="text24"
           style="font-variant:normal;font-weight:normal;font-size:7.13258886px;font-family:'Helvetica LT Std';-inkscape-font-specification:Helvetica;writing-mode:lr-tb;fill:#000000;fill-opacity:1;fill-rule:nonzero;stroke:none"
           transform="matrix(1,0,0,-0.99880144,20.800207,83.75)"><tspan
             id="tspan26"
             y="0"
             x="0 1.920007 3.8400154 5.1600218">· Ib</tspan><tspan
             id="tspan28"
             y="45.414631"
             x="24.599922 29.159943 -0.00016226 5.1598592 8.9998732">ReVbe</tspan></text>
</g><g
         transform="scale(1.00065,-0.999352)"
         id="g30"><path
           id="path32"
           style="fill:none;stroke:#000000;stroke-width:19.43460083;stroke-linecap:round;stroke-linejoin:round;stroke-miterlimit:10;stroke-dasharray:none;stroke-opacity:1"
           d="m 349.375,-234.05 0,-291.791" /></g><g
         transform="scale(1.00065,-0.999352)"
         id="g34"><path
           id="path36"
           style="fill:none;stroke:#000000;stroke-width:19.43460083;stroke-linecap:round;stroke-linejoin:round;stroke-miterlimit:10;stroke-dasharray:none;stroke-opacity:1"
           d="m 349.375,-234.05 -19.191,-45.631 38.378,0 -19.187,45.631 z" /></g><g
         transform="scale(1.00065,-0.999352)"
         id="g38"><path
           id="path40"
           style="fill:none;stroke:#000000;stroke-width:19.43460083;stroke-linecap:round;stroke-linejoin:round;stroke-miterlimit:10;stroke-dasharray:none;stroke-opacity:1"
           d="m 349.375,-525.841 19.187,45.631 -38.378,0 19.191,-45.631 z" /></g><g
         transform="scale(1.00065,-0.999352)"
         id="g42"><path
           id="path44"
           style="fill:none;stroke:#000000;stroke-width:6.47819996;stroke-linecap:round;stroke-linejoin:round;stroke-miterlimit:10;stroke-dasharray:none;stroke-opacity:1"
           d="m 174.285,-642.315 116.327,0" /></g><g
         transform="scale(1.00065,-0.999352)"
         id="g46"><path
           id="path48"
           style="fill:none;stroke:#000000;stroke-width:6.47819996;stroke-linecap:round;stroke-linejoin:round;stroke-miterlimit:10;stroke-dasharray:none;stroke-opacity:1"
           d="m 290.612,-642.315 -45.572,19.212 0,-39.627 45.572,20.415 z" /></g><g
         transform="scale(10,10)"
         id="g50"><text
           id="text52"
           style="font-variant:normal;font-weight:normal;font-size:5.83593273px;font-family:'Helvetica LT Std';-inkscape-font-specification:Helvetica;writing-mode:lr-tb;fill:#000000;fill-opacity:1;fill-rule:nonzero;stroke:none"
           transform="matrix(1,0,0,-0.99879146,9.03984,62.0301)"><tspan
             id="tspan54"
             y="0"
             x="0 1.919991">Ib</tspan><tspan
             id="tspan56"
             y="-46.616138"
             x="23.399879 25.319872">Ic</tspan></text>
</g><g
         transform="scale(1.00065,-0.999352)"
         id="g58"><path
           id="path60"
           style="fill:none;stroke:#000000;stroke-width:6.47819996;stroke-linecap:round;stroke-linejoin:round;stroke-miterlimit:10;stroke-dasharray:none;stroke-opacity:1"
           d="m 465.698,-234.05 0,116.474" /></g><g
         transform="scale(1.00065,-0.999352)"
         id="g62"><path
           id="path64"
           style="fill:none;stroke:#000000;stroke-width:6.47819996;stroke-linecap:round;stroke-linejoin:round;stroke-miterlimit:10;stroke-dasharray:none;stroke-opacity:1"
           d="m 465.698,-117.576 -19.187,-45.627 38.374,0 -19.187,45.627 z" /></g><g
         transform="scale(10,10)"
         id="g66"><text
           id="text68"
           style="font-variant:normal;font-weight:normal;font-size:5.83593273px;font-family:'Helvetica LT Std';-inkscape-font-specification:Helvetica;writing-mode:lr-tb;fill:#000000;fill-opacity:1;fill-rule:nonzero;stroke:none"
           transform="matrix(1,0,0,-0.99879146,44.0801,26.9898)"><tspan
             id="tspan70"
             y="0"
             x="0 1.9199922">Ie</tspan></text>
<text
           id="text72"
           style="font-variant:normal;font-weight:normal;font-size:8.42955589px;font-family:'Helvetica LT Std';-inkscape-font-specification:Helvetica;writing-mode:lr-tb;fill:#000000;fill-opacity:1;fill-rule:nonzero;stroke:none"
           transform="matrix(1,0,0,-0.99877151,1.96016,55.3098)"><tspan
             id="tspan74"
             y="0"
             x="0">B</tspan><tspan
             id="tspan76"
             y="52.504299"
             x="36.240021">E</tspan><tspan
             id="tspan78"
             y="-52.5047"
             x="36.240021">C</tspan></text>
</g><g
         transform="scale(1.00065,-0.999352)"
         id="g80"><path
           id="path82"
           style="fill:none;stroke:#000000;stroke-width:6.47819996;stroke-linecap:round;stroke-linejoin:round;stroke-miterlimit:10;stroke-dasharray:none;stroke-opacity:1"
           d="m 349.375,-1050.58 0,116.474" /></g><g
         transform="scale(1.00065,-0.999352)"
         id="g84"><path
           id="path86"
           style="fill:none;stroke:#000000;stroke-width:6.47819996;stroke-linecap:round;stroke-linejoin:round;stroke-miterlimit:10;stroke-dasharray:none;stroke-opacity:1"
           d="m 349.375,-934.106 -19.191,-45.627 38.378,0 -19.187,45.627 z" /></g><path
         id="path88"
         style="fill:#ff0000;fill-opacity:1;fill-rule:evenodd;stroke:none"
         d="m 122.801,586.699 c 0,6 -4.801,10.801 -9.602,10.801 -6,0 -9.597,-4.801 -9.597,-10.801 0,-4.801 3.597,-9.601 9.597,-9.601 4.801,0 9.602,4.8 9.602,9.601" /><g
         transform="scale(1.00065,-0.999352)"
         id="g90"><path
           id="path92"
           style="fill:none;stroke:#ff0000;stroke-width:6.47819996;stroke-linecap:round;stroke-linejoin:round;stroke-miterlimit:10;stroke-dasharray:none;stroke-opacity:1"
           d="m 122.721,-587.08 c 0,-6.004 -4.797,-10.808 -9.595,-10.808 -5.996,0 -9.592,4.804 -9.592,10.808 0,4.804 3.596,9.608 9.592,9.608 4.798,0 9.595,-4.804 9.595,-9.608 z" /></g><g
         id="g94"><g
           clip-path="url(#clipPath98)"
           id="g96"><g
             transform="scale(1.00065,-0.999352)"
             id="g102"><path
               id="path104"
               style="fill:none;stroke:#000000;stroke-width:6.47819996;stroke-linecap:round;stroke-linejoin:miter;stroke-miterlimit:10;stroke-dasharray:none;stroke-opacity:1"
               d="m 608.406,-934.106 -51.568,0 0,187.321 51.568,0 0,-187.321 z" /></g></g></g><g
         transform="scale(1.00065,-0.999352)"
         id="g106"><path
           id="path108"
           style="fill:none;stroke:#000000;stroke-width:6.47819996;stroke-linecap:round;stroke-linejoin:round;stroke-miterlimit:10;stroke-dasharray:none;stroke-opacity:1"
           d="m 408.134,-934.106 97.14,97.263 -97.14,97.266 -98.335,-97.266 98.335,-97.263 z" /></g><g
         transform="scale(1.00065,-0.999352)"
         id="g110"><path
           id="path112"
           style="fill:none;stroke:#000000;stroke-width:6.47819996;stroke-linecap:round;stroke-linejoin:round;stroke-miterlimit:10;stroke-dasharray:none;stroke-opacity:1"
           d="m 582.021,-739.577 0,38.423" /></g><g
         transform="scale(1.00065,-0.999352)"
         id="g114"><path
           id="path116"
           style="fill:none;stroke:#000000;stroke-width:6.47819996;stroke-linecap:round;stroke-linejoin:round;stroke-miterlimit:10;stroke-dasharray:none;stroke-opacity:1"
           d="m 408.134,-739.577 0,38.423" /></g><g
         transform="scale(1.00065,-0.999352)"
         id="g118"><path
           id="path120"
           style="fill:none;stroke:#000000;stroke-width:6.47819996;stroke-linecap:round;stroke-linejoin:round;stroke-miterlimit:10;stroke-dasharray:none;stroke-opacity:1"
           d="m 505.274,-836.843 51.564,0" /></g><g
         transform="scale(1.00065,-0.999352)"
         id="g122"><path
           id="path124"
           style="fill:none;stroke:#000000;stroke-width:6.47819996;stroke-linecap:round;stroke-linejoin:round;stroke-miterlimit:10;stroke-dasharray:none;stroke-opacity:1"
           d="m 408.134,-895.678 0,78.05" /></g><path
         id="path126"
         style="fill:#000000;fill-opacity:1;fill-rule:evenodd;stroke:none"
         d="m 427.602,817.098 -39.602,0 20.398,-38.399 19.204,38.399" /><g
         transform="scale(1.00065,-0.999352)"
         id="g128"><path
           id="path130"
           style="fill:none;stroke:#000000;stroke-width:6.47819996;stroke-linecap:round;stroke-linejoin:round;stroke-miterlimit:10;stroke-dasharray:none;stroke-opacity:1"
           d="m 427.324,-817.628 -39.575,0 20.385,38.424 19.19,-38.424 z" /></g><g
         transform="scale(1.00065,-0.999352)"
         id="g132"><path
           id="path134"
           style="fill:none;stroke:#000000;stroke-width:6.47819996;stroke-linecap:round;stroke-linejoin:round;stroke-miterlimit:10;stroke-dasharray:none;stroke-opacity:1"
           d="m 582.021,-895.678 0,78.05" /></g><path
         id="path136"
         style="fill:#000000;fill-opacity:1;fill-rule:evenodd;stroke:none"
         d="m 602.801,817.098 -39.602,0 19.199,-38.399 20.403,38.399" /><g
         transform="scale(1.00065,-0.999352)"
         id="g138"><path
           id="path140"
           style="fill:none;stroke:#000000;stroke-width:6.47819996;stroke-linecap:round;stroke-linejoin:round;stroke-miterlimit:10;stroke-dasharray:none;stroke-opacity:1"
           d="m 602.41,-817.628 -39.576,0 19.187,38.424 20.389,-38.424 z" /></g><g
         transform="scale(1.00065,-0.999352)"
         id="g142"><path
           id="path144"
           style="fill:none;stroke:#000000;stroke-width:6.47819996;stroke-linecap:round;stroke-linejoin:round;stroke-miterlimit:10;stroke-dasharray:none;stroke-opacity:1"
           d="m 582.021,-934.106 0,-116.474" /></g><g
         transform="scale(1.00065,-0.999352)"
         id="g146"><path
           id="path148"
           style="fill:none;stroke:#000000;stroke-width:6.47819996;stroke-linecap:round;stroke-linejoin:round;stroke-miterlimit:10;stroke-dasharray:none;stroke-opacity:1"
           d="m 582.021,-701.154 0,58.839" /></g><g
         transform="scale(1.00065,-0.999352)"
         id="g150"><path
           id="path152"
           style="fill:none;stroke:#000000;stroke-width:6.47819996;stroke-linecap:round;stroke-linejoin:round;stroke-miterlimit:10;stroke-dasharray:none;stroke-opacity:1"
           d="m 408.134,-701.154 0,58.839" /></g><g
         transform="scale(1.00065,-0.999352)"
         id="g154"><path
           id="path156"
           style="fill:none;stroke:#000000;stroke-width:6.47819996;stroke-linecap:round;stroke-linejoin:round;stroke-miterlimit:10;stroke-dasharray:none;stroke-opacity:1"
           d="m 408.134,-934.106 0,-116.474" /></g><path
         id="path158"
         style="fill:#ff0000;fill-opacity:1;fill-rule:evenodd;stroke:none"
         d="m 414.398,1053.5 c 0,4.8 -4.796,9.6 -9.597,9.6 -6,0 -9.602,-4.8 -9.602,-9.6 0,-4.8 3.602,-9.6 9.602,-9.6 4.801,0 9.597,4.8 9.597,9.6" /><g
         transform="scale(1.00065,-0.999352)"
         id="g160"><path
           id="path162"
           style="fill:none;stroke:#ff0000;stroke-width:6.47819996;stroke-linecap:round;stroke-linejoin:round;stroke-miterlimit:10;stroke-dasharray:none;stroke-opacity:1"
           d="m 414.13,-1054.18 c 0,-4.81 -4.794,-9.61 -9.592,-9.61 -5.996,0 -9.595,4.8 -9.595,9.61 0,4.8 3.599,9.6 9.595,9.6 4.798,0 9.592,-4.8 9.592,-9.6 z" /></g><g
         transform="scale(1.00065,-0.999352)"
         id="g164"><path
           id="path166"
           style="fill:none;stroke:#000000;stroke-width:6.47819996;stroke-linecap:round;stroke-linejoin:miter;stroke-miterlimit:10;stroke-dasharray:none;stroke-opacity:1"
           d="m 433.321,-468.202 -57.565,0 0,169.309 57.565,0 0,-169.309 z" /></g><g
         transform="scale(1.00065,-0.999352)"
         id="g168"><path
           id="path170"
           style="fill:none;stroke:#000000;stroke-width:6.47819996;stroke-linecap:round;stroke-linejoin:round;stroke-miterlimit:10;stroke-dasharray:none;stroke-opacity:1"
           d="m 408.134,-468.202 0,-57.639" /></g><g
         transform="scale(1.00065,-0.999352)"
         id="g172"><path
           id="path174"
           style="fill:none;stroke:#000000;stroke-width:6.47819996;stroke-linecap:round;stroke-linejoin:round;stroke-miterlimit:10;stroke-dasharray:none;stroke-opacity:1"
           d="m 408.134,-292.889 0,58.839" /></g><path
         id="path176"
         style="fill:#ff0000;fill-opacity:1;fill-rule:evenodd;stroke:none"
         d="m 414.398,121.098 c 0,4.8 -4.796,9.601 -9.597,9.601 -6,0 -9.602,-4.801 -9.602,-9.601 0,-6 3.602,-9.598 9.602,-9.598 4.801,0 9.597,3.598 9.597,9.598" /><g
         transform="scale(1.00065,-0.999352)"
         id="g178"><path
           id="path180"
           style="fill:none;stroke:#ff0000;stroke-width:6.47819996;stroke-linecap:round;stroke-linejoin:round;stroke-miterlimit:10;stroke-dasharray:none;stroke-opacity:1"
           d="m 414.13,-121.176 c 0,-4.804 -4.794,-9.608 -9.592,-9.608 -5.996,0 -9.595,4.804 -9.595,9.608 0,6.004 3.599,9.604 9.595,9.604 4.798,0 9.592,-3.6 9.592,-9.604 z" /></g><path
         id="path182"
         style="fill:#ff0000;fill-opacity:1;fill-rule:evenodd;stroke:none"
         d="m 414.398,586.699 c 0,6 -4.796,10.801 -9.597,10.801 -6,0 -9.602,-4.801 -9.602,-10.801 0,-4.801 3.602,-9.601 9.602,-9.601 4.801,0 9.597,4.8 9.597,9.601" /><g
         transform="scale(1.00065,-0.999352)"
         id="g184"><path
           id="path186"
           style="fill:none;stroke:#ff0000;stroke-width:6.47819996;stroke-linecap:round;stroke-linejoin:round;stroke-miterlimit:10;stroke-dasharray:none;stroke-opacity:1"
           d="m 414.13,-587.08 c 0,-6.004 -4.794,-10.808 -9.592,-10.808 -5.996,0 -9.595,4.804 -9.595,10.808 0,4.804 3.599,9.608 9.595,9.608 4.798,0 9.592,-4.804 9.592,-9.608 z" /></g><g
         transform="scale(1.00065,-0.999352)"
         id="g188"><path
           id="path190"
           style="fill:none;stroke:#ff0000;stroke-width:6.47819996;stroke-linecap:round;stroke-linejoin:round;stroke-miterlimit:10;stroke-dasharray:none;stroke-opacity:1"
           d="m 408.134,-1050.58 0,0" /></g><g
         transform="scale(1.00065,-0.999352)"
         id="g192"><path
           id="path194"
           style="fill:none;stroke:#ff0000;stroke-width:6.47819996;stroke-linecap:round;stroke-linejoin:round;stroke-miterlimit:10;stroke-dasharray:none;stroke-opacity:1"
           d="m 408.134,-234.05 0,116.474" /></g><g
         transform="scale(1.00065,-0.999352)"
         id="g196"><path
           id="path198"
           style="fill:none;stroke:#ff0000;stroke-width:6.47819996;stroke-linecap:round;stroke-linejoin:round;stroke-miterlimit:10;stroke-dasharray:none;stroke-opacity:1"
           d="m 115.527,-584.68 292.607,0" /></g><g
         transform="scale(1.00065,-0.999352)"
         id="g200"><path
           id="path202"
           style="fill:none;stroke:#ff0000;stroke-width:6.47819996;stroke-linecap:round;stroke-linejoin:round;stroke-miterlimit:10;stroke-dasharray:none;stroke-opacity:1"
           d="m 408.134,-584.68 0,-57.635" /></g><g
         transform="scale(1.00065,-0.999352)"
         id="g204"><path
           id="path206"
           style="fill:none;stroke:#ff0000;stroke-width:6.47819996;stroke-linecap:round;stroke-linejoin:round;stroke-miterlimit:10;stroke-dasharray:none;stroke-opacity:1"
           d="m 408.134,-525.841 0,-58.839" /></g></g></g></svg>