<?xml version="1.0" standalone="no"?>
<!DOCTYPE svg PUBLIC "-//W3C//DTD SVG 20010904//EN"
 "http://www.w3.org/TR/2001/REC-SVG-20010904/DTD/svg10.dtd">
<svg version="1.0" xmlns="http://www.w3.org/2000/svg"
 width="128.000000pt" height="128.000000pt" viewBox="25 40 80 80"
 preserveAspectRatio="xMidYMid meet">
<g transform="translate(0.000000,128.000000) scale(0.100000,-0.100000)"
fill="#000000" stroke="none">
<path d="M330 500 l0 -280 70 0 70 0 1 208 1 207 39 -155 c22 -85 47 -179 55
-208 l15 -53 62 3 62 3 42 165 c24 91 47 179 52 195 6 21 9 -20 10 -137 l1
-167 -26 -3 c-24 -3 -23 -5 35 -68 l61 -65 61 65 c60 63 61 65 35 68 l-26 3 0
250 0 250 -112 -3 -111 -3 -41 -162 c-22 -89 -42 -160 -44 -158 -2 2 -21 72
-43 156 -22 84 -42 156 -45 161 -3 4 -54 8 -115 8 l-109 0 0 -280z"/>
</g>
</svg>
